<svg id="egDpBKrA8Xt1" xmlns="http://www.w3.org/2000/svg" xmlns:xlink="http://www.w3.org/1999/xlink" viewBox="0 0 269.063141 87.414063" shape-rendering="geometricPrecision" text-rendering="geometricPrecision"><path id="egDpBKrA8Xt2" d="M40.781281,50.821861L32.366241,50.821861L32.366241,64.225182L17.73245,64.225182L17.73245,50.821861L11.448271,50.821861L11.448271,69.762291L38.430695,69.762291L38.430695,73.233971L11.448271,73.233971L11.448271,76.199791L7.888701,76.199791L7.888701,50.821861L1.538115,50.821861L1.538115,47.394127L7.888701,47.394127L7.888701,39.571861L11.448271,39.571861L11.448271,47.394127L17.732451,47.394127L17.732451,37.198814L21.292021,37.198814L21.292021,47.394127L28.806669,47.394127L28.806669,37.044518L32.234406,37.044518L32.234406,47.394127L40.781281,47.394127L40.781281,50.821861ZM28.806669,60.818932L28.806669,50.821861L21.292021,50.821861L21.292021,60.818932L28.806669,60.818932ZM86.902374,63.36776L84.661163,66.619713C79.53421,65.125572,75.872101,63.323814,73.674835,61.214439L73.674835,76.331627L70.247101,76.331627L70.247101,60.774986L73.168976,60.774986C71.528351,59.266197,70.378937,57.691979,69.719757,56.051354L63.325226,56.051354C61.025421,61.002525,55.97171,64.371666,48.164093,66.158775L46.098663,63.060143C52.104523,61.932213,56.616242,59.596275,59.63382,56.051354L52.844757,56.051354L52.844757,38.077721L79.980499,38.077721L79.980499,56.051353L73.455109,56.051353C76.091827,59.889244,80.574249,62.327721,86.902374,63.36776ZM63.962921,60.906822C64.036163,65.594322,63.025421,69.172447,60.930695,71.641197C58.835968,74.108971,55.525421,75.701744,50.999054,76.419518L49.109406,73.233971C53.19632,72.823814,56.129913,71.670494,57.90921,69.773033C59.689484,67.876549,60.549835,64.920494,60.491241,60.906822L63.962921,60.906822ZM64.709992,45.240807L64.709992,41.329674L56.250031,41.329674L56.250031,45.240807L64.709992,45.240807ZM64.709992,52.7994L64.709992,48.49276L56.250031,48.49276L56.250031,52.7994L64.709992,52.7994ZM76.552765,45.240807L76.552765,41.329674L68.137726,41.329674L68.137726,45.240807L76.552765,45.240807ZM76.552765,52.7994L76.552765,48.49276L68.137726,48.49276L68.137726,52.7994L76.552765,52.7994ZM125.969757,43.987877C125.969757,44.2369,125.387726,45.119713,124.222687,46.636314C123.058624,48.151939,121.578156,49.635338,119.78421,51.085533C117.989288,52.535729,115.950226,53.860924,113.66507,55.062096C111.379913,56.263268,108.85257,57.311119,106.084015,58.204674L125.706085,58.204674L125.706085,76.287682L122.278351,76.287682L122.278351,73.782799L105.403351,73.782799L105.403351,76.287682L101.975616,76.287682L101.975616,59.456627C97.991241,60.540611,95.369171,61.170494,94.109406,61.346275L91.186554,58.292564C98.613312,56.915611,104.509796,55.296471,108.875031,53.436119C107.893585,52.147057,106.179718,51.048424,103.733429,50.140221L106.918976,47.679283C109.145538,48.865807,110.81546,50.272057,111.928741,51.898033C115.722687,50.110924,118.930694,47.591393,121.552765,44.339439L108.149444,44.339439C104.853546,47.195885,100.876984,49.58358,96.21878,51.502525L92.65921,48.800377C101.09671,45.870689,107.263702,41.490807,111.160187,35.660729L114.257843,37.286705C113.613312,38.399986,112.683624,39.659752,111.467804,41.066002L125.969757,41.066002L125.969757,43.987877ZM122.278351,70.4869L122.278351,61.478111L105.403351,61.478111L105.403351,70.4869L122.278351,70.4869Z" transform="matrix(0.727389 0 0 0.727389 6.61445 16.093114)" opacity="0" fill="rgb(2,185,185)" stroke="none" stroke-width="1"/><path id="egDpBKrA8Xt3" d="M26.433245,73.27832L22.697893,73.27832L22.697893,53.568359L15.578753,73.27832L12.019183,73.27832L5.361468,53.568359L5.361468,73.27832L1.626116,73.27832L1.626116,49.964844L7.580706,49.964844L13.908832,68.641602L20.478655,49.964844L26.433245,49.964844L26.433245,73.27832ZM51.591938,73.27832L47.614887,73.27832L47.614887,55.589844L36.650532,73.27832L32.365864,73.27832L32.365864,49.964844L36.320942,49.964844L36.320942,67.741211L47.30727,49.964844L51.591938,49.964844L51.591938,73.27832ZM61.303852,52.975586C62.783344,50.617188,65.002579,49.4375,67.961563,49.4375C71.023087,49.4375,73.440079,50.547852,75.21254,52.766602C76.985001,54.986328,77.871231,57.875,77.871231,61.43457C77.871231,65.228516,76.889786,68.243164,74.926895,70.476563C72.964005,72.710938,70.554337,73.827149,67.697891,73.827149C65.193009,73.827149,63.186176,72.831055,61.677387,70.838867L61.567524,70.838867L61.567524,82.243164L57.612446,82.243164L57.612446,49.964844L61.215962,49.964844L61.215962,52.975586L61.303852,52.975586ZM67.434219,70.575195C69.279923,70.575195,70.807266,69.810547,72.015274,68.279297C73.224259,66.749024,73.828262,64.466797,73.828262,61.43457C73.828262,58.578125,73.245743,56.380859,72.08168,54.842773C70.916641,53.304688,69.426407,52.536133,67.610001,52.536133C65.735001,52.536133,64.193009,53.392578,62.985005,55.106445C61.77602,56.820313,61.172016,59.040039,61.172016,61.764648C61.172016,64.650391,61.75063,66.839844,62.907856,68.333984C64.065079,69.828125,65.573868,70.575195,67.434219,70.575195ZM92.08754,49.4375C95.236954,49.4375,97.847794,50.462891,99.921036,52.513672C101.993301,54.564453,103.029923,57.479492,103.029923,61.258789C103.029923,65.84375,101.909317,69.084961,99.668106,70.982422C97.426895,72.878906,94.90004,73.827149,92.08754,73.827149C89.143204,73.827149,86.587051,72.853516,84.419083,70.905274C82.251114,68.957031,81.16713,65.866211,81.16713,61.632813C81.16713,57.53125,82.214493,54.473633,84.309219,52.458985C86.403946,50.445313,88.996719,49.4375,92.08754,49.4375ZM92.08754,70.575195C94.343399,70.575195,96.057266,69.740234,97.229141,68.070313C98.401016,66.400391,98.986954,64.203125,98.986954,61.478516C98.986954,58.563477,98.323868,56.366211,96.998184,54.886719C95.672501,53.407227,94.035782,52.667969,92.08754,52.667969C90.080704,52.667969,88.432755,53.418945,87.143692,54.919922C85.85463,56.421875,85.210098,58.65918,85.210098,61.632812C85.210098,64.591797,85.865372,66.822266,87.176895,68.323242C88.487442,69.825195,90.124649,70.575195,92.08754,70.575195ZM122.937149,61.126953C124.152969,61.595703,125.093887,62.325195,125.760391,63.313477C126.426895,64.302734,126.760391,65.448242,126.760391,66.751953C126.760391,68.744141,126.042618,70.330078,124.607071,71.509766C123.171524,72.688477,121.186661,73.27832,118.652481,73.27832L107.578262,73.27832L107.578262,49.964844L117.202286,49.964844C120.43959,49.964844,122.669571,50.594727,123.893204,51.854492C125.11586,53.114258,125.727676,54.542969,125.727676,56.139648C125.727676,58.292969,124.797501,59.955078,122.937149,61.126953ZM111.533341,59.743164L116.257462,59.743164C119.860977,59.743164,121.662735,58.65918,121.662735,56.491211C121.662735,55.246094,121.215958,54.396484,120.322403,53.942383C119.428848,53.488281,118.125137,53.260742,116.41127,53.260742L111.533341,53.260742L111.533341,59.743164ZM111.533341,69.982422L117.246231,69.982422C120.879044,69.982422,122.69545,68.832031,122.69545,66.532227C122.69545,65.785156,122.457169,65.104492,121.981094,64.489258C121.50502,63.874023,120.875137,63.474609,120.091446,63.291992C119.307755,63.108398,118.242325,63.016602,116.894669,63.016602L111.533341,63.016602L111.533341,69.982422ZM140.998673,49.4375C144.148087,49.4375,146.758926,50.462891,148.832169,52.513672C150.904434,54.564453,151.941055,57.479492,151.941055,61.258789C151.941055,65.84375,150.82045,69.084961,148.579239,70.982422C146.338028,72.878906,143.811172,73.827149,140.998672,73.827149C138.054337,73.827149,135.498184,72.853516,133.330215,70.905274C131.162247,68.957031,130.078262,65.866211,130.078262,61.632813C130.078262,57.53125,131.125626,54.473633,133.220352,52.458985C135.315079,50.445313,137.907852,49.4375,140.998673,49.4375ZM140.998673,70.575195C143.254532,70.575195,144.968399,69.740234,146.140274,68.070313C147.312149,66.400391,147.898087,64.203125,147.898087,61.478516C147.898087,58.563477,147.235001,56.366211,145.909317,54.886719C144.583634,53.407227,142.946915,52.667969,140.998673,52.667969C138.991837,52.667969,137.343887,53.418945,136.054825,54.919922C134.765762,56.421875,134.121231,58.65918,134.121231,61.632812C134.121231,64.591797,134.776505,66.822266,136.088028,68.323242C137.398575,69.825195,139.035782,70.575195,140.998673,70.575195ZM176.79213,62.621094L159.323868,62.621094C159.485001,65.199219,160.22084,67.169922,161.531876,68.532227C162.842911,69.894531,164.480118,70.575195,166.443008,70.575195C167.951797,70.575195,169.218887,70.176758,170.244278,69.37793C171.269668,68.580078,172.05336,67.375,172.595352,65.763672L176.660293,66.268555C176.001114,68.700195,174.792618,70.56836,173.034805,71.87207C171.276993,73.175781,169.079727,73.827149,166.443008,73.827149C162.942032,73.827149,160.206192,72.754883,158.235977,70.608399C156.265762,68.462891,155.280899,65.529297,155.280899,61.808594C155.280899,58.131836,156.236954,55.150391,158.148086,52.865234C160.060196,50.580078,162.751602,49.4375,166.223282,49.4375C167.922501,49.4375,169.559219,49.811523,171.134415,50.558594C172.708633,51.305664,174.045547,52.576172,175.14418,54.371094C176.242813,56.165039,176.79213,58.915039,176.79213,62.621094ZM172.727188,59.369141C172.566055,56.996094,171.829727,55.286133,170.51918,54.239258C169.207657,53.191406,167.776016,52.667969,166.223282,52.667969C164.36293,52.667969,162.832169,53.290039,161.630997,54.535156C160.429825,55.780273,159.734024,57.391602,159.543594,59.369141L172.727188,59.369141ZM213.244766,73.27832L209.267715,73.27832L209.267715,55.589844L198.30336,73.27832L194.018692,73.27832L194.018692,49.964844L197.97377,49.964844L197.97377,67.741211L208.960098,49.964844L213.244766,49.964844L213.244766,73.27832ZM243.985001,73.27832L240.248673,73.27832L240.248673,53.568359L233.129532,73.27832L229.570938,73.27832L222.912735,53.568359L222.912735,73.27832L219.177383,73.27832L219.177383,49.964844L225.131485,49.964844L231.45961,68.641602L238.029922,49.964844L243.985001,49.964844L243.985001,73.27832ZM268.329742,73.27832L264.374664,73.27832L264.374664,64.181641L261.343414,64.181641C260.053375,64.181641,259.07193,64.507813,258.398102,65.15918C257.724274,65.811524,257.226227,66.371094,256.903961,66.839844L252.575821,73.27832L247.67543,73.27832C250.605118,68.942383,252.260391,66.506836,252.642227,65.972656C253.02211,65.4375,253.480118,64.979492,254.015274,64.598633C254.549454,64.217774,255.146134,63.932617,255.80629,63.742188C253.637344,63.390625,251.985977,62.606445,250.851212,61.390625C249.715469,60.174805,249.148087,58.629883,249.148087,56.754883C249.148087,54.689453,249.876602,53.041016,251.33461,51.810547C252.791641,50.580078,254.853165,49.964844,257.519196,49.964844L268.329743,49.964844L268.329743,73.27832ZM264.374664,60.907227L264.374664,53.260742L258.025055,53.260742C254.817032,53.260742,253.21254,54.476563,253.21254,56.908203C253.21254,59.574219,255.191055,60.907227,259.146149,60.907227L264.374664,60.907227Z" transform="matrix(0.801633 0 0 0.801633 -1.303548 7.264045)" opacity="0" fill="rgb(2,185,185)" stroke="none" stroke-width="1"/><path id="egDpBKrA8Xt4" d="M27.179688,47.218365C27.179688,48.902935,26.652344,50.335064,25.597656,51.514263C24.542969,52.693462,23.151367,53.509869,21.422852,53.96397C23.444336,55.165142,24.455078,56.695904,24.455078,58.556255L24.455078,68.729591C24.455078,70.721779,24.12207,71.978127,23.455078,72.497658C22.789063,73.018166,21.408203,73.277931,19.313477,73.277931L7.667969,73.277931L7.667969,70.179787L10.854492,70.179787L10.854492,58.8419C10.854492,57.084087,11.828125,55.714459,13.776367,54.733013C13.776367,53.927349,13.330078,53.081646,12.436523,52.194927C11.542969,51.309185,10.3125,50.865826,8.745117,50.865826C7.485352,50.865826,6.378906,51.118755,5.426758,51.623638C4.474609,52.129498,3.896484,52.674908,3.691406,53.260845L5.317383,53.172955C6.37207,53.172955,7.280273,53.553814,8.041992,54.315533C8.803711,55.077251,9.18457,55.985455,9.18457,57.040142C9.18457,58.080181,8.803711,58.984966,8.041992,59.753521C7.280273,60.523052,6.37207,60.90733,5.317383,60.90733C3.808594,60.90733,2.544922,60.339947,1.526367,59.204693C0.508789,58.069439,0,56.651959,0,54.95274C0,52.989849,0.875,51.367779,2.625,50.085552C4.375977,48.804302,6.416016,48.163189,8.745117,48.163189C10.678711,48.163189,12.443359,48.609966,14.040039,49.503521C15.636719,50.397076,16.691406,51.598248,17.204102,53.107037C19.166992,52.638287,20.71582,51.87315,21.851563,50.811138C22.986328,49.749126,23.554688,48.522076,23.554688,47.130474L23.554688,46.647076L27.179688,46.647076L27.179688,47.218365ZM5.317383,58.380474C5.683594,58.380474,6.001953,58.24522,6.272461,57.974224C6.543945,57.703228,6.679688,57.391705,6.679688,57.040142C6.679688,56.673931,6.543945,56.355572,6.272461,56.084576C6.001953,55.81358,5.683594,55.677837,5.317383,55.677837C4.96582,55.677837,4.654297,55.81358,4.382813,56.084576C4.112305,56.355572,3.976563,56.673931,3.976563,57.040142C3.976563,57.391705,4.112305,57.703228,4.382813,57.974224C4.654297,58.24522,4.96582,58.380474,5.317383,58.380474ZM20.807617,68.861427L20.807617,58.885845C20.807617,57.186626,19.650391,55.816998,17.335938,54.776959C15.446289,55.773052,14.501953,57.128033,14.501953,58.8419L14.501953,70.179787L19.621094,70.179787C20.412109,70.179787,20.807617,69.740334,20.807617,68.861427ZM23.642578,45.746197L6.349609,45.746197L6.349609,45.284771C6.349609,43.365826,6.935547,41.739849,8.107422,40.406841C9.279297,39.073833,11.139649,38.40733,13.688477,38.40733C14.508789,38.40733,15.307617,38.49522,16.083984,38.671001L16.083984,37.286724L18.698242,37.286724L18.698242,39.703716C19.577148,40.216412,20.353516,40.831646,21.027344,41.54942L21.027344,37.286724L23.642578,37.286724L23.642578,45.746197ZM19.577148,43.351177C18.361328,41.63731,16.398438,40.780376,13.688476,40.780376C12.443359,40.780376,11.429687,41.018658,10.645508,41.494732C9.862305,41.970806,9.389648,42.589459,9.228515,43.351177L19.577148,43.351177ZM23.642578,34.650005L21.027344,34.650005L21.027344,26.871683L23.642578,26.871683L23.642578,34.650005ZM50.646484,68.729591C50.646484,70.721779,50.313477,71.978127,49.646484,72.497658C48.980469,73.018166,47.599609,73.277931,45.504883,73.277931L37.045898,73.277931C34.951172,73.277931,33.574219,73.018166,32.915039,72.497658C32.255859,71.978127,31.925781,70.721779,31.925781,68.729591L31.925781,64.269142C31.925781,62.379498,32.358398,60.881939,33.222656,59.775982C34.086914,58.670025,35.317383,58.116802,36.914062,58.116802C37.96875,58.116802,38.876953,58.497662,39.638672,59.25938C40.400391,60.021099,40.78125,60.929302,40.78125,61.98399C40.78125,63.038677,40.400391,63.94688,39.638672,64.708595C38.876953,65.470314,37.96875,65.851174,36.914062,65.851174C36.474609,65.851174,36.020508,65.777931,35.551758,65.631447L35.551758,68.861427C35.551758,69.740334,35.947266,70.179787,36.738281,70.179787L45.8125,70.179787C46.603516,70.179787,46.999023,69.740334,46.999023,68.861427L46.999023,57.259869C46.999023,55.487408,46.53418,54.092388,45.603516,53.073833C44.673828,52.056255,42.993164,51.546978,40.561523,51.546978C36.782227,51.546978,34.503906,52.982525,33.727539,55.853619L30.167969,55.37022C31.208008,50.565533,34.863281,48.163189,41.132813,48.163189C44.370117,48.163189,46.764648,48.85899,48.317383,50.250591C49.870117,51.642193,50.646484,53.87608,50.646484,56.952251L50.646484,68.729591ZM36.914063,63.324322C37.265625,63.324322,37.576172,63.189068,37.847656,62.917583C38.118164,62.647076,38.253906,62.335552,38.253906,61.98399C38.253906,61.617779,38.12207,61.302837,37.858399,61.039165C37.594727,60.775494,37.280274,60.643658,36.914063,60.643658C36.547852,60.643658,36.228516,60.7794,35.958008,61.050396C35.686524,61.321392,35.551758,61.632427,35.551758,61.98399C35.551758,62.335552,35.686524,62.647076,35.958008,62.917584C36.228516,63.189068,36.547852,63.324322,36.914063,63.324322ZM74.179688,69.63047C74.179688,70.685158,73.798828,71.593361,73.037109,72.35508C72.275391,73.116799,71.359375,73.497658,70.290039,73.497658C68.708008,73.497658,67.481445,72.96299,66.610352,71.893654C65.738281,70.824318,65.302734,69.308205,65.302734,67.345314L65.302734,50.096783C65.302734,47.884869,64.958008,46.434673,64.269531,45.746197C63.581055,45.05772,62.563477,44.713482,61.21582,44.713482C59.589844,44.713482,57.648438,45.072369,55.392578,45.790142C55.275391,44.955181,55.216797,44.230084,55.216797,43.614849C55.216797,41.183209,55.905274,39.308209,57.282227,37.989849C58.65918,36.67149,60.673828,36.01231,63.325196,36.01231L70.795899,36.297955C72.363281,36.297955,73.623047,36.173443,74.575196,35.924419L74.970703,38.978619C74.077149,39.256939,72.700196,39.396099,70.839844,39.396099L63.369141,39.132427C61.948242,39.132427,60.834961,39.403423,60.029297,39.945415C59.223633,40.487408,58.776367,41.205181,58.688477,42.098736C59.655274,41.761822,60.688477,41.593365,61.78711,41.593365C64.467774,41.593365,66.331055,42.175396,67.378906,43.340435C68.425781,44.504497,68.950196,46.756939,68.950196,50.096783L68.950196,65.983009C69.404297,65.836525,69.850586,65.763283,70.290039,65.763283C71.344727,65.763283,72.256836,66.144142,73.026367,66.905861C73.794922,67.66758,74.179688,68.575783,74.179688,69.63047ZM71.652344,69.63047C71.652344,69.278908,71.516602,68.967873,71.246094,68.696877C70.974609,68.42588,70.65625,68.290138,70.290039,68.290138C69.938477,68.290138,69.626953,68.42588,69.356445,68.696877C69.084961,68.967873,68.950195,69.278908,68.950195,69.63047C68.950195,69.996681,69.084961,70.315529,69.356445,70.586525C69.626953,70.857521,69.938477,70.992775,70.290039,70.992775C70.65625,70.992775,70.974609,70.857521,71.246094,70.586525C71.516602,70.315529,71.652344,69.996681,71.652344,69.63047ZM97.975586,73.277931L94.328125,73.277931L94.328125,68.641701C93.595703,66.385841,92.519531,64.496193,91.098633,62.972759C89.677734,61.449322,88.161133,60.687603,86.549805,60.687603C85.128906,60.687603,84.067383,61.075787,83.364258,61.852154C82.661133,62.628521,82.30957,63.785748,82.30957,65.32383L82.30957,65.983009C82.763672,65.836525,83.217773,65.763283,83.671875,65.763283C84.726563,65.763283,85.634766,66.144142,86.396484,66.905861C87.158203,67.66758,87.539063,68.575783,87.539063,69.63047C87.539063,70.685158,87.158203,71.593361,86.396484,72.35508C85.634766,73.116799,84.726563,73.497658,83.671875,73.497658C82.075195,73.497658,80.84082,72.96299,79.96875,71.893654C79.097656,70.824318,78.662109,69.308205,78.662109,67.345314L78.662109,65.257912C78.662109,62.943463,79.361328,61.083111,80.759766,59.676861C82.15918,58.270611,84.103516,57.567486,86.59375,57.567486C88.249023,57.567486,89.772461,58.058209,91.164063,59.039654C92.555664,60.021099,93.610352,61.332134,94.328125,62.972759L94.328125,57.215924C94.328125,55.458111,93.863281,54.073834,92.932617,53.063092C92.00293,52.052349,90.322266,51.546978,87.890625,51.546978C86.000977,51.546978,84.484375,51.905865,83.341797,52.623638C82.199219,53.341412,81.4375,54.418072,81.056641,55.853619L77.49707,55.370221C78.009766,52.967877,79.181641,51.166119,81.012695,49.964947C82.84375,48.763775,85.333985,48.163189,88.483399,48.163189C91.720703,48.163189,94.112305,48.85899,95.657227,50.250592C97.203125,51.642193,97.975586,53.87608,97.975586,56.952252L97.975586,73.277931ZM83.671875,70.992775C84.023438,70.992775,84.333984,70.857521,84.605469,70.586525C84.875977,70.315529,85.011719,69.996681,85.011719,69.63047C85.011719,69.278908,84.875977,68.967873,84.605469,68.696877C84.333984,68.42588,84.023438,68.290138,83.671875,68.290138C83.305664,68.290138,82.986328,68.42588,82.71582,68.696877C82.444336,68.967873,82.30957,69.278908,82.30957,69.63047C82.30957,69.996681,82.444336,70.315529,82.71582,70.586525C82.986328,70.857521,83.305664,70.992775,83.671875,70.992775ZM124.518555,73.277931L120.871094,73.277931L120.871094,56.578716C120.871094,55.260357,120.226563,54.092388,118.9375,53.073834C117.648438,52.056255,116.015625,51.546978,114.038086,51.546978C112.675781,51.546978,111.456055,51.781353,110.379883,52.250103C109.302734,52.718853,108.522461,53.326763,108.039063,54.073834C110.30957,54.498638,111.84082,55.619244,112.631836,57.43565C111.28418,57.743267,110.244141,58.318462,109.511719,59.160748C108.779297,60.003033,108.413086,61.002545,108.413086,62.159771L108.413086,73.277931L104.765625,73.277931L104.765625,62.291607C104.765625,59.786724,105.9375,58.168072,108.28125,57.43565C107.885742,56.835064,106.310547,56.534771,103.556641,56.534771C103.556641,54.191021,104.519531,52.210064,106.446289,50.591412C108.37207,48.972759,110.90332,48.163189,114.038086,48.163189C117.1875,48.163189,119.72168,48.94688,121.640625,50.514263C123.55957,52.081646,124.518555,54.029888,124.518555,56.35899L124.518555,73.277931Z" transform="matrix(0.801633 0 0 0.801633 0.584612 12.954983)" opacity="0" fill="rgb(2,185,185)" stroke="none" stroke-width="1"/><path id="egDpBKrA8Xt5" d="M32.929615,51.093853L25.569754,73.449806L21.981375,73.449806L16.507742,55.417584L10.987722,73.449806L7.399832,73.449806L0.085379,51.093853L3.765554,51.093853L9.285574,69.125588L14.759695,51.093853L18.209402,51.093853L23.729422,69.125588L29.203543,51.093853L32.929615,51.093853ZM38.978931,70.71299C36.847096,68.520607,35.781666,65.706642,35.781666,62.271587C35.781666,58.837505,36.847096,56.023541,38.978931,53.830669C41.109791,51.638775,43.846607,50.541607,47.189869,50.541607C50.501881,50.541607,53.223072,51.638775,55.354908,53.830669C57.485767,56.023541,58.551685,58.837505,58.551685,62.271587C58.551685,65.706642,57.485767,68.520607,55.354908,70.71299C53.223072,72.905861,50.501881,74.001564,47.189869,74.001564C43.846607,74.001564,41.109791,72.905861,38.978931,70.71299ZM39.553639,62.271587C39.553639,64.878517,40.258717,66.994728,41.669849,68.619728C43.080006,70.245705,44.919849,71.057716,47.189869,71.057716C49.42815,71.057716,51.26067,70.245705,52.686939,68.619728C54.11272,66.994728,54.825611,64.878517,54.825611,62.271587C54.825611,59.695904,54.11272,57.587505,52.686939,55.94688C51.26067,54.306744,49.42815,53.485943,47.189869,53.485943C44.950611,53.485943,43.11858,54.306744,41.692799,55.94688C40.266529,57.587505,39.553639,59.695904,39.553639,62.271587ZM64.209404,73.449806L64.209404,51.093853L67.15374,51.093853L67.613701,55.325787C68.165459,53.884869,69.062431,52.757916,70.304619,51.944927C71.546806,51.132427,72.964775,50.725689,74.559502,50.725689C75.387627,50.725689,76.322685,50.848736,77.365654,51.093853L76.951591,54.083599C75.939384,53.869732,75.049736,53.761822,74.283623,53.761822C72.381767,53.761822,70.833427,54.467388,69.637627,55.878033C68.441826,57.288677,67.843681,59.113384,67.843681,61.351665L67.843681,73.449806L64.209404,73.449806ZM85.461357,41.066021L85.461357,68.297951C85.461357,69.125588,85.706474,69.785744,86.197197,70.275978C86.687431,70.766701,87.347099,71.011818,88.175224,71.011818C88.72747,71.011818,89.46331,70.904884,90.383232,70.690041L90.843193,73.58799C89.616142,73.863869,88.46624,74.001564,87.393486,74.001564C85.675712,74.001564,84.318291,73.518654,83.322197,72.552833C82.325615,71.587013,81.82708,70.275978,81.82708,68.619728L81.82708,41.066021L85.461357,41.066021ZM113.980888,41.066021L113.980888,73.449806L111.037041,73.449806L110.57708,69.723732C108.92083,72.575783,106.359795,74.001564,102.894951,74.001564C99.951103,74.001564,97.527763,72.905861,95.626885,70.71299C93.725029,68.520607,92.774834,65.706642,92.774834,62.271587C92.774834,58.837505,93.725029,56.023541,95.626885,53.830669C97.527763,51.638775,99.951103,50.541607,102.894951,50.541607C106.206963,50.541607,108.675224,51.906841,110.300713,54.635845L110.300713,41.066021L113.980888,41.066021ZM96.546806,62.271587C96.546806,64.847756,97.221123,66.94883,98.570732,68.57383C99.919853,70.199806,101.652763,71.011818,103.768974,71.011818C105.701103,71.011818,107.280205,70.367775,108.506767,69.079689C109.73333,67.791603,110.347099,66.120705,110.347099,64.066017L110.347099,60.477642C110.347099,58.453716,109.73333,56.79063,108.506767,55.486919C107.280205,54.183697,105.701103,53.531841,103.768974,53.531841C101.652763,53.531841,99.919853,54.352642,98.570732,55.992779C97.221123,57.633892,96.546806,59.726666,96.546806,62.271587ZM132.242111,73.449806L132.242111,51.093853L135.186447,51.093853L135.646408,55.187603C136.412521,53.715923,137.501389,52.573834,138.912521,51.760845C140.322678,50.948834,141.917404,50.541607,143.696213,50.541607C146.180099,50.541607,148.21965,51.316509,149.814377,52.864849C151.408615,54.413677,152.206467,56.414654,152.206467,58.867779L152.206467,73.449806L148.526291,73.449806L148.526291,59.420025C148.526291,57.733502,147.974533,56.345806,146.870529,55.256939C145.766525,54.16856,144.355392,53.623638,142.638107,53.623638C140.675217,53.623638,139.057541,54.298931,137.78508,55.648052C136.512619,56.997662,135.876389,58.729595,135.876389,60.845806L135.876389,73.449806L132.242111,73.449806ZM157.450119,67.285744C157.450119,64.955666,158.354416,63.138775,160.163986,61.834576C161.973068,60.531841,164.47258,59.879986,167.662033,59.879986C169.379318,59.879986,171.050217,60.09483,172.676193,60.524029L172.676193,58.223736C172.676193,56.782818,172.170334,55.609478,171.158127,54.704693C170.146408,53.800396,168.827072,53.347759,167.202072,53.347759C164.840256,53.347759,162.371994,53.900005,159.79631,55.004009L158.784104,52.33604C161.912033,51.139751,164.856369,50.541607,167.616135,50.541607C170.161057,50.541607,172.223557,51.254986,173.803146,52.680767C175.382248,54.107037,176.172287,55.985455,176.172287,58.316021L176.172287,69.125587C176.172287,69.739845,176.348068,70.229591,176.701096,70.597755C177.053146,70.96592,177.55217,71.150002,178.196213,71.150002C178.44133,71.150002,178.840256,71.103615,179.392014,71.011818L179.668381,73.771584C178.840256,73.924904,178.042404,74.001564,177.276291,74.001564C176.080002,74.001564,175.106369,73.671974,174.355393,73.012795C173.603439,72.353615,173.151291,71.441505,172.997971,70.275978C171.096604,72.759865,168.505295,74.001564,165.224045,74.001564C163.016037,74.001564,161.168381,73.358009,159.681076,72.069923C158.193283,70.781838,157.450119,69.187599,157.450119,67.285744ZM161.03801,67.055763C161.03801,68.282814,161.521408,69.302834,162.487228,70.114845C163.453049,70.927834,164.656174,71.333595,166.098068,71.333595C168.030197,71.333595,169.609299,70.705666,170.836349,69.447853C172.062424,68.190529,172.676193,66.580666,172.676193,64.617775L172.676193,62.732037C171.112228,62.363872,169.578537,62.17979,168.076096,62.17979C165.868088,62.17979,164.14299,62.609478,162.901291,63.467876C161.659103,64.326759,161.03801,65.52256,161.03801,67.055763ZM183.761154,73.449806L183.761154,51.093853L186.70549,51.093853L187.165451,55.004009C188.790451,52.0294,191.351486,50.541607,194.84758,50.541607C196.595139,50.541607,198.128342,50.978619,199.447189,51.852642C200.765549,52.726666,201.68547,53.91563,202.207443,55.417584C204.07756,52.167584,206.807541,50.541607,210.395432,50.541607C212.787521,50.541607,214.7426,51.285748,216.260178,52.773052C217.778244,54.260845,218.537521,56.169537,218.537521,58.499615L218.537521,73.449806L214.857346,73.449806L214.857346,59.051861C214.857346,57.457623,214.343674,56.153912,213.31633,55.141705C212.288498,54.129986,210.977463,53.623638,209.383224,53.623638C207.512619,53.623638,205.979416,54.267681,204.783127,55.555767C203.587326,56.843853,202.989182,58.484478,202.989182,60.477642L202.989182,73.449806L199.309494,73.449806L199.309494,59.051861C199.309494,57.457623,198.795334,56.153912,197.768478,55.141705C196.740646,54.129986,195.414474,53.623638,193.789474,53.623638C191.918381,53.623638,190.385178,54.267681,189.189377,55.555767C187.993576,56.843853,187.395432,58.484478,187.395432,60.477642L187.395432,73.449806L183.761154,73.449806ZM227.047287,70.71299C224.869553,68.520607,223.781662,65.706642,223.781662,62.271587C223.781662,58.837505,224.800217,56.023541,226.840256,53.830669C228.879318,51.638775,231.493576,50.541607,234.683029,50.541607C237.657639,50.541607,240.088303,51.592388,241.974045,53.692974C243.859787,55.79356,244.803146,58.515728,244.803146,61.858013C244.803146,62.440533,244.787521,62.885845,244.757248,63.191998L227.46135,63.191998C227.61467,65.583595,228.457443,67.515724,229.991623,68.987892C231.524826,70.459572,233.456467,71.1959,235.787521,71.1959C237.964279,71.1959,240.218186,70.567482,242.54924,69.30967L243.699631,71.839943C240.816818,73.281837,238.056076,74.001564,235.419357,74.001564C232.01506,74.001564,229.224045,72.905861,227.047287,70.71299ZM234.683029,53.347759C232.689865,53.347759,231.033615,54.030865,229.715256,55.394634C228.39592,56.759869,227.644943,58.576763,227.46135,60.845806L241.261154,60.845806C241.199631,58.637798,240.5551,56.836529,239.329514,55.441021C238.101975,54.045513,236.553146,53.347759,234.683029,53.347759Z" transform="matrix(0.801633 0 0 0.801633 -0.068442 7.599411)" fill="rgb(2,185,185)" stroke="none" stroke-width="1"/><path id="egDpBKrA8Xt6" d="M12.714496,58.785156C11.64809,58.785156,10.800433,58.867187,9.843402,59.140625C9.569964,55.859375,9.460589,51.183594,9.460589,47.410156L11.484027,46.097656C9.679339,43.308594,9.132464,41.941406,9.132464,41.09375C9.132464,40.765625,9.105121,40.4375,9.187152,39.945313L8.913714,39.78125C8.312152,40.246094,7.765276,40.738281,7.382464,41.203125C6.726214,41.941406,6.644183,42.542969,6.644183,43.445313C6.644183,44.730469,7.13637,46.78125,7.13637,47.875C7.13637,49.296875,7.245745,53.835938,7.601214,59.632813C5.030901,60.507813,3.089495,62.3125,1.831683,64.882813C1.175433,66.304688,0.847308,67.726563,0.874652,69.09375C0.874652,73.25,6.069964,83.996094,6.069964,87.332031L6.534808,87.332031C6.91762,86.128906,7.163714,84.460937,7.163714,83.941406C7.163714,79.8125,3.007464,71.691406,3.007464,66.824219C3.007464,65.457031,5.222308,63.679688,7.710589,62.777344C8.093402,65.402344,9.487933,69.832031,13.83559,69.832031C16.241839,69.832031,18.620745,67.425781,18.620745,64.171875C18.620745,60.808594,16.10512,58.785156,12.714496,58.785156ZM14.792621,66.578125C12.605121,66.578125,10.499652,64.746094,10.11684,62.175781C10.77309,61.984375,11.42934,61.984375,11.976215,61.984375C13.972308,61.984375,16.898089,63.160156,16.788714,65.867188C16.32387,66.277344,15.585589,66.578125,14.792621,66.578125ZM57.448872,41.503906L57.257465,41.367187C56.655903,41.886719,56.136372,42.40625,55.753559,42.871094C55.206684,43.472656,54.933247,44.101562,54.933247,44.703125C54.933247,45.714844,55.097309,46.863281,55.206684,48.121094C55.644184,53.152344,55.944965,57.9375,55.999653,62.3125C55.999653,63.734375,55.507465,64.71875,54.550434,65.265625C53.374653,65.894531,52.362934,66.003906,51.487934,66.003906L50.886372,66.003906L49.792622,66.003906C47.468403,66.003906,45.390278,65.484375,43.558247,64.5L43.558247,64.390625L48.316059,59.988281L49.27309,57.007812C47.249653,56.160156,44.515278,55.640625,41.343403,55.640625C38.663715,55.640625,36.14809,56.078125,34.015278,56.542969L33.167622,56.652344L32.101215,59.796875L32.183247,59.851562L33.030903,59.851562C33.495747,59.851562,34.234028,60.371093,34.917622,61C36.202778,62.175781,37.487934,63.679687,38.745747,64.527344L38.745747,64.636719C35.847309,65.921875,33.933247,66.003906,31.581682,66.003906L30.433245,66.003906L30.050432,66.003906C29.694963,66.003906,28.984026,65.949219,28.300432,65.703125C27.234026,65.320312,26.249651,64.527344,26.249651,62.777344L26.249651,61.21875C26.249651,54.492188,26.249651,47.410156,25.812151,41.421875L25.620745,41.3125C24.827776,41.941406,23.98012,42.84375,23.050432,43.855469C23.460588,49.652344,23.76137,55.09375,23.76137,60.289063C23.76137,64.308594,23.788714,66.25,25.456682,67.945313C26.577776,69.066406,27.972307,69.503906,30.132463,69.503906L30.433245,69.503906L31.280901,69.503906C34.562153,69.503906,37.487934,68.738281,40.851215,66.304688L40.96059,66.304688C43.612934,68.355469,47.003559,69.503906,50.066059,69.503906L50.886371,69.503906L51.296528,69.503906C52.362934,69.503906,53.64809,69.230469,54.714496,68.683594C55.972309,68.054688,56.628559,66.90625,57.202778,65.511719C57.995746,63.871094,58.296528,61.601563,58.296528,58.648438C58.296528,55.613281,58.050434,52.304688,57.941059,49.160156C58.597309,48.695313,59.171528,48.230469,59.663715,47.765625C58.24184,45.414063,57.394184,43.28125,57.448872,41.503906ZM41.39809,63.324219C40.112934,62.421875,38.909809,61.464844,38.007465,60.617188C37.433247,60.070313,36.886372,59.496094,36.394184,59.058594L36.394184,58.949219C38.007465,58.648438,39.675434,58.457031,41.452778,58.457031C43.36684,58.457031,45.034809,58.785156,46.538715,59.140625L46.538715,59.25C44.788715,60.917969,43.120747,62.175781,41.507465,63.324219L41.39809,63.324219ZM66.636368,41.996094C67.210587,47.957031,67.347305,54.875,67.347305,61.246094C67.347305,62.914063,67.292618,64.554688,67.155899,65.757813C67.073868,67.261719,66.335587,68.410156,64.749649,70.160156L64.39418,69.96875C64.667618,68.246094,64.694962,66.304688,64.694962,64.5L64.694962,61.820313C64.694962,56.816406,64.148087,49.542969,63.71059,44.8125C64.476212,43.828125,65.542618,42.679688,66.390274,41.914063L66.636368,41.996094ZM126.054337,57.71875C125.179337,58.457031,124.359024,59.277344,123.593399,60.179688C123.948868,61.792969,124.276993,63.542969,124.276993,64.609375C124.276993,65.429688,123.593399,65.839844,122.827774,65.839844C121.515274,65.839844,119.984024,64.773438,119.984024,62.695313C119.984024,61.929688,120.120743,60.890625,120.339493,60.015625L120.17543,59.90625L118.534805,60.863281C117.687149,63.707031,117.55043,64.5,116.593399,65.210938C115.855118,65.730469,114.952774,66.003906,114.159805,66.003906C113.312149,66.003906,112.73793,65.484375,112.73793,64.636719C112.73793,63.816406,113.503555,62.449219,114.597305,60.699219L114.48793,60.5625L112.382462,61.300781L110.878555,63.460937C109.566055,65.347656,107.597305,65.976562,105.109024,66.003906L104.179337,66.003906L103.741837,66.003906C102.210587,66.003906,100.542618,65.320312,99.749649,64.28125C98.601212,62.832031,97.780899,61.492188,96.413712,59.988281C94.991837,58.402344,93.624649,57.035156,92.120743,55.886719L91.874649,55.886719C90.452774,57.445313,88.484024,59.140625,86.460587,60.945313C85.230118,62.011719,84.163712,63.707031,83.698868,65.648438C83.398087,66.824219,83.20668,67.863281,83.20668,68.984375C83.20668,70.980469,84.245743,74.234375,85.530899,77.761719C86.734024,81.042969,87.937149,84.515625,88.566055,87.414063L88.89418,87.414063C89.167618,86.265625,89.468399,84.679688,89.468399,83.394531C89.468399,82,88.046524,77.488281,86.569962,72.894531C85.640274,69.96875,85.230118,68.109375,85.230118,66.933594C85.230118,65.839844,86.241837,64.363281,88.429337,62.667969C88.511368,67.371094,91.601212,71.144531,95.374649,71.144531C97.151993,71.144531,98.655899,69.09375,98.874649,67.015625L99.038712,66.960938C100.241837,68.65625,101.499649,69.503906,103.632462,69.503906L104.179337,69.503906L104.64418,69.503906C106.503555,69.503906,108.80043,69.121094,110.468399,67.179688L110.577774,67.179688C110.741837,68.792969,111.698868,69.503906,113.202774,69.503906C115.226212,69.503906,116.757462,68.492188,117.98793,67.152344L118.20668,67.152344C119.191055,68.546875,120.448868,69.421875,121.624649,69.421875C123.210587,69.421875,124.632462,68.136719,125.671524,66.414063C126.163712,65.457031,126.655899,63.898438,126.655899,62.667969C126.655899,61.519531,126.546524,59.851563,126.218399,57.800781L126.054337,57.71875ZM95.620743,67.453125C94.116837,67.453125,93.05043,66.824219,92.257462,66.113281C91.026993,65.019531,90.179337,63.515625,90.179337,61.683594C90.179337,60.890625,91.355118,60.097656,91.792618,59.660156C94.171524,61.492187,95.401993,62.941406,96.441055,64.308594C97.151993,65.238281,97.398087,65.949219,97.398087,66.441406C97.398087,67.015625,96.577774,67.453125,95.620743,67.453125ZM134.886368,61.246094C134.886368,62.914063,134.83168,64.554688,134.694962,65.757813C134.61293,67.261719,133.874649,68.410156,132.288712,70.160156L131.933243,69.96875C132.20668,68.246094,132.234024,66.304688,132.234024,64.5L132.234024,61.820313C132.234024,56.816406,131.687149,49.542969,131.249649,44.8125C132.015274,43.828125,133.08168,42.679688,133.929336,41.914063L134.17543,41.996094C134.749649,47.957031,134.886368,54.875,134.886368,61.246094Z" transform="matrix(0.801633 0 0 0.801633 2.699522 7.615676)" opacity="0" fill="rgb(2,185,185)" stroke="none" stroke-width="1"/><path id="egDpBKrA8Xt7" d="M1.584612,31.680664L1.584612,9.630859L6.174944,9.630859L6.894671,12.645508C8.694964,10.276367,11.109515,9.09082,14.139789,9.09082C15.729633,9.09082,17.147112,9.450195,18.392229,10.170898C19.636858,10.890625,20.574846,11.880859,21.204729,13.140625C23.304339,10.44043,25.959124,9.09082,29.169573,9.09082C31.569475,9.09082,33.541645,9.84082,35.087544,11.34082C36.631977,12.84082,37.404926,14.776367,37.404926,17.145508L37.404926,31.680664L31.644671,31.680664L31.644671,18.045898C31.644671,16.81543,31.246721,15.802734,30.452288,15.007812C29.656878,14.213867,28.630022,13.81543,27.369768,13.81543C25.899554,13.81543,24.699358,14.318359,23.769671,15.323242C22.839495,16.328125,22.374651,17.611328,22.374651,19.170898L22.374651,31.680664L16.614886,31.680664L16.614886,18.045898C16.614886,16.81543,16.216936,15.802734,15.422504,15.007812C14.627093,14.213867,13.614398,13.81543,12.384906,13.81543C10.914691,13.81543,9.707172,14.310547,8.762347,15.300781C7.817523,16.290039,7.344866,17.581055,7.344866,19.170898L7.344866,31.680664L1.584612,31.680664ZM44.964497,28.980469C42.743793,26.820313,41.634418,24.045899,41.634418,20.655274C41.634418,17.265625,42.743793,14.490234,44.964497,12.330078C47.184223,10.170899,50.033832,9.09082,53.514301,9.09082C57.024067,9.09082,59.888813,10.170898,62.109516,12.330078C64.329239,14.490234,65.439102,17.265625,65.439102,20.655274C65.439102,24.045899,64.329239,26.820313,62.109516,28.980469C59.888813,31.140625,57.024067,32.220703,53.514301,32.220703C50.033833,32.220703,47.184223,31.140625,44.964497,28.980469ZM49.172016,15.570313C48.047016,16.890625,47.484516,18.584961,47.484516,20.655273C47.484516,22.725586,48.047016,24.420898,49.172016,25.740234C50.297016,27.060547,51.743793,27.720703,53.514301,27.720703C55.283833,27.720703,56.738911,27.060547,57.879536,25.740234C59.019184,24.420898,59.589497,22.725586,59.589497,20.655273C59.589497,18.555664,59.019184,16.852539,57.879536,15.547851C56.738911,14.243164,55.283833,13.59082,53.514301,13.59082C51.743794,13.59082,50.297016,14.250977,49.172016,15.570313ZM69.984024,31.680664L69.984024,9.630859L74.574356,9.630859L75.294083,12.825195C77.033829,10.335938,79.568985,9.09082,82.899063,9.09082C85.419083,9.09082,87.481583,9.87793,89.086563,11.453125C90.691055,13.02832,91.494278,15.045898,91.494278,17.505859L91.494278,31.680664L85.734024,31.680664L85.734024,18.405273C85.734024,17.055664,85.298965,15.953125,84.429337,15.097656C83.558731,14.243164,82.464005,13.81543,81.14418,13.81543C79.584122,13.81543,78.293594,14.348633,77.274063,15.413086C76.254044,16.478516,75.744278,17.850586,75.744278,19.530273L75.744278,31.680664L69.984024,31.680664ZM118.179337,0L118.179337,31.680664L113.589005,31.680664L112.869278,28.845703C111.188614,31.095703,108.834122,32.220703,105.804337,32.220703C102.863907,32.220703,100.449356,31.140625,98.559219,28.980469C96.669083,26.820313,95.724258,24.045899,95.724258,20.655274C95.724258,17.265625,96.669083,14.490234,98.559219,12.330078C100.449356,10.170899,102.863907,9.09082,105.804337,9.09082C108.564102,9.09082,110.768692,10.095703,112.419083,12.105469L112.419083,0L118.179337,0ZM101.574356,20.655273C101.574356,22.696289,102.106583,24.375977,103.171524,25.695313C104.235977,27.015625,105.608536,27.675781,107.2892,27.675781C108.818985,27.675781,110.079239,27.158203,111.068985,26.123047C112.05922,25.087891,112.554337,23.760742,112.554337,22.140625L112.554337,19.170898C112.554337,17.550781,112.066056,16.222656,111.091446,15.1875C110.116348,14.15332,108.84877,13.635742,107.2892,13.635742C105.608536,13.635742,104.235977,14.288086,103.171524,15.592773C102.106583,16.897461,101.574356,18.584961,101.574356,20.655273ZM126.099258,28.980469C123.878555,26.820313,122.76918,24.045899,122.76918,20.655274C122.76918,17.265625,123.878555,14.490234,126.099258,12.330078C128.318985,10.170899,131.168594,9.09082,134.649063,9.09082C138.158829,9.09082,141.023575,10.170898,143.244278,12.330078C145.464005,14.490234,146.573868,17.265625,146.573868,20.655274C146.573868,24.045899,145.464004,26.820313,143.244278,28.980469C141.023575,31.140625,138.158829,32.220703,134.649063,32.220703C131.168594,32.220703,128.318985,31.140625,126.099258,28.980469ZM130.306778,15.570313C129.181778,16.890625,128.619278,18.584961,128.619278,20.655273C128.619278,22.725586,129.181778,24.420898,130.306778,25.740234C131.431778,27.060547,132.878555,27.720703,134.649063,27.720703C136.418594,27.720703,137.873673,27.060547,139.014298,25.740234C140.153946,24.420898,140.724259,22.725586,140.724259,20.655273C140.724259,18.555664,140.153946,16.852539,139.014298,15.547851C137.873673,14.243164,136.418594,13.59082,134.649063,13.59082C132.878555,13.59082,131.431778,14.250977,130.306778,15.570313ZM151.11879,31.680664L151.11879,9.630859L155.709122,9.630859L156.428848,12.825195C158.168594,10.335938,160.703751,9.09082,164.033829,9.09082C166.553848,9.09082,168.616348,9.87793,170.221329,11.453125C171.825821,13.02832,172.629044,15.045898,172.629044,17.505859L172.629044,31.680664L166.86879,31.680664L166.86879,18.405273C166.86879,17.055664,166.433731,15.953125,165.564102,15.097656C164.693497,14.243164,163.59877,13.81543,162.278946,13.81543C160.718887,13.81543,159.42836,14.348633,158.408829,15.413086C157.388809,16.478516,156.879044,17.850586,156.879044,19.530273L156.879044,31.680664L151.11879,31.680664ZM180.189102,28.980469C177.968399,26.820313,176.859024,24.045899,176.859024,20.655274C176.859024,17.265625,177.968399,14.490234,180.189102,12.330078C182.408829,10.170899,185.258438,9.09082,188.738907,9.09082C192.248673,9.09082,195.113419,10.170898,197.334122,12.330078C199.553848,14.490234,200.663712,17.265625,200.663712,20.655274C200.663712,24.045899,199.553848,26.820313,197.334122,28.980469C195.113419,31.140625,192.248673,32.220703,188.738907,32.220703C185.258438,32.220703,182.408829,31.140625,180.189102,28.980469ZM184.396622,15.570313C183.271622,16.890625,182.709122,18.584961,182.709122,20.655273C182.709122,22.725586,183.271622,24.420898,184.396622,25.740234C185.521622,27.060547,186.968399,27.720703,188.738907,27.720703C190.508438,27.720703,191.963516,27.060547,193.104141,25.740234C194.24379,24.420898,194.814102,22.725586,194.814102,20.655273C194.814102,18.555664,194.24379,16.852539,193.104141,15.547851C191.963516,14.243164,190.508438,13.59082,188.738907,13.59082C186.968399,13.59082,185.521622,14.250977,184.396622,15.570313ZM205.208633,31.680664L205.208633,9.630859L209.798965,9.630859L210.518692,12.645508C212.318985,10.276367,214.733536,9.09082,217.763809,9.09082C219.353165,9.09082,220.771133,9.450195,222.016251,10.170898C223.260391,10.890625,224.198868,11.880859,224.828751,13.140625C226.92836,10.44043,229.583633,9.09082,232.793594,9.09082C235.193985,9.09082,237.165665,9.84082,238.711563,11.34082C240.256485,12.84082,241.028946,14.776367,241.028946,17.145508L241.028946,31.680664L235.26918,31.680664L235.26918,18.045898C235.26918,16.81543,234.870743,15.802734,234.076798,15.007812C233.280899,14.213867,232.253555,13.81543,230.99379,13.81543C229.524063,13.81543,228.322891,14.318359,227.39418,15.323242C226.463516,16.328125,225.998673,17.611328,225.998673,19.170898L225.998673,31.680664L220.238907,31.680664L220.238907,18.045898C220.238907,16.81543,219.84047,15.802734,219.046524,15.007812C218.251114,14.213867,217.238419,13.81543,216.008927,13.81543C214.538712,13.81543,213.331192,14.310547,212.386368,15.300781C211.441544,16.290039,210.968887,17.581055,210.968887,19.170898L210.968887,31.680664L205.208633,31.680664ZM248.588516,28.980469C246.367813,26.820313,245.258438,24.045899,245.258438,20.655274C245.258438,17.265625,246.367813,14.490234,248.588516,12.330078C250.808243,10.170899,253.657852,9.09082,257.138336,9.09082C260.648102,9.09082,263.513336,10.170898,265.733063,12.330078C267.952789,14.490234,269.063141,17.265625,269.063141,20.655274C269.063141,24.045899,267.952789,26.820313,265.733063,28.980469C263.513336,31.140625,260.648102,32.220703,257.138336,32.220703C253.657852,32.220703,250.808243,31.140625,248.588516,28.980469ZM252.795548,15.570313C251.670548,16.890625,251.108048,18.584961,251.108048,20.655273C251.108048,22.725586,251.670548,24.420898,252.795548,25.740234C253.920548,27.060547,255.367813,27.720703,257.138336,27.720703C258.907867,27.720703,260.362946,27.060547,261.503571,25.740234C262.643219,24.420898,263.213532,22.725586,263.213532,20.655273C263.213532,18.555664,262.643219,16.852539,261.503571,15.547851C260.362946,14.243164,258.907868,13.59082,257.138336,13.59082C255.367813,13.59082,253.920548,14.250977,252.795548,15.570313Z" fill="rgb(2,185,185)" stroke="none" stroke-width="1"/><script><![CDATA[!function(t,n){"object"==typeof exports&&"undefined"!=typeof module?module.exports=n():"function"==typeof define&&define.amd?define(n):((t="undefined"!=typeof globalThis?globalThis:t||self).__SVGATOR_PLAYER__=t.__SVGATOR_PLAYER__||{},t.__SVGATOR_PLAYER__["91c80d77"]=n())}(this,(function(){"use strict";function t(t,n){var e=Object.keys(t);if(Object.getOwnPropertySymbols){var r=Object.getOwnPropertySymbols(t);n&&(r=r.filter((function(n){return Object.getOwnPropertyDescriptor(t,n).enumerable}))),e.push.apply(e,r)}return e}function n(t){return(n="function"==typeof Symbol&&"symbol"==typeof Symbol.iterator?function(t){return typeof t}:function(t){return t&&"function"==typeof Symbol&&t.constructor===Symbol&&t!==Symbol.prototype?"symbol":typeof t})(t)}function e(t,n){if(!(t instanceof n))throw new TypeError("Cannot call a class as a function")}function r(t,n){for(var e=0;e<n.length;e++){var r=n[e];r.enumerable=r.enumerable||!1,r.configurable=!0,"value"in r&&(r.writable=!0),Object.defineProperty(t,r.key,r)}}function i(t,n,e){return n&&r(t.prototype,n),e&&r(t,e),t}function u(t,n,e){return n in t?Object.defineProperty(t,n,{value:e,enumerable:!0,configurable:!0,writable:!0}):t[n]=e,t}function o(t){return(o=Object.setPrototypeOf?Object.getPrototypeOf:function(t){return t.__proto__||Object.getPrototypeOf(t)})(t)}function a(t,n){return(a=Object.setPrototypeOf||function(t,n){return t.__proto__=n,t})(t,n)}function l(t,n){if(n&&("object"==typeof n||"function"==typeof n))return n;if(void 0!==n)throw new TypeError("Derived constructors may only return object or undefined");return function(t){if(void 0===t)throw new ReferenceError("this hasn't been initialised - super() hasn't been called");return t}(t)}function s(t){var n=function(){if("undefined"==typeof Reflect||!Reflect.construct)return!1;if(Reflect.construct.sham)return!1;if("function"==typeof Proxy)return!0;try{return Boolean.prototype.valueOf.call(Reflect.construct(Boolean,[],(function(){}))),!0}catch(t){return!1}}();return function(){var e,r=o(t);if(n){var i=o(this).constructor;e=Reflect.construct(r,arguments,i)}else e=r.apply(this,arguments);return l(this,e)}}function f(t,n,e){return(f="undefined"!=typeof Reflect&&Reflect.get?Reflect.get:function(t,n,e){var r=function(t,n){for(;!Object.prototype.hasOwnProperty.call(t,n)&&null!==(t=o(t)););return t}(t,n);if(r){var i=Object.getOwnPropertyDescriptor(r,n);return i.get?i.get.call(e):i.value}})(t,n,e||t)}var c=h(Math.pow(10,-6));function h(t){var n=arguments.length>1&&void 0!==arguments[1]?arguments[1]:6;if(Number.isInteger(t))return t;var e=Math.pow(10,n);return Math.round((+t+Number.EPSILON)*e)/e}function v(t,n){var e=arguments.length>2&&void 0!==arguments[2]?arguments[2]:c;return Math.abs(t-n)<e}var d=Math.PI/180;function y(t){return t}function g(t,n,e){var r=1-e;return 3*e*r*(t*r+n*e)+e*e*e}function p(){var t=arguments.length>0&&void 0!==arguments[0]?arguments[0]:0,n=arguments.length>1&&void 0!==arguments[1]?arguments[1]:0,e=arguments.length>2&&void 0!==arguments[2]?arguments[2]:1,r=arguments.length>3&&void 0!==arguments[3]?arguments[3]:1;return t<0||t>1||e<0||e>1?null:v(t,n)&&v(e,r)?y:function(i){if(i<=0)return t>0?i*n/t:0===n&&e>0?i*r/e:0;if(i>=1)return e<1?1+(i-1)*(r-1)/(e-1):1===e&&t<1?1+(i-1)*(n-1)/(t-1):1;for(var u,o=0,a=1;o<a;){var l=g(t,e,u=(o+a)/2);if(v(i,l))break;l<i?o=u:a=u}return g(n,r,u)}}function b(){return 1}function m(t){return 1===t?1:0}function w(){var t=arguments.length>0&&void 0!==arguments[0]?arguments[0]:1,n=arguments.length>1&&void 0!==arguments[1]?arguments[1]:0;if(1===t){if(0===n)return m;if(1===n)return b}var e=1/t;return function(t){return t>=1?1:(t+=n*e)-t%e}}function x(t,n,e){return t>=.5?e:n}function A(t,n,e){return 0===t||n===e?n:t*(e-n)+n}function k(t,n,e){var r=A(t,n,e);return r<=0?0:r}function _(t,n,e){return 0===t?n:1===t?e:{x:A(t,n.x,e.x),y:A(t,n.y,e.y)}}function S(t,n,e){return 0===t?n:1===t?e:{x:k(t,n.x,e.x),y:k(t,n.y,e.y)}}function O(t,n,e){var r=function(t,n,e){return Math.round(A(t,n,e))}(t,n,e);return r<=0?0:r>=255?255:r}function M(t,n,e){return 0===t?n:1===t?e:{r:O(t,n.r,e.r),g:O(t,n.g,e.g),b:O(t,n.b,e.b),a:A(t,null==n.a?1:n.a,null==e.a?1:e.a)}}function E(t,n,e){if(0===t)return n;if(1===t)return e;var r=n.length;if(r!==e.length)return x(t,n,e);for(var i=[],u=0;u<r;u++)i.push(M(t,n[u],e[u]));return i}function P(t,n,e){var r=n.length;if(r!==e.length)return x(t,n,e);for(var i=new Array(r),u=0;u<r;u++)i[u]=A(t,n[u],e[u]);return i}function j(t,n){for(var e=[],r=0;r<t;r++)e.push(n);return e}function B(t,n){if(--n<=0)return t;var e=(t=Object.assign([],t)).length;do{for(var r=0;r<e;r++)t.push(t[r])}while(--n>0);return t}var I,R=function(){function t(n){e(this,t),this.list=n,this.length=n.length}return i(t,[{key:"setAttribute",value:function(t,n){for(var e=this.list,r=0;r<this.length;r++)e[r].setAttribute(t,n)}},{key:"removeAttribute",value:function(t){for(var n=this.list,e=0;e<this.length;e++)n[e].removeAttribute(t)}},{key:"style",value:function(t,n){for(var e=this.list,r=0;r<this.length;r++)e[r].style[t]=n}}]),t}(),T=/-./g,N=function(t,n){return n.toUpperCase()};function C(t){return"function"==typeof t?t:x}function F(t){return t?"function"==typeof t?t:Array.isArray(t)?function(t){var n=arguments.length>1&&void 0!==arguments[1]?arguments[1]:y;if(!Array.isArray(t))return n;switch(t.length){case 1:return w(t[0])||n;case 2:return w(t[0],t[1])||n;case 4:return p(t[0],t[1],t[2],t[3])||n}return n}(t,null):function(t,n){var e=arguments.length>2&&void 0!==arguments[2]?arguments[2]:y;switch(t){case"linear":return y;case"steps":return w(n.steps||1,n.jump||0)||e;case"bezier":case"cubic-bezier":return p(n.x1||0,n.y1||0,n.x2||0,n.y2||0)||e}return e}(t.type,t.value,null):null}function L(t,n,e){var r=arguments.length>3&&void 0!==arguments[3]&&arguments[3],i=n.length-1;if(t<=n[0].t)return r?[0,0,n[0].v]:n[0].v;if(t>=n[i].t)return r?[i,1,n[i].v]:n[i].v;var u,o=n[0],a=null;for(u=1;u<=i;u++){if(!(t>n[u].t)){a=n[u];break}o=n[u]}return null==a?r?[i,1,n[i].v]:n[i].v:o.t===a.t?r?[u,1,a.v]:a.v:(t=(t-o.t)/(a.t-o.t),o.e&&(t=o.e(t)),r?[u,t,e(t,o.v,a.v)]:e(t,o.v,a.v))}function V(t,n){var e=arguments.length>2&&void 0!==arguments[2]?arguments[2]:null;return t&&t.length?"function"!=typeof n?null:("function"!=typeof e&&(e=null),function(r){var i=L(r,t,n);return null!=i&&e&&(i=e(i)),i}):null}function q(t,n){return t.t-n.t}function D(t,e,r,i,u){var o,a="@"===r[0],l="#"===r[0],s=I[r],f=x;switch(a?(o=r.substr(1),r=o.replace(T,N)):l&&(r=r.substr(1)),n(s)){case"function":if(f=s(i,u,L,F,r,a,e,t),l)return f;break;case"string":f=V(i,C(s));break;case"object":if((f=V(i,C(s.i),s.f))&&"function"==typeof s.u)return s.u(e,f,r,a,t)}return f?function(t,n,e){if(arguments.length>3&&void 0!==arguments[3]&&arguments[3])return t instanceof R?function(r){return t.style(n,e(r))}:function(r){return t.style[n]=e(r)};if(Array.isArray(n)){var r=n.length;return function(i){var u=e(i);if(null==u)for(var o=0;o<r;o++)t[o].removeAttribute(n);else for(var a=0;a<r;a++)t[a].setAttribute(n,u)}}return function(r){var i=e(r);null==i?t.removeAttribute(n):t.setAttribute(n,i)}}(e,r,f,a):null}function z(t,e,r,i){if(!i||"object"!==n(i))return null;var u=null,o=null;return Array.isArray(i)?o=function(t){if(!t||!t.length)return null;for(var n=0;n<t.length;n++)t[n].e&&(t[n].e=F(t[n].e));return t.sort(q)}(i):(o=i.keys,u=i.data||null),o?D(t,e,r,o,u):null}function Y(t,n,e){if(!e)return null;var r=[];for(var i in e)if(e.hasOwnProperty(i)){var u=z(t,n,i,e[i]);u&&r.push(u)}return r.length?r:null}function G(t,n){if(!n.duration||n.duration<0)return null;var e=function(t,n){if(!n)return null;var e=[];if(Array.isArray(n))for(var r=n.length,i=0;i<r;i++){var u=n[i];if(2===u.length){var o=null;if("string"==typeof u[0])o=t.getElementById(u[0]);else if(Array.isArray(u[0])){o=[];for(var a=0;a<u[0].length;a++)if("string"==typeof u[0][a]){var l=t.getElementById(u[0][a]);l&&o.push(l)}o=o.length?1===o.length?o[0]:new R(o):null}if(o){var s=Y(t,o,u[1]);s&&(e=e.concat(s))}}}else for(var f in n)if(n.hasOwnProperty(f)){var c=t.getElementById(f);if(c){var h=Y(t,c,n[f]);h&&(e=e.concat(h))}}return e.length?e:null}(t,n.elements);return e?function(t,n){var e=arguments.length>2&&void 0!==arguments[2]?arguments[2]:1/0,r=arguments.length>3&&void 0!==arguments[3]?arguments[3]:1,i=arguments.length>4&&void 0!==arguments[4]&&arguments[4],u=arguments.length>5&&void 0!==arguments[5]?arguments[5]:1,o=t.length,a=r>0?n:0;i&&e%2==0&&(a=n-a);var l=null;return function(s,f){var c=s%n,h=1+(s-c)/n;f*=r,i&&h%2==0&&(f=-f);var v=!1;if(h>e)c=a,v=!0,-1===u&&(c=r>0?0:n);else if(f<0&&(c=n-c),c===l)return!1;l=c;for(var d=0;d<o;d++)t[d](c);return v}}(e,n.duration,n.iterations||1/0,n.direction||1,!!n.alternate,n.fill||1):null}function U(t){return+("0x"+(t.replace(/[^0-9a-fA-F]+/g,"")||27))}function W(t,n,e){return!t||!e||n>t.length?t:t.substring(0,n)+W(t.substring(n+1),e,e)}function H(t){var n=arguments.length>1&&void 0!==arguments[1]?arguments[1]:27;return!t||t%n?t%n:H(t/n,n)}function Q(t,n,e){if(t&&t.length){var r=U(e),i=U(n),u=H(r)+5,o=W(t,H(r,5),u);return o=o.replace(/\x7c$/g,"==").replace(/\x2f$/g,"="),o=function(t,n,e){var r=+("0x"+t.substring(0,4));t=t.substring(4);for(var i=n%r+e%27,u=[],o=0;o<t.length;o+=2)if("|"!==t[o]){var a=+("0x"+t[o]+t[o+1])-i;u.push(a)}else{var l=+("0x"+t.substring(o+1,o+1+4))-i;o+=3,u.push(l)}return String.fromCharCode.apply(String,u)}(o=(o=atob(o)).replace(/[\x41-\x5A]/g,""),i,r),o=JSON.parse(o)}}Number.isInteger||(Number.isInteger=function(t){return"number"==typeof t&&isFinite(t)&&Math.floor(t)===t}),Number.EPSILON||(Number.EPSILON=2220446049250313e-31);var X=function(){function n(t,r){var i=arguments.length>2&&void 0!==arguments[2]?arguments[2]:{};e(this,n),this._id=0,this._running=!1,this._rollingBack=!1,this._animations=t,this.duration=r.duration,this.alternate=r.alternate,this.fill=r.fill,this.iterations=r.iterations,this.direction=i.direction||1,this.speed=i.speed||1,this.fps=i.fps||100,this.offset=i.offset||0,this.rollbackStartOffset=0}return i(n,[{key:"_rollback",value:function(){var t=this,n=1/0,e=null;this.rollbackStartOffset=this.offset,this._rollingBack||(this._rollingBack=!0,this._running=!0);this._id=window.requestAnimationFrame((function r(i){if(t._rollingBack){null==e&&(e=i);var u=i-e,o=t.rollbackStartOffset-u,a=Math.round(o*t.speed);if(a>t.duration&&n!=1/0){var l=!!t.alternate&&a/t.duration%2>1,s=a%t.duration;a=(s+=l?t.duration:0)||t.duration}var f=t.fps?1e3/t.fps:0,c=Math.max(0,a);if(c<n-f){t.offset=c,n=c;for(var h=t._animations,v=h.length,d=0;d<v;d++)h[d](c,t.direction)}var y=!1;if(t.iterations>0&&-1===t.fill){var g=t.iterations*t.duration,p=g==a;a=p?0:a,t.offset=p?0:t.offset,y=a>g}a>0&&t.offset>=a&&!y?t._id=window.requestAnimationFrame(r):t.stop()}}))}},{key:"_start",value:function(){var t=this,n=arguments.length>0&&void 0!==arguments[0]?arguments[0]:0,e=-1/0,r=null,i={},u=function u(o){t._running=!0,null==r&&(r=o);var a=Math.round((o-r+n)*t.speed),l=t.fps?1e3/t.fps:0;if(a>e+l&&!t._rollingBack){t.offset=a,e=a;for(var s=t._animations,f=s.length,c=0,h=0;h<f;h++)i[h]?c++:(i[h]=s[h](a,t.direction),i[h]&&c++);if(c===f)return void t._stop()}t._id=window.requestAnimationFrame(u)};this._id=window.requestAnimationFrame(u)}},{key:"_stop",value:function(){this._id&&window.cancelAnimationFrame(this._id),this._running=!1,this._rollingBack=!1}},{key:"play",value:function(){!this._rollingBack&&this._running||(this._rollingBack=!1,this.rollbackStartOffset>this.duration&&(this.offset=this.rollbackStartOffset-(this.rollbackStartOffset-this.offset)%this.duration,this.rollbackStartOffset=0),this._start(this.offset))}},{key:"stop",value:function(){this._stop(),this.offset=0,this.rollbackStartOffset=0;var t=this.direction,n=this._animations;window.requestAnimationFrame((function(){for(var e=0;e<n.length;e++)n[e](0,t)}))}},{key:"reachedToEnd",value:function(){return this.iterations>0&&this.offset>=this.iterations*this.duration}},{key:"restart",value:function(){this._stop(),this.offset=0,this._start()}},{key:"pause",value:function(){this._stop()}},{key:"reverse",value:function(){this.direction=-this.direction}}],[{key:"build",value:function(e,r){return delete e.animationSettings,e.options=Q(e.options,e.root,"91c80d77"),e.animations.map((function(n){var r=Q(n.s,e.root,"91c80d77");for(var i in delete n.s,e.animationSettings||(e.animationSettings=function(n){for(var e=1;e<arguments.length;e++){var r=null!=arguments[e]?arguments[e]:{};e%2?t(Object(r),!0).forEach((function(t){u(n,t,r[t])})):Object.getOwnPropertyDescriptors?Object.defineProperties(n,Object.getOwnPropertyDescriptors(r)):t(Object(r)).forEach((function(t){Object.defineProperty(n,t,Object.getOwnPropertyDescriptor(r,t))}))}return n}({},r)),r)r.hasOwnProperty(i)&&(n[i]=r[i])})),(e=function(t,n){if(I=n,!t||!t.root||!Array.isArray(t.animations))return null;for(var e=document.getElementsByTagName("svg"),r=!1,i=0;i<e.length;i++)if(e[i].id===t.root&&!e[i].svgatorAnimation){(r=e[i]).svgatorAnimation=!0;break}if(!r)return null;var u=t.animations.map((function(t){return G(r,t)})).filter((function(t){return!!t}));return u.length?{element:r,animations:u,animationSettings:t.animationSettings,options:t.options||void 0}:null}(e,r))?{el:e.element,options:e.options||{},player:new n(e.animations,e.animationSettings,e.options)}:null}},{key:"push",value:function(t){return this.build(t)}},{key:"init",value:function(){var t=this,n=window.__SVGATOR_PLAYER__&&window.__SVGATOR_PLAYER__["91c80d77"];Array.isArray(n)&&n.splice(0).forEach((function(n){return t.build(n)}))}}]),n}();!function(){for(var t=0,n=["ms","moz","webkit","o"],e=0;e<n.length&&!window.requestAnimationFrame;++e)window.requestAnimationFrame=window[n[e]+"RequestAnimationFrame"],window.cancelAnimationFrame=window[n[e]+"CancelAnimationFrame"]||window[n[e]+"CancelRequestAnimationFrame"];window.requestAnimationFrame||(window.requestAnimationFrame=function(n){var e=Date.now(),r=Math.max(0,16-(e-t)),i=window.setTimeout((function(){n(e+r)}),r);return t=e+r,i},window.cancelAnimationFrame=window.clearTimeout)}();var $=function(t,n){var e=!1,r=null;return function(i){e&&clearTimeout(e),e=setTimeout((function(){return function(){for(var i=0,u=window.innerHeight,o=0,a=window.innerWidth,l=t.parentNode;l instanceof Element;){var s=window.getComputedStyle(l);if("visible"!==s.overflowY||"visible"!==s.overflowX){var f=l.getBoundingClientRect();"visible"!==s.overflowY&&(i=Math.max(i,f.top),u=Math.min(u,f.bottom)),"visible"!==s.overflowX&&(o=Math.max(o,f.left),a=Math.min(a,f.right))}if(l===l.parentNode)break;l=l.parentNode}e=!1;var c=t.getBoundingClientRect(),h=Math.min(c.height,Math.max(0,i-c.top)),v=Math.min(c.height,Math.max(0,c.bottom-u)),d=Math.min(c.width,Math.max(0,o-c.left)),y=Math.min(c.width,Math.max(0,c.right-a)),g=(c.height-h-v)/c.height,p=(c.width-d-y)/c.width,b=Math.round(g*p*100);null!==r&&r===b||(r=b,n(b))}()}),100)}},J=function(){function t(n,r,i){e(this,t),r=Math.max(1,r||1),r=Math.min(r,100),this.el=n,this.onTresholdChange=i&&i.call?i:function(){},this.tresholdPercent=r||1,this.currentVisibility=null,this.visibilityCalculator=$(n,this.onVisibilityUpdate.bind(this)),this.bindScrollWatchers(),this.visibilityCalculator()}return i(t,[{key:"bindScrollWatchers",value:function(){for(var t=this.el.parentNode;t&&(t.addEventListener("scroll",this.visibilityCalculator),t!==t.parentNode&&t!==document);)t=t.parentNode}},{key:"onVisibilityUpdate",value:function(t){var n=this.currentVisibility>=this.tresholdPercent,e=t>=this.tresholdPercent;if(null===this.currentVisibility||n!==e)return this.currentVisibility=t,void this.onTresholdChange(e);this.currentVisibility=t}}]),t}();function Z(t){return h(t)+""}function K(t){var n=arguments.length>1&&void 0!==arguments[1]?arguments[1]:" ";return t&&t.length?t.map(Z).join(n):""}function tt(t){return Z(t.x)+","+Z(t.y)}function nt(t){return t?null==t.a||t.a>=1?"rgb("+t.r+","+t.g+","+t.b+")":"rgba("+t.r+","+t.g+","+t.b+","+t.a+")":"transparent"}var et={f:null,i:S,u:function(t,n){return function(e){var r=n(e);t.setAttribute("rx",Z(r.x)),t.setAttribute("ry",Z(r.y))}}},rt={f:null,i:function(t,n,e){return 0===t?n:1===t?e:{width:k(t,n.width,e.width),height:k(t,n.height,e.height)}},u:function(t,n){return function(e){var r=n(e);t.setAttribute("width",Z(r.width)),t.setAttribute("height",Z(r.height))}}},it=Math.sin,ut=Math.cos,ot=Math.acos,at=Math.asin,lt=Math.tan,st=Math.atan2,ft=Math.PI/180,ct=180/Math.PI,ht=Math.sqrt,vt=function(){function t(){var n=arguments.length>0&&void 0!==arguments[0]?arguments[0]:1,r=arguments.length>1&&void 0!==arguments[1]?arguments[1]:0,i=arguments.length>2&&void 0!==arguments[2]?arguments[2]:0,u=arguments.length>3&&void 0!==arguments[3]?arguments[3]:1,o=arguments.length>4&&void 0!==arguments[4]?arguments[4]:0,a=arguments.length>5&&void 0!==arguments[5]?arguments[5]:0;e(this,t),this.m=[n,r,i,u,o,a],this.i=null,this.w=null,this.s=null}return i(t,[{key:"determinant",get:function(){var t=this.m;return t[0]*t[3]-t[1]*t[2]}},{key:"isIdentity",get:function(){if(null===this.i){var t=this.m;this.i=1===t[0]&&0===t[1]&&0===t[2]&&1===t[3]&&0===t[4]&&0===t[5]}return this.i}},{key:"point",value:function(t,n){var e=this.m;return{x:e[0]*t+e[2]*n+e[4],y:e[1]*t+e[3]*n+e[5]}}},{key:"translateSelf",value:function(){var t=arguments.length>0&&void 0!==arguments[0]?arguments[0]:0,n=arguments.length>1&&void 0!==arguments[1]?arguments[1]:0;if(!t&&!n)return this;var e=this.m;return e[4]+=e[0]*t+e[2]*n,e[5]+=e[1]*t+e[3]*n,this.w=this.s=this.i=null,this}},{key:"rotateSelf",value:function(){var t=arguments.length>0&&void 0!==arguments[0]?arguments[0]:0;if(t%=360){var n=it(t*=ft),e=ut(t),r=this.m,i=r[0],u=r[1];r[0]=i*e+r[2]*n,r[1]=u*e+r[3]*n,r[2]=r[2]*e-i*n,r[3]=r[3]*e-u*n,this.w=this.s=this.i=null}return this}},{key:"scaleSelf",value:function(){var t=arguments.length>0&&void 0!==arguments[0]?arguments[0]:1,n=arguments.length>1&&void 0!==arguments[1]?arguments[1]:1;if(1!==t||1!==n){var e=this.m;e[0]*=t,e[1]*=t,e[2]*=n,e[3]*=n,this.w=this.s=this.i=null}return this}},{key:"skewSelf",value:function(t,n){if(n%=360,(t%=360)||n){var e=this.m,r=e[0],i=e[1],u=e[2],o=e[3];t&&(t=lt(t*ft),e[2]+=r*t,e[3]+=i*t),n&&(n=lt(n*ft),e[0]+=u*n,e[1]+=o*n),this.w=this.s=this.i=null}return this}},{key:"resetSelf",value:function(){var t=arguments.length>0&&void 0!==arguments[0]?arguments[0]:1,n=arguments.length>1&&void 0!==arguments[1]?arguments[1]:0,e=arguments.length>2&&void 0!==arguments[2]?arguments[2]:0,r=arguments.length>3&&void 0!==arguments[3]?arguments[3]:1,i=arguments.length>4&&void 0!==arguments[4]?arguments[4]:0,u=arguments.length>5&&void 0!==arguments[5]?arguments[5]:0,o=this.m;return o[0]=t,o[1]=n,o[2]=e,o[3]=r,o[4]=i,o[5]=u,this.w=this.s=this.i=null,this}},{key:"recomposeSelf",value:function(){var t=arguments.length>0&&void 0!==arguments[0]?arguments[0]:null,n=arguments.length>1&&void 0!==arguments[1]?arguments[1]:null,e=arguments.length>2&&void 0!==arguments[2]?arguments[2]:null,r=arguments.length>3&&void 0!==arguments[3]?arguments[3]:null,i=arguments.length>4&&void 0!==arguments[4]?arguments[4]:null;return this.isIdentity||this.resetSelf(),t&&(t.x||t.y)&&this.translateSelf(t.x,t.y),n&&this.rotateSelf(n),e&&(e.x&&this.skewSelf(e.x,0),e.y&&this.skewSelf(0,e.y)),!r||1===r.x&&1===r.y||this.scaleSelf(r.x,r.y),i&&(i.x||i.y)&&this.translateSelf(i.x,i.y),this}},{key:"decompose",value:function(){var t=arguments.length>0&&void 0!==arguments[0]?arguments[0]:0,n=arguments.length>1&&void 0!==arguments[1]?arguments[1]:0,e=this.m,r=e[0]*e[0]+e[1]*e[1],i=[[e[0],e[1]],[e[2],e[3]]],u=ht(r);if(0===u)return{origin:{x:h(e[4]),y:h(e[5])},translate:{x:h(t),y:h(n)},scale:{x:0,y:0},skew:{x:0,y:0},rotate:0};i[0][0]/=u,i[0][1]/=u;var o=e[0]*e[3]-e[1]*e[2]<0;o&&(u=-u);var a=i[0][0]*i[1][0]+i[0][1]*i[1][1];i[1][0]-=i[0][0]*a,i[1][1]-=i[0][1]*a;var l=ht(i[1][0]*i[1][0]+i[1][1]*i[1][1]);if(0===l)return{origin:{x:h(e[4]),y:h(e[5])},translate:{x:h(t),y:h(n)},scale:{x:h(u),y:0},skew:{x:0,y:0},rotate:0};i[1][0]/=l,i[1][1]/=l,a/=l;var s=0;return i[1][1]<0?(s=ot(i[1][1])*ct,i[0][1]<0&&(s=360-s)):s=at(i[0][1])*ct,o&&(s=-s),a=st(a,ht(i[0][0]*i[0][0]+i[0][1]*i[0][1]))*ct,o&&(a=-a),{origin:{x:h(e[4]),y:h(e[5])},translate:{x:h(t),y:h(n)},scale:{x:h(u),y:h(l)},skew:{x:h(a),y:0},rotate:h(s)}}},{key:"toString",value:function(){return null===this.s&&(this.s="matrix("+this.m.map((function(t){return h(t)})).join(" ")+")"),this.s}}]),t}();Object.freeze({M:2,L:2,Z:0,H:1,V:1,C:6,Q:4,T:2,S:4,A:7});var dt={},yt=null;function gt(t){var e=function(){if(yt)return yt;if("object"!==("undefined"==typeof document?"undefined":n(document))||!document.createElementNS)return{};var t=document.createElementNS("http://www.w3.org/2000/svg","svg");return t&&t.style?(t.style.position="absolute",t.style.opacity="0.01",t.style.zIndex="-9999",t.style.left="-9999px",t.style.width="1px",t.style.height="1px",yt={svg:t}):{}}().svg;if(!e)return function(t){return null};var r=document.createElementNS(e.namespaceURI,"path");r.setAttributeNS(null,"d",t),r.setAttributeNS(null,"fill","none"),r.setAttributeNS(null,"stroke","none"),e.appendChild(r);var i=r.getTotalLength();return function(t){var n=r.getPointAtLength(i*t);return{x:n.x,y:n.y}}}function pt(t){return dt[t]?dt[t]:dt[t]=gt(t)}function bt(t,n,e,r){if(!t||!r)return!1;var i=["M",t.x,t.y];if(n&&e&&(i.push("C"),i.push(n.x),i.push(n.y),i.push(e.x),i.push(e.y)),n?!e:e){var u=n||e;i.push("Q"),i.push(u.x),i.push(u.y)}return n||e||i.push("L"),i.push(r.x),i.push(r.y),i.join(" ")}function mt(t,n,e,r){var i=arguments.length>4&&void 0!==arguments[4]?arguments[4]:1,u=bt(t,n,e,r),o=pt(u);try{return o(i)}catch(t){return null}}function wt(t,n,e,r){var i=1-r;return i*i*t+2*i*r*n+r*r*e}function xt(t,n,e,r){return 2*(1-r)*(n-t)+2*r*(e-n)}function At(t,n,e,r){var i=arguments.length>4&&void 0!==arguments[4]&&arguments[4],u=mt(t,n,null,e,r);return u||(u={x:wt(t.x,n.x,e.x,r),y:wt(t.y,n.y,e.y,r)}),i&&(u.a=kt(t,n,e,r)),u}function kt(t,n,e,r){return Math.atan2(xt(t.y,n.y,e.y,r),xt(t.x,n.x,e.x,r))}function _t(t,n,e,r,i){var u=i*i;return i*u*(r-t+3*(n-e))+3*u*(t+e-2*n)+3*i*(n-t)+t}function St(t,n,e,r,i){var u=1-i;return 3*(u*u*(n-t)+2*u*i*(e-n)+i*i*(r-e))}function Ot(t,n,e,r,i){var u=arguments.length>5&&void 0!==arguments[5]&&arguments[5],o=mt(t,n,e,r,i);return o||(o={x:_t(t.x,n.x,e.x,r.x,i),y:_t(t.y,n.y,e.y,r.y,i)}),u&&(o.a=Mt(t,n,e,r,i)),o}function Mt(t,n,e,r,i){return Math.atan2(St(t.y,n.y,e.y,r.y,i),St(t.x,n.x,e.x,r.x,i))}function Et(t,n,e){return t+(n-t)*e}function Pt(t,n,e){var r=arguments.length>3&&void 0!==arguments[3]&&arguments[3],i={x:Et(t.x,n.x,e),y:Et(t.y,n.y,e)};return r&&(i.a=jt(t,n)),i}function jt(t,n){return Math.atan2(n.y-t.y,n.x-t.x)}function Bt(t,n,e){var r=arguments.length>3&&void 0!==arguments[3]&&arguments[3];if(Rt(n)){if(Tt(e))return At(n,e.start,e,t,r)}else if(Rt(e)){if(n.end)return At(n,n.end,e,t,r)}else{if(n.end)return e.start?Ot(n,n.end,e.start,e,t,r):At(n,n.end,e,t,r);if(e.start)return At(n,e.start,e,t,r)}return Pt(n,e,t,r)}function It(t,n,e){var r=Bt(t,n,e,!0);return r.a=function(t){return arguments.length>1&&void 0!==arguments[1]&&arguments[1]?t+Math.PI:t}(r.a)/d,r}function Rt(t){return!t.type||"corner"===t.type}function Tt(t){return null!=t.start&&!Rt(t)}var Nt=new vt;var Ct={f:function(t){return t?t.join(" "):""},i:function(t,e,r){if(0===t)return e;if(1===t)return r;var i=e.length;if(i!==r.length)return x(t,e,r);for(var u,o=new Array(i),a=0;a<i;a++){if((u=n(e[a]))!==n(r[a]))return x(t,e,r);if("number"===u)o[a]=A(t,e[a],r[a]);else{if(e[a]!==r[a])return x(t,e,r);o[a]=e[a]}}return o}},Ft={f:null,i:P,u:function(t,n){return function(e){var r=n(e);t.setAttribute("x1",Z(r[0])),t.setAttribute("y1",Z(r[1])),t.setAttribute("x2",Z(r[2])),t.setAttribute("y2",Z(r[3]))}}},Lt={f:Z,i:A},Vt={f:Z,i:function(t,n,e){var r=A(t,n,e);return r<=0?0:r>=1?1:r}},qt={f:function(t){var n=arguments.length>1&&void 0!==arguments[1]?arguments[1]:" ";return t&&t.length>0&&(t=t.map((function(t){return h(t,4)}))),K(t,n)},i:function(t,n,e){var r,i,u,o=n.length,a=e.length;if(o!==a)if(0===o)n=j(o=a,0);else if(0===a)a=o,e=j(o,0);else{var l=(u=(r=o)*(i=a)/function(t,n){for(var e;n;)e=n,n=t%n,t=e;return t||1}(r,i))<0?-u:u;n=B(n,Math.floor(l/o)),e=B(e,Math.floor(l/a)),o=a=l}for(var s=[],f=0;f<o;f++)s.push(h(k(t,n[f],e[f])));return s}};function Dt(t,n,e,r,i,u,o,a){return n=function(t,n,e){for(var r,i,u,o=t.length-1,a={},l=0;l<=o;l++)(r=t[l]).e&&(r.e=n(r.e)),r.v&&"g"===(i=r.v).t&&i.r&&(u=e.getElementById(i.r))&&(a[i.r]=u.querySelectorAll("stop"));return a}(t,r,a),function(r){var i,u=e(r,t,zt);return u?"c"===u.t?nt(u.v):"g"===u.t?(n[u.r]&&function(t,n){for(var e=0,r=t.length;e<r;e++)t[e].setAttribute("stop-color",nt(n[e]))}(n[u.r],u.v),(i=u.r)?"url(#"+i+")":"none"):"none":"none"}}function zt(t,n,e){if(0===t)return n;if(1===t)return e;if(n&&e){var r=n.t;if(r===e.t)switch(n.t){case"c":return{t:r,v:M(t,n.v,e.v)};case"g":if(n.r===e.r)return{t:r,v:E(t,n.v,e.v),r:n.r}}}return x(t,n,e)}var Yt={blur:S,brightness:k,contrast:k,"drop-shadow":function(t,n,e){return 0===t?n:1===t?e:{blur:S(t,n.blur,e.blur),offset:_(t,n.offset,e.offset),color:M(t,n.color,e.color)}},grayscale:k,"hue-rotate":A,invert:k,opacity:k,saturate:k,sepia:k};function Gt(t,n,e){if(0===t)return n;if(1===t)return e;var r=n.length;if(r!==e.length)return x(t,n,e);for(var i,u=[],o=0;o<r;o++){if(n[o].type!==e[o].type)return n;if(!(i=Yt[n[o].type]))return x(t,n,e);u.push({type:n.type,value:i(t,n[o].value,e[o].value)})}return u}var Ut={blur:function(t){return t?function(n){t.setAttribute("stdDeviation",tt(n))}:null},brightness:function(t,n,e){return(t=Ht(e,n))?function(n){n=Z(n),t.map((function(t){return t.setAttribute("slope",n)}))}:null},contrast:function(t,n,e){return(t=Ht(e,n))?function(n){var e=Z((1-n)/2);n=Z(n),t.map((function(t){t.setAttribute("slope",n),t.setAttribute("intercept",e)}))}:null},"drop-shadow":function(t,n,e){var r=e.getElementById(n+"-blur");if(!r)return null;var i=e.getElementById(n+"-offset");if(!i)return null;var u=e.getElementById(n+"-flood");return u?function(t){r.setAttribute("stdDeviation",tt(t.blur)),i.setAttribute("dx",Z(t.offset.x)),i.setAttribute("dy",Z(t.offset.y)),u.setAttribute("flood-color",nt(t.color))}:null},grayscale:function(t){return t?function(n){t.setAttribute("values",K(function(t){return[.2126+.7874*(t=1-t),.7152-.7152*t,.0722-.0722*t,0,0,.2126-.2126*t,.7152+.2848*t,.0722-.0722*t,0,0,.2126-.2126*t,.7152-.7152*t,.0722+.9278*t,0,0,0,0,0,1,0]}(n)))}:null},"hue-rotate":function(t){return t?function(n){return t.setAttribute("values",Z(n))}:null},invert:function(t,n,e){return(t=Ht(e,n))?function(n){n=Z(n)+" "+Z(1-n),t.map((function(t){return t.setAttribute("tableValues",n)}))}:null},opacity:function(t,n,e){return(t=e.getElementById(n+"-A"))?function(n){return t.setAttribute("tableValues","0 "+Z(n))}:null},saturate:function(t){return t?function(n){return t.setAttribute("values",Z(n))}:null},sepia:function(t){return t?function(n){return t.setAttribute("values",K(function(t){return[.393+.607*(t=1-t),.769-.769*t,.189-.189*t,0,0,.349-.349*t,.686+.314*t,.168-.168*t,0,0,.272-.272*t,.534-.534*t,.131+.869*t,0,0,0,0,0,1,0]}(n)))}:null}};var Wt=["R","G","B"];function Ht(t,n){var e=Wt.map((function(e){return t.getElementById(n+"-"+e)||null}));return-1!==e.indexOf(null)?null:e}var Qt={fill:Dt,"fill-opacity":Vt,stroke:Dt,"stroke-opacity":Vt,"stroke-width":Lt,"stroke-dashoffset":{f:Z,i:A},"stroke-dasharray":qt,opacity:Vt,transform:function(t,e,r,i){if(!(t=function(t,e){if(!t||"object"!==n(t))return null;var r=!1;for(var i in t)t.hasOwnProperty(i)&&(t[i]&&t[i].length?(t[i].forEach((function(t){t.e&&(t.e=e(t.e))})),r=!0):delete t[i]);return r?t:null}(t,i)))return null;var u=function(n,i,u){var o=arguments.length>3&&void 0!==arguments[3]?arguments[3]:null;return t[n]?r(i,t[n],u):e&&e[n]?e[n]:o};return e&&e.a&&t.o?function(n){var e=r(n,t.o,It);return Nt.recomposeSelf(e,u("r",n,A,0)+e.a,u("k",n,_),u("s",n,_),u("t",n,_)).toString()}:function(t){return Nt.recomposeSelf(u("o",t,Bt,null),u("r",t,A,0),u("k",t,_),u("s",t,_),u("t",t,_)).toString()}},"#filter":function(t,n,e,r,i,u,o,a){if(!n.items||!t||!t.length)return null;var l=function(t,n){var e=(t=t.map((function(t){return t&&Ut[t[0]]?(n.getElementById(t[1]),Ut[t[0]](n.getElementById(t[1]),t[1],n)):null}))).length;return function(n){for(var r=0;r<e;r++)t[r]&&t[r](n[r].value)}}(n.items,a);return l?(t=function(t,n){return t.map((function(t){return t.e=n(t.e),t}))}(t,r),function(n){l(e(n,t,Gt))}):null},"#line":Ft,points:{f:K,i:P},d:Ct,r:Lt,"#size":rt,"#radius":et,_:function(t,n){if(Array.isArray(t))for(var e=0;e<t.length;e++)this[t[e]]=n;else this[t]=n}},Xt=function(t){!function(t,n){if("function"!=typeof n&&null!==n)throw new TypeError("Super expression must either be null or a function");t.prototype=Object.create(n&&n.prototype,{constructor:{value:t,writable:!0,configurable:!0}}),n&&a(t,n)}(r,t);var n=s(r);function r(){return e(this,r),n.apply(this,arguments)}return i(r,null,[{key:"build",value:function(t){var n=f(o(r),"build",this).call(this,t,Qt);if(!n)return null;var e=n.el,i=n.options,u=n.player;return function(t,n,e){if("click"===e.start){var r=function(){switch(e.click){case"freeze":return!t._running&&t.reachedToEnd()&&(t.offset=0),t._running?t.pause():t.play();case"restart":return t.offset>0?t.restart():t.play();case"reverse":var n=!t._rollingBack&&t._running,r=t.reachedToEnd();return n||r&&1===t.fill?(t.pause(),r&&(t.offset=t.duration-1),t._rollback()):r?t.restart():t.play();case"none":default:return!t._running&&t.offset?t.restart():t.play()}};return void n.addEventListener("click",r)}if("hover"===e.start)return n.addEventListener("mouseenter",(function(){return t.reachedToEnd()?t.restart():t.play()})),void n.addEventListener("mouseleave",(function(){switch(e.hover){case"freeze":return t.pause();case"reset":return t.stop();case"reverse":return t.pause(),t._rollback();case"none":default:return}}));if("scroll"===e.start)return void new J(n,e.scroll||25,(function(n){n?t.reachedToEnd()?t.restart():t.play():t.pause()}));t.play()}(u,e,i),u}}]),r}(X);return Xt.init(),Xt}));
(function(s,i,o,w){w[o]=w[o]||{};w[o][s]=w[o][s]||[];w[o][s].push(i);})('91c80d77',{"root":"egDpBKrA8Xt1","animations":[{"elements":{"egDpBKrA8Xt2":{"opacity":[{"t":4000,"v":0},{"t":4500,"v":1},{"t":5500,"v":1},{"t":6000,"v":0}]},"egDpBKrA8Xt3":{"opacity":[{"t":1000,"v":0},{"t":1500,"v":1},{"t":2500,"v":1},{"t":3000,"v":0}]},"egDpBKrA8Xt4":{"opacity":[{"t":5500,"v":0},{"t":6000,"v":1},{"t":7000,"v":1},{"t":7500,"v":0}]},"egDpBKrA8Xt5":{"opacity":[{"t":1000,"v":1},{"t":1500,"v":0},{"t":7000,"v":0},{"t":7500,"v":1}]},"egDpBKrA8Xt6":{"opacity":[{"t":2500,"v":0},{"t":3000,"v":1},{"t":4000,"v":1},{"t":4500,"v":0}]}},"s":"MDLA1MzhlRTM1NOzc4ODg1NzQ4ENzdjODI4MTMW1NGQ0YTQ4NDANRNDMzZjM1NFzc3Yzg1Nzg3YNjg3N2M4MjgVxMzU0ZEs0NDLNmMzU3Yzg3NQzg4NTc0Rjg3AN2M4MjgxODYGzNTRkNDMzZjIM1Nzk3YzdmSITdmRTM1NGQ0LNDNmMzU3NDdUmODc3ODg1ODEE3NDg3NzgzNQUs0ZDc5NzQ3OZjg2NzgzZjMS1ODY4Mzc4NzCg3NzM1NGQ0NCDkw"}],"options":"MDRAxMDgyVDI5NL2E3YjY4Nzk3GYjI5NDEyOTcGzNzY2ODZiUjKI5ODQ/"},'__SVGATOR_PLAYER__',window)]]></script></svg>