<?xml version="1.0" encoding="utf-8"?>
<!-- Generator: Adobe Illustrator 24.3.0, SVG Export Plug-In . SVG Version: 6.00 Build 0)  -->
<svg version="1.1" id="Layer_1" xmlns="http://www.w3.org/2000/svg" xmlns:xlink="http://www.w3.org/1999/xlink" x="0px" y="0px"
	 viewBox="0 0 553 106.9" style="enable-background:new 0 0 553 106.9;" xml:space="preserve">
<style type="text/css">
	.st0{fill:#02B9B9;}
</style>
<path class="st0" d="M66.7,17.6c2.9,1.5,5.2,3.8,6.9,6.8c1.7,3,2.5,6.6,2.5,10.9V63h-9.6V36.8c0-4.2-1.1-7.4-3.2-9.7
	c-2.1-2.2-5-3.4-8.6-3.4c-3.6,0-6.5,1.1-8.6,3.4c-2.1,2.2-3.2,5.5-3.2,9.7V63h-9.6V36.8c0-4.2-1.1-7.4-3.2-9.7
	c-2.1-2.2-5-3.4-8.6-3.4s-6.5,1.1-8.6,3.4c-2.1,2.2-3.2,5.5-3.2,9.7V63H0V16.1h9.7v5.4c1.6-1.9,3.6-3.4,6-4.5
	c2.4-1.1,5.1-1.6,7.8-1.6c3.7,0,7.1,0.8,10,2.4c3,1.6,5.2,3.9,6.8,6.9c1.4-2.8,3.6-5.1,6.6-6.8c3-1.7,6.2-2.5,9.7-2.5
	C60.5,15.3,63.8,16.1,66.7,17.6z M96.8,60.8c-3.6-2-6.4-4.9-8.4-8.5c-2-3.7-3.1-7.9-3.1-12.7c0-4.8,1-9,3.2-12.7
	c2.1-3.7,5-6.5,8.6-8.5c3.6-2,7.7-3,12.2-3c4.5,0,8.5,1,12.2,3c3.6,2,6.5,4.8,8.6,8.5c2.1,3.7,3.2,7.9,3.2,12.7
	c0,4.8-1.1,9-3.2,12.7c-2.2,3.7-5.1,6.5-8.8,8.6c-3.7,2-7.8,3-12.3,3C104.4,63.8,100.4,62.8,96.8,60.8z M115.9,53.6
	c2.2-1.2,4-3,5.3-5.4c1.4-2.4,2-5.3,2-8.7s-0.7-6.3-2-8.6c-1.3-2.4-3-4.1-5.2-5.3c-2.2-1.2-4.5-1.8-7-1.8c-2.5,0-4.8,0.6-6.9,1.8
	c-2.1,1.2-3.8,3-5.1,5.3c-1.2,2.4-1.9,5.2-1.9,8.6c0,5.1,1.3,9,3.9,11.7c2.6,2.8,5.8,4.1,9.8,4.1C111.3,55.4,113.7,54.8,115.9,53.6z
	 M176.4,17.6c2.9,1.5,5.2,3.8,6.9,6.8c1.6,3,2.5,6.6,2.5,10.9V63h-9.6V36.8c0-4.2-1.1-7.4-3.2-9.7c-2.1-2.2-5-3.4-8.6-3.4
	c-3.6,0-6.5,1.1-8.6,3.4c-2.1,2.2-3.2,5.5-3.2,9.7V63h-9.7V16.1h9.7v5.4c1.6-1.9,3.6-3.4,6.1-4.5c2.5-1.1,5.1-1.6,7.9-1.6
	C170.2,15.3,173.5,16.1,176.4,17.6z M197.8,26.8c2-3.6,4.6-6.5,8-8.5c3.4-2,7.1-3,11.3-3c3.1,0,6.1,0.7,9.1,2c3,1.3,5.4,3.1,7.1,5.3
	V0h9.8v63h-9.8V56c-1.6,2.3-3.8,4.1-6.6,5.6c-2.8,1.5-6,2.2-9.7,2.2c-4.1,0-7.8-1-11.2-3.1c-3.4-2.1-6-5-8-8.7
	c-2-3.7-2.9-7.9-2.9-12.6S195.8,30.5,197.8,26.8z M231.3,31.1c-1.3-2.4-3.1-4.2-5.2-5.5c-2.2-1.2-4.5-1.9-7-1.9
	c-2.5,0-4.8,0.6-7,1.8c-2.2,1.2-3.9,3-5.2,5.4c-1.3,2.4-2,5.2-2,8.4c0,3.2,0.7,6.1,2,8.5c1.3,2.4,3.1,4.3,5.3,5.6
	c2.2,1.3,4.5,1.9,6.9,1.9c2.5,0,4.8-0.6,7-1.9c2.2-1.2,3.9-3.1,5.2-5.5c1.3-2.4,2-5.2,2-8.5C233.3,36.3,232.6,33.5,231.3,31.1z
	 M264.2,60.8c-3.6-2-6.4-4.9-8.4-8.5c-2-3.7-3.1-7.9-3.1-12.7c0-4.8,1-9,3.2-12.7c2.1-3.7,5-6.5,8.6-8.5c3.6-2,7.7-3,12.2-3
	c4.5,0,8.5,1,12.2,3c3.6,2,6.5,4.8,8.6,8.5c2.1,3.7,3.2,7.9,3.2,12.7c0,4.8-1.1,9-3.2,12.7c-2.2,3.7-5.1,6.5-8.8,8.6
	c-3.7,2-7.8,3-12.3,3C271.8,63.8,267.8,62.8,264.2,60.8z M283.2,53.6c2.2-1.2,4-3,5.3-5.4c1.4-2.4,2-5.3,2-8.7s-0.7-6.3-2-8.6
	c-1.3-2.4-3-4.1-5.2-5.3c-2.2-1.2-4.5-1.8-7-1.8c-2.5,0-4.8,0.6-6.9,1.8s-3.8,3-5.1,5.3c-1.2,2.4-1.9,5.2-1.9,8.6
	c0,5.1,1.3,9,3.9,11.7c2.6,2.8,5.8,4.1,9.8,4.1C278.7,55.4,281,54.8,283.2,53.6z M343.8,17.6c2.9,1.5,5.2,3.8,6.9,6.8
	c1.6,3,2.5,6.6,2.5,10.9V63h-9.6V36.8c0-4.2-1.1-7.4-3.2-9.7c-2.1-2.2-5-3.4-8.6-3.4c-3.6,0-6.5,1.1-8.6,3.4
	c-2.1,2.2-3.2,5.5-3.2,9.7V63h-9.7V16.1h9.7v5.4c1.6-1.9,3.6-3.4,6.1-4.5c2.5-1.1,5.1-1.6,7.9-1.6C337.5,15.3,340.8,16.1,343.8,17.6
	z M373.8,60.8c-3.6-2-6.4-4.9-8.4-8.5c-2-3.7-3.1-7.9-3.1-12.7c0-4.8,1-9,3.2-12.7c2.1-3.7,5-6.5,8.6-8.5c3.6-2,7.7-3,12.2-3
	c4.5,0,8.5,1,12.2,3c3.6,2,6.5,4.8,8.6,8.5c2.1,3.7,3.2,7.9,3.2,12.7c0,4.8-1.1,9-3.2,12.7c-2.2,3.7-5.1,6.5-8.8,8.6
	c-3.7,2-7.8,3-12.3,3C381.4,63.8,377.4,62.8,373.8,60.8z M392.8,53.6c2.2-1.2,4-3,5.3-5.4c1.4-2.4,2-5.3,2-8.7s-0.7-6.3-2-8.6
	c-1.3-2.4-3-4.1-5.2-5.3c-2.2-1.2-4.5-1.8-7-1.8c-2.5,0-4.8,0.6-6.9,1.8s-3.8,3-5.1,5.3c-1.2,2.4-1.9,5.2-1.9,8.6
	c0,5.1,1.3,9,3.9,11.7c2.6,2.8,5.8,4.1,9.8,4.1C388.3,55.4,390.6,54.8,392.8,53.6z M486.5,17.6c2.9,1.5,5.2,3.8,6.9,6.8
	c1.7,3,2.5,6.6,2.5,10.9V63h-9.6V36.8c0-4.2-1-7.4-3.1-9.7c-2.1-2.2-5-3.4-8.6-3.4s-6.5,1.1-8.6,3.4c-2.1,2.2-3.2,5.5-3.2,9.7V63
	h-9.6V36.8c0-4.2-1.1-7.4-3.2-9.7c-2.1-2.2-5-3.4-8.6-3.4s-6.5,1.1-8.6,3.4c-2.1,2.2-3.2,5.5-3.2,9.7V63h-9.7V16.1h9.7v5.4
	c1.6-1.9,3.6-3.4,6-4.5c2.4-1.1,5.1-1.6,7.8-1.6c3.7,0,7.1,0.8,10.1,2.4c3,1.6,5.2,3.9,6.8,6.9c1.4-2.8,3.6-5.1,6.6-6.8
	c3-1.7,6.2-2.5,9.7-2.5C480.3,15.3,483.6,16.1,486.5,17.6z M516.6,60.8c-3.6-2-6.4-4.9-8.4-8.5c-2-3.7-3.1-7.9-3.1-12.7
	c0-4.8,1-9,3.2-12.7c2.1-3.7,5-6.5,8.6-8.5c3.6-2,7.7-3,12.2-3c4.5,0,8.5,1,12.2,3c3.6,2,6.5,4.8,8.6,8.5c2.1,3.7,3.2,7.9,3.2,12.7
	c0,4.8-1.1,9-3.2,12.7c-2.2,3.7-5.1,6.5-8.8,8.6c-3.7,2-7.8,3-12.3,3C524.2,63.8,520.2,62.8,516.6,60.8z M535.6,53.6
	c2.2-1.2,4-3,5.3-5.4c1.4-2.4,2-5.3,2-8.7s-0.7-6.3-2-8.6c-1.3-2.4-3-4.1-5.2-5.3c-2.2-1.2-4.5-1.8-7-1.8c-2.5,0-4.8,0.6-6.9,1.8
	c-2.1,1.2-3.8,3-5.1,5.3c-1.2,2.4-1.9,5.2-1.9,8.6c0,5.1,1.3,9,3.9,11.7c2.6,2.8,5.8,4.1,9.8,4.1C531.1,55.4,533.5,54.8,535.6,53.6z
	"/>
<path class="st0" d="M0,88.8c1-0.2,2.6-0.4,4.3-0.4c2.3,0,3.8,0.4,5,1.3c0.9,0.7,1.5,1.8,1.5,3.2c0,1.7-1.2,3.3-3.1,4v0.1
	c1.7,0.4,3.7,1.8,3.7,4.5c0,1.6-0.6,2.7-1.5,3.6c-1.3,1.2-3.3,1.7-6.2,1.7c-1.6,0-2.8-0.1-3.6-0.2V88.8z M2.3,96.2h2.1
	c2.5,0,3.9-1.3,3.9-3c0-2.1-1.6-2.9-4-2.9c-1.1,0-1.7,0.1-2.1,0.2V96.2z M2.3,104.8c0.5,0.1,1.1,0.1,2,0.1c2.4,0,4.6-0.9,4.6-3.5
	c0-2.5-2.1-3.5-4.7-3.5H2.3V104.8z M16.1,88.8c1.2-0.2,2.9-0.4,4.5-0.4c2.5,0,4.1,0.5,5.2,1.5c0.9,0.8,1.4,2,1.4,3.4
	c0,2.4-1.5,4-3.4,4.6V98c1.4,0.5,2.2,1.8,2.7,3.6c0.6,2.5,1,4.3,1.4,5h-2.4c-0.3-0.5-0.7-2.1-1.2-4.3c-0.5-2.5-1.5-3.4-3.6-3.5h-2.2
	v7.8h-2.3V88.8z M18.5,97h2.4c2.5,0,4.1-1.4,4.1-3.4c0-2.3-1.7-3.3-4.2-3.4c-1.1,0-1.9,0.1-2.3,0.2V97z M34.5,88.5v18.1h-2.3V88.5
	H34.5z M40.1,106.6V88.5h2.5l5.8,9.1c1.3,2.1,2.4,4,3.2,5.9l0.1,0c-0.2-2.4-0.3-4.6-0.3-7.4v-7.6h2.2v18.1h-2.4l-5.7-9.2
	c-1.3-2-2.5-4.1-3.4-6l-0.1,0c0.1,2.3,0.2,4.4,0.2,7.4v7.7H40.1z M73.1,105.8c-1,0.4-3.1,1-5.5,1c-2.7,0-5-0.7-6.8-2.4
	c-1.6-1.5-2.5-3.9-2.5-6.7c0-5.4,3.7-9.3,9.8-9.3c2.1,0,3.7,0.5,4.5,0.8L72,91.1c-1-0.4-2.2-0.8-4-0.8c-4.4,0-7.3,2.7-7.3,7.3
	c0,4.6,2.8,7.3,7,7.3c1.5,0,2.6-0.2,3.1-0.5V99h-3.7v-1.9h5.9V105.8z M80.6,88.5v18.1h-2.3V88.5H80.6z M86.3,106.6V88.5h2.5l5.8,9.1
	c1.3,2.1,2.4,4,3.2,5.9l0.1,0c-0.2-2.4-0.3-4.6-0.3-7.4v-7.6h2.2v18.1h-2.4l-5.7-9.2c-1.3-2-2.5-4.1-3.4-6l-0.1,0
	c0.1,2.3,0.2,4.4,0.2,7.4v7.7H86.3z M119.3,105.8c-1,0.4-3.1,1-5.5,1c-2.7,0-5-0.7-6.8-2.4c-1.6-1.5-2.5-3.9-2.5-6.7
	c0-5.4,3.7-9.3,9.8-9.3c2.1,0,3.7,0.5,4.5,0.8l-0.6,1.9c-1-0.4-2.2-0.8-4-0.8c-4.4,0-7.3,2.7-7.3,7.3c0,4.6,2.8,7.3,7,7.3
	c1.5,0,2.6-0.2,3.1-0.5V99h-3.7v-1.9h5.9V105.8z M134.1,90.5h-5.5v-2h13.4v2h-5.5v16.1h-2.4V90.5z M147.9,88.5v7.6h8.7v-7.6h2.4
	v18.1h-2.4v-8.5h-8.7v8.5h-2.3V88.5H147.9z M174,98.1h-7v6.5h7.8v2h-10.2V88.5h9.8v2h-7.4v5.7h7V98.1z M188.7,106.6l-4.6-18.1h2.5
	l2.1,9.1c0.5,2.3,1,4.5,1.3,6.2h0.1c0.3-1.8,0.9-3.9,1.5-6.3l2.4-9.1h2.4l2.2,9.2c0.5,2.1,1,4.3,1.3,6.2h0.1c0.4-2,0.9-4,1.4-6.2
	l2.4-9.1h2.4l-5.1,18.1h-2.4l-2.3-9.4c-0.6-2.3-0.9-4.1-1.2-5.9h-0.1c-0.3,1.8-0.7,3.6-1.4,5.9l-2.6,9.4H188.7z M225.4,97.4
	c0,6.2-3.8,9.5-8.4,9.5c-4.8,0-8.1-3.7-8.1-9.2c0-5.7,3.6-9.5,8.4-9.5C222.2,88.2,225.4,92,225.4,97.4z M211.4,97.7
	c0,3.9,2.1,7.3,5.8,7.3c3.7,0,5.8-3.4,5.8-7.5c0-3.6-1.9-7.3-5.8-7.3C213.3,90.1,211.4,93.7,211.4,97.7z M230.1,88.8
	c1.2-0.2,2.9-0.4,4.5-0.4c2.5,0,4.1,0.5,5.2,1.5c0.9,0.8,1.4,2,1.4,3.4c0,2.4-1.5,4-3.4,4.6V98c1.4,0.5,2.2,1.8,2.7,3.6
	c0.6,2.5,1,4.3,1.4,5h-2.4c-0.3-0.5-0.7-2.1-1.2-4.3c-0.5-2.5-1.5-3.4-3.6-3.5h-2.2v7.8h-2.3V88.8z M232.4,97h2.4
	c2.5,0,4.1-1.4,4.1-3.4c0-2.3-1.7-3.3-4.2-3.4c-1.1,0-1.9,0.1-2.3,0.2V97z M246.1,88.5h2.3v16.1h7.7v2h-10V88.5z M260.3,88.8
	c1.4-0.2,3.1-0.4,5-0.4c3.3,0,5.7,0.8,7.3,2.3c1.6,1.5,2.5,3.6,2.5,6.5c0,2.9-0.9,5.4-2.6,7c-1.7,1.7-4.5,2.6-8,2.6
	c-1.7,0-3.1-0.1-4.2-0.2V88.8z M262.6,104.7c0.6,0.1,1.4,0.1,2.4,0.1c5,0,7.7-2.8,7.7-7.7c0-4.3-2.4-7-7.3-7c-1.2,0-2.1,0.1-2.7,0.2
	V104.7z M289.4,90.5h-5.5v-2h13.4v2h-5.5v16.1h-2.4V90.5z M315.6,97.4c0,6.2-3.8,9.5-8.4,9.5c-4.8,0-8.1-3.7-8.1-9.2
	c0-5.7,3.6-9.5,8.4-9.5C312.4,88.2,315.6,92,315.6,97.4z M301.6,97.7c0,3.9,2.1,7.3,5.8,7.3c3.7,0,5.8-3.4,5.8-7.5
	c0-3.6-1.9-7.3-5.8-7.3C303.5,90.1,301.6,93.7,301.6,97.7z M334,105.8c-1,0.4-3.1,1-5.5,1c-2.7,0-5-0.7-6.7-2.4
	c-1.6-1.5-2.5-3.9-2.5-6.7c0-5.4,3.7-9.3,9.8-9.3c2.1,0,3.7,0.5,4.5,0.8l-0.6,1.9c-1-0.4-2.2-0.8-4-0.8c-4.4,0-7.3,2.7-7.3,7.3
	c0,4.6,2.8,7.3,7,7.3c1.5,0,2.6-0.2,3.1-0.5V99H328v-1.9h5.9V105.8z M348.5,98.1h-7v6.5h7.8v2h-10.2V88.5h9.8v2h-7.4v5.7h7V98.1z
	 M357.8,90.5h-5.5v-2h13.4v2h-5.5v16.1h-2.4V90.5z M371.6,88.5v7.6h8.7v-7.6h2.4v18.1h-2.4v-8.5h-8.7v8.5h-2.3V88.5H371.6z
	 M397.7,98.1h-7v6.5h7.8v2h-10.2V88.5h9.8v2h-7.4v5.7h7V98.1z M403.1,88.8c1.2-0.2,2.9-0.4,4.5-0.4c2.5,0,4.1,0.5,5.2,1.5
	c0.9,0.8,1.4,2,1.4,3.4c0,2.4-1.5,4-3.4,4.6V98c1.4,0.5,2.2,1.8,2.7,3.6c0.6,2.5,1,4.3,1.4,5h-2.4c-0.3-0.5-0.7-2.1-1.2-4.3
	c-0.5-2.5-1.5-3.4-3.6-3.5h-2.2v7.8h-2.3V88.8z M405.4,97h2.4c2.5,0,4.1-1.4,4.1-3.4c0-2.3-1.7-3.3-4.2-3.4c-1.1,0-1.9,0.1-2.3,0.2
	V97z M426.4,88.8c1-0.2,2.6-0.4,4.3-0.4c2.3,0,3.8,0.4,5,1.3c0.9,0.7,1.5,1.8,1.5,3.2c0,1.7-1.2,3.3-3.1,4v0.1
	c1.7,0.4,3.7,1.8,3.7,4.5c0,1.6-0.6,2.7-1.5,3.6c-1.3,1.2-3.3,1.7-6.2,1.7c-1.6,0-2.8-0.1-3.6-0.2V88.8z M428.7,96.2h2.1
	c2.5,0,3.9-1.3,3.9-3c0-2.1-1.6-2.9-4-2.9c-1.1,0-1.7,0.1-2.1,0.2V96.2z M428.7,104.8c0.5,0.1,1.1,0.1,2,0.1c2.4,0,4.6-0.9,4.6-3.5
	c0-2.5-2.1-3.5-4.7-3.5h-1.9V104.8z M446.1,106.6v-7.7l-5.7-10.4h2.7l2.5,5c0.7,1.4,1.2,2.5,1.8,3.7h0.1c0.5-1.2,1.1-2.4,1.8-3.7
	l2.6-5h2.7l-6.1,10.4v7.7H446.1z M465.5,106.6V88.5h2.5l5.8,9.1c1.3,2.1,2.4,4,3.2,5.9l0.1,0c-0.2-2.4-0.3-4.6-0.3-7.4v-7.6h2.2
	v18.1h-2.4l-5.7-9.2c-1.3-2-2.5-4.1-3.4-6l-0.1,0c0.1,2.3,0.2,4.4,0.2,7.4v7.7H465.5z M487.7,100.9l-1.9,5.7h-2.4l6.1-18.1h2.8
	l6.2,18.1H496l-1.9-5.7H487.7z M493.6,99.1l-1.8-5.2c-0.4-1.2-0.7-2.3-0.9-3.3h-0.1c-0.3,1.1-0.6,2.2-0.9,3.3l-1.8,5.2H493.6z
	 M517.9,98.6c-0.1-2.5-0.3-5.5-0.3-7.8h-0.1c-0.6,2.1-1.4,4.4-2.3,6.9l-3.2,8.8h-1.8l-2.9-8.6c-0.9-2.5-1.6-4.9-2.1-7h-0.1
	c-0.1,2.3-0.2,5.3-0.3,8l-0.5,7.7h-2.2l1.3-18.1h3l3.1,8.7c0.8,2.2,1.4,4.2,1.8,6.1h0.1c0.5-1.8,1.1-3.8,1.9-6.1l3.2-8.7h3l1.1,18.1
	h-2.3L517.9,98.6z M535.1,98.1h-7v6.5h7.8v2h-10.2V88.5h9.8v2h-7.4v5.7h7V98.1z M540.2,103.7c1,0.6,2.6,1.2,4.2,1.2
	c2.4,0,3.8-1.3,3.8-3.1c0-1.7-1-2.7-3.4-3.6c-2.9-1-4.8-2.6-4.8-5.1c0-2.8,2.3-4.9,5.8-4.9c1.8,0,3.2,0.4,4,0.9l-0.6,1.9
	c-0.6-0.3-1.8-0.9-3.4-0.9c-2.5,0-3.4,1.5-3.4,2.7c0,1.7,1.1,2.5,3.6,3.5c3.1,1.2,4.6,2.7,4.6,5.3c0,2.8-2.1,5.2-6.3,5.2
	c-1.7,0-3.6-0.5-4.6-1.2L540.2,103.7z"/>
</svg>
