<svg id="eH7YyQeJNpr1" xmlns="http://www.w3.org/2000/svg" xmlns:xlink="http://www.w3.org/1999/xlink" viewBox="0 0 292.181152 87.516197" shape-rendering="geometricPrecision" text-rendering="geometricPrecision"><style><![CDATA[#eH7YyQeJNpr2 {animation: eH7YyQeJNpr2_c_o 15000ms linear infinite normal forwards}@keyframes eH7YyQeJNpr2_c_o { 0% {opacity: 0} 56.666667% {opacity: 0} 60% {opacity: 1} 66.666667% {opacity: 1} 70% {opacity: 0} 100% {opacity: 0}} #eH7YyQeJNpr3 {animation: eH7YyQeJNpr3_c_o 15000ms linear infinite normal forwards}@keyframes eH7YyQeJNpr3_c_o { 0% {opacity: 0} 46.666667% {opacity: 0} 50% {opacity: 1} 56.666667% {opacity: 1} 60% {opacity: 0} 100% {opacity: 0}} #eH7YyQeJNpr4 {animation: eH7YyQeJNpr4_c_o 15000ms linear infinite normal forwards}@keyframes eH7YyQeJNpr4_c_o { 0% {opacity: 0} 76.666667% {opacity: 0} 80% {opacity: 1} 86.666667% {opacity: 1} 90% {opacity: 0} 100% {opacity: 0}} #eH7YyQeJNpr5 {animation: eH7YyQeJNpr5_c_o 15000ms linear infinite normal forwards}@keyframes eH7YyQeJNpr5_c_o { 0% {opacity: 0} 6.666667% {opacity: 0} 10% {opacity: 1} 16.666667% {opacity: 1} 20% {opacity: 0} 100% {opacity: 0}} #eH7YyQeJNpr6 {animation: eH7YyQeJNpr6_c_o 15000ms linear infinite normal forwards}@keyframes eH7YyQeJNpr6_c_o { 0% {opacity: 0} 16.666667% {opacity: 0} 20% {opacity: 1} 26.666667% {opacity: 1} 30% {opacity: 0} 100% {opacity: 0}} #eH7YyQeJNpr7 {animation: eH7YyQeJNpr7_c_o 15000ms linear infinite normal forwards}@keyframes eH7YyQeJNpr7_c_o { 0% {opacity: 0} 66.666667% {opacity: 0} 70% {opacity: 1} 76.666667% {opacity: 1} 80% {opacity: 0} 100% {opacity: 0}} #eH7YyQeJNpr8 {animation: eH7YyQeJNpr8_c_o 15000ms linear infinite normal forwards}@keyframes eH7YyQeJNpr8_c_o { 0% {opacity: 0} 36.666667% {opacity: 0} 40% {opacity: 1} 46.666667% {opacity: 1} 50% {opacity: 0} 100% {opacity: 0}} #eH7YyQeJNpr9 {animation: eH7YyQeJNpr9_c_o 15000ms linear infinite normal forwards}@keyframes eH7YyQeJNpr9_c_o { 0% {opacity: 0} 26.666667% {opacity: 0} 30% {opacity: 1} 36.666667% {opacity: 1} 40% {opacity: 0} 100% {opacity: 0}} #eH7YyQeJNpr10 {animation: eH7YyQeJNpr10_c_o 15000ms linear infinite normal forwards}@keyframes eH7YyQeJNpr10_c_o { 0% {opacity: 1} 6.666667% {opacity: 1} 10% {opacity: 0} 96.666667% {opacity: 0} 100% {opacity: 1}} #eH7YyQeJNpr12 {animation: eH7YyQeJNpr12_c_o 15000ms linear infinite normal forwards}@keyframes eH7YyQeJNpr12_c_o { 0% {opacity: 0} 86.666667% {opacity: 0} 90% {opacity: 1} 96.666667% {opacity: 1} 100% {opacity: 0}}]]></style><path id="eH7YyQeJNpr2" d="M2.096224,67.294014C2.096224,72.074287,6.178255,80.050362,6.178255,84.105537C6.178255,84.615791,5.937044,86.253975,5.561067,87.435616L5.104036,87.435616C5.104036,84.159248,0.001497,73.605049,0.001497,69.523018C-0.02487,68.180244,0.297396,66.78376,0.941927,65.387276C2.177279,62.862865,4.083528,61.090404,6.607942,60.231029C6.25931,54.53767,6.151888,50.079662,6.151888,48.683178C6.151888,47.608959,5.668489,45.594799,5.668489,44.332592C5.668489,43.446361,5.748567,42.855541,6.393099,42.130444C6.769075,41.6739,7.306185,41.190502,7.897005,40.733959L8.16556,40.895092C8.085482,41.37849,8.111849,41.700756,8.111849,42.023022C8.111849,42.855541,8.648958,44.198315,10.421419,46.937572L8.434115,48.226635C8.434115,51.93269,8.541536,56.524975,8.810091,59.747631C9.750521,59.479076,10.582552,59.39851,11.630404,59.39851C14.960482,59.39851,17.431185,61.385815,17.431185,64.689034C17.431185,67.884834,15.094271,70.248116,12.73099,70.248116C8.461458,70.248116,7.091341,65.89753,6.715365,63.319408C4.272005,64.205635,2.096224,65.951241,2.096224,67.294014ZM13.671419,67.052315C14.449739,67.052315,15.175325,66.756905,15.63138,66.354073C15.738802,63.695385,12.865755,62.5406,10.904818,62.5406C10.367708,62.5406,9.723177,62.5406,9.078646,62.728588C9.454622,65.252998,11.522982,67.052315,13.671419,67.052315ZM29.032747,69.92585L28.736849,69.92585C26.615755,69.92585,25.245638,69.496162,24.145052,68.395088C22.50638,66.730049,22.480013,64.823311,22.480013,60.875561C22.480013,55.773022,22.184115,50.428784,21.781771,44.735424C22.694857,43.741772,23.526888,42.855541,24.306185,42.237866L24.493685,42.345287C24.923372,48.226635,24.923372,55.182202,24.923372,61.788647L24.923372,63.319409C24.923372,65.038155,25.890169,65.816963,26.938021,66.19294C27.608919,66.434639,28.307161,66.48835,28.656771,66.48835L29.032747,66.48835L29.032747,69.92585ZM30.160677,66.48835C32.470245,66.48835,34.350128,66.407784,37.196808,65.145577L37.196808,65.038155C35.961456,64.205635,34.698761,62.728588,33.437042,61.573803C32.765167,60.956127,32.040558,60.445873,31.583529,60.445873L30.751497,60.445873L30.670443,60.392162L31.718294,57.303783L32.550324,57.196361C34.64505,56.739818,37.115753,56.310131,39.747589,56.310131C42.862824,56.310131,45.54837,56.820385,47.535675,57.652904L46.596222,60.58015L41.92337,64.903877L41.92337,65.011299C43.722199,65.978096,45.763214,66.48835,48.046417,66.48835L49.120636,66.48835L49.120636,69.92585L48.314972,69.92585C45.307159,69.92585,41.977081,68.79792,39.371613,66.78376L39.264191,66.78376C35.961456,69.173897,33.087433,69.92585,29.864778,69.92585L29.032747,69.92585C27.555208,69.92585,27.152864,68.851631,27.152864,68.126534C27.152864,67.482002,27.582552,66.48835,29.032747,66.48835L30.160677,66.48835ZM39.908722,63.856518C41.493683,62.728588,43.131378,61.493237,44.850128,59.855053L44.850128,59.747631C43.373566,59.39851,41.734894,59.076244,39.855011,59.076244C38.109894,59.076244,36.471222,59.264233,34.887238,59.559643L34.887238,59.667065C35.370636,60.096752,35.907745,60.660717,36.471222,61.197826C37.357941,62.030346,38.539581,62.970287,39.8013,63.856518L39.908722,63.856518ZM49.711456,66.48835C50.570831,66.48835,51.563995,66.380928,52.719269,65.763252C53.658722,65.226143,54.14212,64.259346,54.14212,62.862865C54.08841,58.56599,53.793488,53.866283,53.3638,48.924877C53.256378,47.689525,53.095245,46.561596,53.095245,45.567944C53.095245,44.977123,53.3638,44.359447,53.90091,43.768627C54.276886,43.312084,54.786652,42.80183,55.377472,42.291576L55.565949,42.425854C55.512238,44.171459,56.344269,46.266186,57.740753,48.575756C57.257355,49.032299,56.693878,49.488842,56.049347,49.945385C56.156769,53.033764,56.39798,56.283275,56.39798,59.264233C56.39798,62.164623,56.103058,64.393623,55.323761,66.004951C54.760285,67.37458,54.115753,68.50251,52.880402,69.120186C51.83255,69.657295,50.570831,69.92585,49.52298,69.92585L49.120636,69.92585C47.643097,69.92585,47.240753,68.851631,47.240753,68.126533C47.240753,67.482002,47.670441,66.48835,49.120636,66.48835L49.711456,66.48835ZM62.387238,70.382393C62.655792,68.690498,62.682159,66.78376,62.682159,65.011299L62.682159,62.379467C62.682159,57.464916,62.14505,50.321361,61.715363,45.675365C62.467316,44.708569,63.515167,43.580639,64.347198,42.828686L64.589386,42.909252C65.152863,48.763744,65.287628,55.558178,65.287628,61.815502C65.287628,63.453686,65.233917,65.06501,65.099151,66.246651C65.019073,67.723701,64.293487,68.851631,62.73587,70.570381L62.387238,70.382393ZM89.618683,56.55183C91.095245,57.67976,92.438019,59.022533,93.834503,60.580151C95.177277,62.057201,95.982941,63.373119,97.11087,64.796455C97.890167,65.816963,99.527863,66.48835,101.031769,66.48835L101.461456,66.48835L101.461456,69.92585L100.924347,69.92585C98.82962,69.92585,97.594269,69.09333,96.412628,67.428291L96.251495,67.482002C96.036651,69.523018,94.560089,71.537178,92.813995,71.537178C89.107941,71.537178,86.073761,67.831123,85.992706,63.211986C83.844269,64.877022,82.851105,66.327217,82.851105,67.401436C82.851105,68.556221,83.253448,70.382393,84.166534,73.255928C85.61673,77.767647,87.013214,82.198799,87.013214,83.568428C87.013214,84.830635,86.718292,86.388252,86.449737,87.516182L86.127472,87.516182C85.509308,84.669502,84.327667,81.258858,83.146026,78.036201C81.884308,74.571846,80.8638,71.376045,80.8638,69.415596C80.8638,68.314522,81.0513,67.294014,81.347198,66.139229C81.803253,64.232491,82.851105,62.567455,84.059113,61.520092C86.046417,59.747631,87.980011,58.082592,89.376495,56.55183L89.618683,56.55183ZM87.711456,62.24519C87.711456,64.044502,88.544464,65.521553,89.752472,66.595772C90.531769,67.294014,91.578644,67.91169,93.056183,67.91169C93.995636,67.91169,94.8013,67.482002,94.8013,66.918038C94.8013,66.434639,94.560089,65.736397,93.861847,64.823311C92.841339,63.480541,91.632355,62.057201,89.296417,60.257885C88.86673,60.687573,87.711456,61.466381,87.711456,62.24519ZM123.106964,58.431713C123.42923,60.445873,123.536652,62.084057,123.536652,63.211987C123.536652,64.420479,123.053253,65.951241,122.569855,66.891182C121.549347,68.583076,120.152863,69.845284,118.595245,69.845284C117.440948,69.845284,116.205597,68.985909,115.2388,67.61628L115.023956,67.61628C113.814972,68.932198,112.311066,69.92585,110.323761,69.92585C108.847198,69.92585,107.906769,69.227608,107.745636,67.643135L107.638214,67.643135C106.000519,69.549873,103.744659,69.92585,101.918487,69.92585L101.461456,69.92585C99.984894,69.92585,99.581573,68.851631,99.581573,68.126534C99.581573,67.482002,100.011261,66.48835,101.461456,66.48835L102.374542,66.48835C104.818878,66.461494,106.752472,65.843819,108.041534,63.990795L109.518097,61.869213L111.586456,61.144115L111.693878,61.278393C110.619659,62.997143,109.867706,64.339912,109.867706,65.145576C109.867706,65.978096,110.431183,66.48835,111.264191,66.48835C112.042511,66.48835,112.92923,66.219795,113.653839,65.709541C114.594269,65.011299,114.728058,64.23249,115.561066,61.439526L117.172394,60.499584L117.333526,60.607006C117.118683,61.466381,116.983917,62.486889,116.983917,63.238842C116.983917,65.279854,118.487823,66.327217,119.776886,66.327217C120.528839,66.327217,121.200714,65.924385,121.200714,65.118721C121.200714,64.071358,120.878448,62.352611,120.528839,60.768139C121.280792,59.881908,122.086456,59.076244,122.945831,58.351147L123.106964,58.431713ZM128.720245,70.382393C128.9888,68.690498,129.015167,66.78376,129.015167,65.011299L129.015167,62.379467C129.015167,57.464916,128.478058,50.321361,128.04837,45.675365C128.800324,44.708569,129.848175,43.580639,130.680206,42.828686L130.922394,42.909252C131.48587,48.763744,131.620636,55.558178,131.620636,61.815502C131.620636,63.453686,131.566925,65.06501,131.432159,66.246651C131.352081,67.723701,130.626495,68.851631,129.068878,70.570381L128.720245,70.382393Z" opacity="0" fill="rgb(2,185,185)" stroke="none" stroke-width="1"/><path id="eH7YyQeJNpr3" d="M19.140625,51.864819L19.140625,54.291576L14.235352,54.291576L14.577149,59.965405L9.399414,59.965405C7.519531,59.965405,6.109375,60.281811,5.168945,60.913647C4.229492,61.546459,3.759766,62.494701,3.759766,63.75935C3.759766,64.705147,4.149414,65.568428,4.929688,66.348213C5.709961,67.128975,6.693359,67.519112,7.87793,67.519112C8.561524,67.519112,9.160156,67.399483,9.672852,67.160225C9.433594,66.818428,9.313477,66.345772,9.313477,65.741768C9.313477,65.263252,9.546875,64.821846,10.014649,64.417549C10.481445,64.013252,11.050781,63.810619,11.723633,63.810619C12.691406,63.810619,13.486328,64.089912,14.107422,64.648018C14.728516,65.206612,15.039063,65.895576,15.039063,66.715889C15.039063,67.490791,14.458008,68.265694,13.295899,69.040108L16.508789,73.244209L14.679688,73.654366L11.552734,69.672432C11.074219,69.78669,10.595703,69.84333,10.117188,69.84333C8.726563,69.84333,7.384766,69.379463,6.091797,68.450752C4.798828,67.522041,3.819336,66.434151,3.152344,65.186104C2.486328,63.939037,2.15332,62.808178,2.15332,61.794018C2.15332,60.38142,2.679688,59.32185,3.733399,58.615307C4.787109,57.909252,6.556641,57.555737,9.040039,57.555737L12.082031,57.555737L12.082031,54.291576L0,54.291576L0,51.864819L19.140625,51.864819ZM11.295898,75.39753L10.698242,73.004952C11.0625,72.936592,11.581055,72.902412,12.25293,72.902412C13.791016,72.902412,15.070313,73.340889,16.089844,74.21833C17.109375,75.095284,17.619141,76.240303,17.619141,77.653389C17.619141,79.043037,17.129883,80.133858,16.149414,80.926338C15.169922,81.717842,13.876953,82.113838,12.270508,82.113838C10.573242,82.113838,8.864258,81.521065,7.143555,80.336494C5.422852,79.151436,3.868164,77.453682,2.477539,75.243721L3.554688,75.243721C4.682617,76.861397,5.987305,78.077705,7.467773,78.892159C8.949219,79.706612,10.612305,80.114327,12.458008,80.114327C13.871094,80.114327,14.927734,79.91169,15.628906,79.507393C16.329102,79.103096,16.679688,78.502022,16.679688,77.704659C16.679688,77.055244,16.291992,76.493721,15.517578,76.021065C14.743164,75.548408,13.802734,75.31208,12.697266,75.31208C12.116211,75.31208,11.649414,75.340401,11.295898,75.39753ZM39.630859,51.864819L39.630859,54.291576L34.435547,54.291576L34.435547,73.688545L34.077149,73.688545L31.75293,71.364326L31.75293,61.845287L26.21582,61.845287C25.40625,61.845287,24.914062,61.996654,24.737305,62.298412C24.560547,62.60017,24.472656,63.224193,24.472656,64.169502C24.472656,64.648018,24.511719,65.177803,24.591797,65.758858C24.625977,66.089424,24.643555,66.442451,24.643555,66.818428C24.643555,67.331123,24.426758,67.587471,23.994141,67.587471C23.481445,67.587471,22.714844,66.813057,21.695312,65.263252C20.675781,63.713939,20.166016,62.483471,20.166016,61.57185C20.166016,60.934154,20.375976,60.418529,20.797851,60.024975C21.219726,59.632397,21.708984,59.435619,22.267578,59.435619L31.75293,59.435619L31.75293,54.291576L18.644531,54.291576L18.644531,51.864818L39.630859,51.864818ZM50.807617,51.864819L50.807617,54.291576L45.629883,54.291576L45.629883,73.688545L44.860352,73.688545L42.946289,71.501045L42.946289,54.291576L39.135742,54.291576L39.135742,51.864819L43.527344,51.864819C42.137695,50.531811,41.442383,49.056713,41.442383,47.438549C41.442383,45.524487,42.433594,44.060619,44.416016,43.046459C45.988281,42.249096,47.828125,41.85017,49.936524,41.85017C53.251953,41.85017,56.279297,42.685131,59.019531,44.354076C61.759766,46.023022,64.206055,48.526928,66.359375,51.864819L65.197266,51.864819C63.021484,49.301342,60.697266,47.378491,58.224609,46.097241C55.751953,44.815014,53.137695,44.174389,50.380859,44.174389C48.295899,44.174389,46.734375,44.519116,45.698242,45.208569C44.661133,45.898022,44.142578,46.925854,44.142578,48.293041C44.142578,49.51228,44.501953,50.702709,45.219727,51.864819L50.807617,51.864819ZM71.811523,51.864819L71.811523,54.291576L66.616211,54.291576L66.616211,73.739815L66.256836,73.739815L63.932617,71.415596L63.932617,66.493721C62.907227,67.325752,61.614258,67.74128,60.053711,67.74128C58.925781,67.74128,57.771484,67.348213,56.592773,66.56208C55.413086,65.775948,53.821289,64.254952,51.816406,61.999096L51.816406,61.657299C53.59375,61.498119,54.926758,61.033764,55.81543,60.264233C56.704101,59.495678,57.148437,58.427319,57.148437,57.060131C57.148437,55.9781,56.749023,55.055248,55.952148,54.291576L50.3125,54.291576L50.3125,51.864819L71.811523,51.864819ZM63.932617,54.291576L56.977539,54.291576C58.606445,55.408276,59.420899,56.786694,59.420899,58.427319C59.420899,59.772045,59.001953,60.879467,58.165039,61.751537C57.327149,62.622631,56.071289,63.252514,54.396484,63.639721C55.205078,64.38044,55.96582,64.933174,56.677734,65.297432C57.389649,65.662178,58.05957,65.844307,58.686524,65.844307C59.825195,65.844307,60.871094,65.531319,61.822266,64.904366C62.773438,64.277901,63.363281,63.70808,63.59082,63.195385C63.81836,62.68269,63.932617,61.686108,63.932617,60.204662L63.932617,54.291576ZM82.988281,51.864819L82.988281,54.291576L77.80957,54.291576L77.80957,73.739815L77.177734,73.739815L75.126953,71.364327L75.126953,54.291576L71.31543,54.291576L71.31543,51.864819L82.988281,51.864819ZM116.056641,51.864819L116.056641,54.291576L105.871094,54.291576L105.871094,59.657787C106.498047,59.29353,107.226562,59.110912,108.058594,59.110912C109.47168,59.110912,110.755859,59.709057,111.912109,60.905346C113.068359,62.101635,113.647461,63.668529,113.647461,65.605049C113.647461,67.131905,113.168945,68.73835,112.211914,70.424385L110.297851,68.544502C111.368164,66.687569,111.904297,65.064033,111.904297,63.6739C111.904297,62.64851,111.701172,61.879467,111.296875,61.366772C110.892578,60.854076,110.291992,60.597729,109.49414,60.597729C108.354492,60.597729,107.147461,61.161693,105.871094,62.289623L105.871094,73.739815L105.1875,73.739815L103.188477,71.466865L103.188477,64.169502C101.626953,65.514229,100.146484,66.186104,98.745117,66.186104C97.34375,66.186104,96.226563,65.739326,95.395508,64.844307C94.563477,63.950268,94.147461,62.814037,94.147461,61.435131C94.147461,60.216381,94.532226,59.25642,95.300781,58.555248C96.070312,57.855053,96.967773,57.504467,97.993164,57.504467C99.952148,57.504467,101.68457,58.416088,103.188477,60.238842L103.188477,54.291576L92.216797,54.291576L92.216797,51.864818L116.056641,51.864818ZM103.188477,61.383862L103.188477,61.059155C102.310547,60.273022,101.188477,59.879955,99.821289,59.879955C98.408203,59.879955,97.311524,60.156323,96.53125,60.708569C95.750977,61.261791,95.361328,61.891186,95.361328,62.597241C95.361328,63.212475,95.563477,63.716381,95.967773,64.109932C96.37207,64.50251,96.927734,64.699288,97.633789,64.699288C98.944336,64.699287,100.795898,63.594311,103.188477,61.383862ZM127.233398,51.864819L127.233398,54.291576L122.055664,54.291576L122.055664,73.739815L121.422852,73.739815L119.37207,71.364327L119.37207,54.291576L115.561523,54.291576L115.561523,51.864819L127.233398,51.864819ZM157.448242,51.864819L157.448242,54.291576L152.25293,54.291576L152.25293,73.688545L151.894531,73.688545L149.570313,71.364326L149.570313,61.845287L144.033203,61.845287C143.223633,61.845287,142.731445,61.996654,142.554688,62.298412C142.37793,62.60017,142.290039,63.224193,142.290039,64.169502C142.290039,64.648018,142.329102,65.177803,142.40918,65.758858C142.443359,66.089424,142.460938,66.442451,142.460938,66.818428C142.460938,67.331123,142.244141,67.587471,141.811523,67.587471C141.298828,67.587471,140.532227,66.813057,139.512695,65.263252C138.493164,63.713939,137.983398,62.483471,137.983398,61.57185C137.983398,60.934154,138.193359,60.418529,138.615234,60.024975C139.037109,59.632397,139.526367,59.435619,140.084961,59.435619L149.570313,59.435619L149.570313,54.291576L136.461914,54.291576L136.461914,51.864818L157.448242,51.864818ZM168.625,51.864819L168.625,54.291576L163.447266,54.291576L163.447266,73.739815L162.814453,73.739815L160.763672,71.364327L160.763672,54.291576L156.953125,54.291576L156.953125,51.864819L168.625,51.864819ZM190.773438,51.864819L190.773438,54.291576L185.578125,54.291576L185.578125,73.739815L184.80957,73.739815L182.895508,71.501045L182.895508,64.613838L175.871094,64.613838L175.871094,67.519112C175.871094,68.202706,175.649414,68.544502,175.205078,68.544502C174.771484,68.544502,173.783203,67.715401,172.239258,66.058174C170.695313,64.399971,169.923828,63.292553,169.923828,62.733959C169.923828,62.380932,170.191406,62.204174,170.727539,62.204174L173.188476,62.204174L173.188476,54.291576L168.129883,54.291576L168.129883,51.864819L190.773438,51.864819ZM175.871094,62.204174L182.895508,62.204174L182.895508,54.291576L175.871094,54.291576L175.871094,62.204174Z" opacity="0" fill="rgb(2,185,185)" stroke="none" stroke-width="1"/><path id="eH7YyQeJNpr4" d="M28.022987,54.545506L22.013578,54.545506L22.013578,64.116623L11.563797,64.116623L11.563797,54.545506L7.076354,54.545506L7.076354,68.070595L26.344119,68.070595L26.344119,70.549675L7.076354,70.549675L7.076354,72.667877L4.534515,72.667877L4.534515,54.545506L0,54.545506L0,52.097809L4.534515,52.097809L4.534515,46.512039L7.076354,46.512039L7.076354,52.097809L11.563797,52.097809L11.563797,44.817482L14.105636,44.817482L14.105636,52.097809L19.471741,52.097809L19.471741,44.707649L21.919437,44.707649L21.919437,52.097809L28.022987,52.097809L28.022987,54.545506ZM19.471741,61.68462L19.471741,54.545506L14.105636,54.545506L14.105636,61.68462L19.471741,61.68462ZM60.957058,63.504704L59.356644,65.826874C55.695252,64.759934,53.080498,63.47332,51.511459,61.967049L51.511459,72.762016L49.063763,72.762016L49.063763,61.65324L51.150581,61.65324C49.979344,60.576141,49.157906,59.451973,48.687195,58.279812L44.1213,58.279812C42.479351,61.815682,38.870567,64.221848,33.294949,65.497376L31.820055,63.285038C36.109062,62.480213,39.3302,60.811497,41.485317,58.279812L36.636997,58.279812L36.636997,45.445095L56.014595,45.445095L56.014595,58.279812L51.354557,58.279812C53.2374,61.021011,56.438236,62.762642,60.957058,63.504704ZM44.576321,61.747383C44.628929,65.094971,43.907173,67.649727,42.411049,69.412582C40.914928,71.174522,38.55122,72.312531,35.319008,72.824776L33.969635,70.549675C36.888042,70.257095,38.983166,69.433815,40.254085,68.078903C41.525005,66.723999,42.138775,64.614105,42.097244,61.747383L44.576321,61.747383ZM45.109791,50.560154L45.109791,47.767269L39.069004,47.767269L39.069004,50.560154L45.109791,50.560154ZM45.109791,55.957638L45.109791,52.882328L39.069004,52.882328L39.069004,55.957638L45.109791,55.957638ZM53.566898,50.560154L53.566898,47.767269L47.557487,47.767269L47.557487,50.560154L53.566898,50.560154ZM53.566898,55.957638L53.566898,52.882328L47.557487,52.882328L47.557487,55.957638L53.566898,55.957638ZM88.854523,49.665802C88.854523,49.843933,88.439194,50.47432,87.607605,51.556953C86.776009,52.639587,85.719223,53.698227,84.438149,54.733791C83.156151,55.769352,81.699715,56.716312,80.067917,57.573746C78.436119,58.432102,76.631729,59.179699,74.654747,59.817467L88.666237,59.817467L88.666237,72.730637L86.218544,72.730637L86.218544,70.941933L74.168343,70.941933L74.168343,72.730637L71.72065,72.730637L71.72065,60.711819C68.875153,61.486183,67.003387,61.935665,66.1035,62.061188L64.016678,59.88023C69.320023,58.897274,73.530579,57.741726,76.647423,56.412659C75.946892,55.492466,74.723045,54.707947,72.975876,54.059105L75.250977,52.301784C76.84124,53.149063,78.033714,54.153248,78.828384,55.314335C81.537277,54.038799,83.828072,52.239021,85.70076,49.916847L76.129639,49.916847C73.776085,51.956596,70.936127,53.662231,67.609772,55.031906L65.067932,53.101994C71.093033,51.010559,75.49649,47.882641,78.279221,43.719154L80.491562,44.880241C80.031006,45.675835,79.367393,46.574802,78.498886,47.578983L88.854523,47.578983L88.854523,49.665802ZM86.218544,68.588379L86.218544,62.155331L74.168343,62.155331L74.168343,68.588379L86.218544,68.588379Z" opacity="0" fill="rgb(2,185,185)" stroke="none" stroke-width="1"/><path id="eH7YyQeJNpr5" d="M19.845703,70.852119L16.857422,70.852119L16.857422,55.084545L11.162109,70.852119L8.314453,70.852119L2.988281,55.084545L2.988281,70.852119L0,70.852119L0,52.201733L4.763672,52.201733L9.826172,67.143135L15.082031,52.201733L19.845703,52.201733L19.845703,70.852119ZM39.972656,70.852119L36.791016,70.852119L36.791016,56.701733L28.019531,70.852119L24.591797,70.852119L24.591797,52.201733L27.755859,52.201733L27.755859,66.422432L36.544922,52.201733L39.972656,52.201733L39.972656,70.852119ZM47.742188,54.609936C48.925781,52.723217,50.701172,51.779858,53.068359,51.779858C55.517578,51.779858,57.451172,52.667553,58.869141,54.442944C60.287109,56.218334,60.996094,58.529858,60.996094,61.377514C60.996094,64.412666,60.210938,66.823799,58.640625,68.610909C57.070312,70.398018,55.142578,71.291573,52.857422,71.291573C50.853516,71.291573,49.248047,70.494698,48.041016,68.900948L47.953125,68.900948L47.953125,78.023995L44.789063,78.023995L44.789063,52.201733L47.671875,52.201733L47.671875,54.609936L47.742188,54.609936ZM52.646484,68.69001C54.123047,68.69001,55.344727,68.077705,56.311524,66.853096C57.27832,65.628487,57.761719,63.803295,57.761719,61.377514C57.761719,59.092358,57.295899,57.334545,56.364258,56.104076C55.432617,54.873608,54.240235,54.258373,52.78711,54.258373C51.28711,54.258373,50.053711,54.94392,49.086914,56.315014C48.120117,57.686108,47.636719,59.461498,47.636719,61.641186C47.636719,63.94978,48.09961,65.701729,49.025391,66.897041C49.951172,68.092354,51.158203,68.69001,52.646484,68.69001ZM72.369141,51.779858C74.888672,51.779858,76.977539,52.60017,78.635742,54.240795C80.293945,55.88142,81.123047,58.213451,81.123047,61.236889C81.123047,64.904854,80.226562,67.497627,78.433594,69.015205C76.640625,70.532784,74.619141,71.291573,72.369141,71.291573C70.013672,71.291573,67.96875,70.512276,66.234375,68.953682C64.5,67.395088,63.632813,64.922432,63.632813,61.535717C63.632813,58.254467,64.470703,55.808178,66.146485,54.19685C67.822266,52.585522,69.896484,51.779858,72.369141,51.779858ZM72.369141,68.69001C74.173828,68.69001,75.544922,68.022041,76.482422,66.686104C77.419922,65.350166,77.888672,63.592358,77.888672,61.41267C77.888672,59.080639,77.358398,57.322826,76.297852,56.139233C75.237305,54.955639,73.927734,54.363842,72.369141,54.363842C70.763672,54.363842,69.445313,54.964428,68.414063,56.1656C67.382813,57.366772,66.867188,59.156811,66.867188,61.535717C66.867188,63.902905,67.391602,65.68708,68.44043,66.888252C69.489258,68.089424,70.798828,68.69001,72.369141,68.69001ZM97.048828,61.13142C98.021484,61.50642,98.774414,62.089428,99.307617,62.880444C99.84082,63.671459,100.107422,64.588448,100.107422,65.631416C100.107422,67.225166,99.533203,68.493721,98.384766,69.43708C97.236328,70.38044,95.648438,70.852119,93.621094,70.852119L84.761719,70.852119L84.761719,52.201733L92.460938,52.201733C95.050781,52.201733,96.834961,52.705639,97.813477,53.713451C98.791992,54.721264,99.28125,55.863842,99.28125,57.141186C99.28125,58.863842,98.537109,60.19392,97.048828,61.13142ZM87.925781,60.023998L91.705078,60.023998C94.587891,60.023998,96.029297,59.156811,96.029297,57.422436C96.029297,56.426342,95.671875,55.746655,94.957031,55.383373C94.242188,55.020092,93.199219,54.838451,91.828125,54.838451L87.925781,54.838451L87.925781,60.023998ZM87.925781,68.215401L92.496094,68.215401C95.402344,68.215401,96.855469,67.295479,96.855469,65.455635C96.855469,64.857979,96.665039,64.313057,96.28418,63.820873C95.90332,63.328686,95.399414,63.00935,94.772461,62.862866C94.145508,62.716381,93.292969,62.643139,92.214844,62.643139L87.925781,62.643139L87.925781,68.215401ZM111.498047,51.779858C114.017578,51.779858,116.106445,52.60017,117.764649,54.240795C119.422852,55.88142,120.251953,58.213451,120.251953,61.236889C120.251953,64.904854,119.355469,67.497627,117.5625,69.015205C115.769531,70.532784,113.748047,71.291573,111.498047,71.291573C109.142578,71.291573,107.097656,70.512276,105.363281,68.953682C103.628906,67.395088,102.761719,64.922432,102.761719,61.535717C102.761719,58.254467,103.59961,55.808178,105.275391,54.19685C106.951172,52.585522,109.025391,51.779858,111.498047,51.779858ZM111.498047,68.69001C113.302734,68.69001,114.673828,68.022041,115.611328,66.686104C116.548828,65.350166,117.017578,63.592358,117.017578,61.41267C117.017578,59.080639,116.487305,57.322826,115.426758,56.139233C114.366211,54.955639,113.056641,54.363842,111.498047,54.363842C109.892578,54.363842,108.574219,54.964428,107.542969,56.1656C106.511719,57.366772,105.996094,59.156811,105.996094,61.535717C105.996094,63.902905,106.520508,65.68708,107.569336,66.888252C108.618164,68.089424,109.927734,68.69001,111.498047,68.69001ZM140.132813,62.326733L126.158203,62.326733C126.287109,64.389229,126.875977,65.965401,127.924805,67.055244C128.973633,68.145088,130.283203,68.69001,131.853516,68.69001C133.060547,68.69001,134.074219,68.370674,134.894531,67.732002C135.714844,67.09333,136.341797,66.129463,136.775391,64.840401L140.027344,65.244697C139.5,67.19001,138.533203,68.684151,137.126953,69.727119C135.720703,70.770088,133.962891,71.291572,131.853516,71.291572C129.052734,71.291572,126.864258,70.433174,125.288086,68.716377C123.711914,66.99958,122.923828,64.652901,122.923828,61.676342C122.923828,58.734936,123.688477,56.35017,125.217773,54.522045C126.74707,52.69392,128.900391,51.779858,131.677734,51.779858C133.037109,51.779858,134.34668,52.078686,135.606445,52.676342C136.866211,53.273998,137.935547,54.2906,138.814453,55.726147C139.693359,57.161694,140.132813,59.361889,140.132813,62.326733ZM136.880859,59.72517C136.751953,57.826733,136.163086,56.458569,135.114258,55.620678C134.06543,54.782787,132.919922,54.363842,131.677734,54.363842C130.189453,54.363842,128.964844,54.861889,128.003906,55.857983C127.042969,56.854076,126.486328,58.143139,126.333984,59.72517L136.880859,59.72517ZM169.294922,70.852119L166.113281,70.852119L166.113281,56.701733L157.341797,70.852119L153.914063,70.852119L153.914063,52.201733L157.078125,52.201733L157.078125,66.422432L165.867188,52.201733L169.294922,52.201733L169.294922,70.852119ZM193.886719,70.852119L190.898438,70.852119L190.898438,55.084545L185.203125,70.852119L182.355469,70.852119L177.029297,55.084545L177.029297,70.852119L174.041016,70.852119L174.041016,52.201733L178.804688,52.201733L183.867188,67.143135L189.123047,52.201733L193.886719,52.201733L193.886719,70.852119ZM213.363281,70.852119L210.199219,70.852119L210.199219,63.57478L207.773438,63.57478C206.742188,63.57478,205.957031,63.835522,205.417969,64.357002C204.878906,64.878487,204.480469,65.326729,204.222656,65.701729L200.759766,70.852119L196.839844,70.852119C199.183594,67.383369,200.507813,65.435127,200.8125,65.007393C201.117187,64.579658,201.483398,64.213448,201.911133,63.908764C202.338867,63.604076,202.816406,63.375561,203.34375,63.223217C201.609375,62.941967,200.288086,62.315014,199.379883,61.342358C198.47168,60.369701,198.017578,59.133373,198.017578,57.633373C198.017578,55.981029,198.600586,54.66267,199.766601,53.678295C200.932617,52.69392,202.582031,52.201733,204.714844,52.201733L213.363281,52.201733L213.363281,70.852119ZM210.199219,60.955639L210.199219,54.838451L205.119141,54.838451C202.552735,54.838451,201.269531,55.811108,201.269531,57.75642C201.269531,59.889233,202.851563,60.955639,206.015625,60.955639L210.199219,60.955639Z" opacity="0" fill="rgb(2,185,185)" stroke="none" stroke-width="1"/><path id="eH7YyQeJNpr6" d="M21.963867,55.626537L17.630859,55.626537L17.630859,70.78376L14.625977,70.78376L14.625977,55.626537L7.321289,55.626537L7.321289,70.78376L4.333008,70.78376L4.333008,55.626537L0,55.626537L0,53.169506L21.963867,53.169506L21.963867,55.626537ZM40.905762,70.78376L37.917481,70.78376C37.375488,69.378487,37.020996,68.299385,36.854981,67.546455C36.068848,69.051827,35.203613,70.03669,34.257324,70.501534C33.311035,70.966377,32.250488,71.198799,31.077637,71.198799C28.886231,71.198799,27.109863,70.37458,25.749023,68.725166C24.387695,67.07624,23.707031,64.818428,23.707031,61.951733C23.707031,58.952709,24.404297,56.672436,25.798828,55.111889C27.192871,53.551342,28.963379,52.771068,31.11084,52.771068C33.611816,52.771068,35.560059,53.889233,36.95459,56.124584C37.242676,55.028881,37.541504,54.044018,37.851074,53.169506L40.905762,53.169506C40.606934,54.110424,40.316895,55.103588,40.034668,56.149486C39.752441,57.195385,39.470215,58.418529,39.187988,59.818432C38.905762,61.218822,38.76416,61.94099,38.76416,61.984936C38.76416,62.128979,38.927246,62.99519,39.254395,64.583076C39.580566,66.171455,39.868652,67.424873,40.117676,68.34333C40.366699,69.262276,40.629395,70.075752,40.905762,70.78376ZM31.492676,68.741768C32.897949,68.741768,34.046387,68.125069,34.937988,66.890694C35.828613,65.656807,36.273926,63.960522,36.273926,61.802319C36.273926,59.666576,35.839356,58.033764,34.971191,56.904858C34.102051,55.775952,32.986816,55.211498,31.625488,55.211498C30.064941,55.211498,28.86377,55.820385,28.022949,57.03767C27.182129,58.255444,26.76123,59.9156,26.76123,62.018139C26.76123,63.921948,27.168457,65.518624,27.981934,66.807686C28.79541,68.097237,29.965332,68.741768,31.492676,68.741768ZM58.686035,53.169506L52.095215,70.78376L52.095215,77.557198L49.106934,77.557198L49.106934,70.78376L42.549316,53.169506L45.67041,53.169506L50.601074,67.048408L55.664551,53.169506L58.686035,53.169506ZM76.067871,70.78376L72.266113,70.78376L65.393066,62.482983L64.297363,63.51228L64.297363,70.78376L61.309082,70.78376L61.309082,53.169506L64.297363,53.169506L64.297363,60.075756L71.436035,53.169506L75.387207,53.169506L67.501465,60.474194L76.067871,70.78376ZM85.480957,52.771069C87.86084,52.771069,89.833496,53.545971,91.399902,55.095287C92.965332,56.645092,93.748535,58.847241,93.748535,61.702709C93.748535,65.167061,92.901855,67.615791,91.208496,69.048897C89.515137,70.482491,87.605957,71.198799,85.480957,71.198799C83.256348,71.198799,81.324707,70.462959,79.687012,68.990791C78.049316,67.519112,77.22998,65.183662,77.22998,61.984936C77.22998,58.886303,78.020996,56.575756,79.604004,55.053783C81.187012,53.532299,83.145996,52.771069,85.480957,52.771069ZM85.480957,68.741768C87.185059,68.741768,88.47998,68.110909,89.365723,66.84919C90.251465,65.587471,90.693848,63.927319,90.693848,61.868725C90.693848,59.666577,90.192871,58.00642,89.191895,56.888256C88.189941,55.77058,86.952637,55.211498,85.480957,55.211498C83.964355,55.211498,82.719238,55.778881,81.745605,56.913159C80.771973,58.047924,80.284668,59.738354,80.284668,61.984936C80.284668,64.220772,80.779785,65.90583,81.770996,67.040108C82.761231,68.174873,83.997559,68.741768,85.480957,68.741768ZM88.286621,45.765209L86.178223,50.380444L84.23584,50.380444L85.231934,45.765209L88.286621,45.765209ZM115.247559,55.111889C113.67627,55.267162,112.425293,55.344311,111.495606,55.344311C112.27002,57.14851,112.657715,59.361889,112.657715,61.984936C112.657715,64.973213,111.880371,67.255928,110.325684,68.833076C108.77002,70.410225,106.780762,71.198799,104.356934,71.198799C101.933106,71.198799,99.95752,70.401924,98.430176,68.808174C96.902832,67.214424,96.13916,64.94001,96.13916,61.984936C96.13916,58.996655,96.913574,56.71394,98.463379,55.136791C100.013184,53.559643,101.977051,52.771069,104.356934,52.771069L110.001465,52.903881C111.86084,52.903881,113.609863,52.810131,115.247559,52.621655L115.247559,55.111889ZM109.603027,61.984936C109.603027,59.207104,109.171387,56.993725,108.308105,55.344311L104.390137,55.211498C102.873535,55.211498,101.628418,55.815014,100.654785,57.021069C99.681152,58.227612,99.193847,59.882397,99.193847,61.984936C99.193847,64.076729,99.681152,65.726143,100.654785,66.932198C101.628418,68.138741,102.873535,68.741768,104.390137,68.741768C105.906738,68.741768,107.154785,68.135811,108.134277,66.923897C109.113769,65.711983,109.603027,64.065987,109.603027,61.984936ZM132.546387,70.78376L129.873535,70.78376L129.873535,68.193916L129.790527,68.193916C129.070801,69.19001,128.343262,69.94001,127.60791,70.443428C126.871582,70.946846,126.038574,71.198799,125.108887,71.198799C124.355957,71.198799,123.620606,71.002022,122.900879,70.609444C122.181152,70.216865,121.622559,69.710518,121.224121,69.090401L121.224121,77.557198L118.23584,77.557198L118.23584,53.169506L121.224121,53.169506L121.224121,63.678295C121.224121,65.305245,121.492676,66.53376,122.029785,67.363838C122.565918,68.193916,123.515137,68.608956,124.876465,68.608956C126.215332,68.608956,127.330567,68.149971,128.222168,67.231026C129.112793,66.312569,129.558106,64.967842,129.558106,63.19685L129.558106,53.169506L132.546387,53.169506L132.546387,70.78376ZM140.066895,70.78376L137.078613,70.78376L137.078613,53.169506L140.066895,53.169506L140.066895,70.78376ZM151.804199,52.771069C154.184082,52.771069,156.156738,53.545971,157.723145,55.095287C159.288574,56.645092,160.071777,58.847241,160.071777,61.702709C160.071777,65.167061,159.225098,67.615791,157.531738,69.048897C155.838379,70.482491,153.929199,71.198799,151.804199,71.198799C149.57959,71.198799,147.647949,70.462959,146.010254,68.990791C144.372559,67.519112,143.553223,65.183662,143.553223,61.984936C143.553223,58.886303,144.344238,56.575756,145.927246,55.053783C147.510254,53.532299,149.469238,52.771069,151.804199,52.771069ZM151.804199,68.741768C153.508301,68.741768,154.803223,68.110909,155.688965,66.84919C156.574707,65.587471,157.01709,63.927319,157.01709,61.868725C157.01709,59.666577,156.516113,58.00642,155.515137,56.888256C154.513184,55.77058,153.275879,55.211498,151.804199,55.211498C150.287598,55.211498,149.04248,55.778881,148.068848,56.913159C147.095215,58.047924,146.60791,59.738354,146.60791,61.984936C146.60791,64.220772,147.103027,65.90583,148.094238,67.040108C149.084473,68.174873,150.320801,68.741768,151.804199,68.741768ZM180.159668,52.771069C182.539551,52.771069,184.512207,53.545971,186.078613,55.095287C187.644043,56.645092,188.427246,58.847241,188.427246,61.702709C188.427246,65.167061,187.580566,67.615791,185.887207,69.048897C184.193848,70.482491,182.284668,71.198799,180.159668,71.198799C177.935059,71.198799,176.003418,70.462959,174.365723,68.990791C172.728027,67.519112,171.908691,65.183662,171.908691,61.984936C171.908691,58.886303,172.699707,56.575756,174.282715,55.053783C175.865723,53.532299,177.824707,52.771069,180.159668,52.771069ZM180.159668,68.741768C181.86377,68.741768,183.158691,68.110909,184.044434,66.84919C184.930176,65.587471,185.372559,63.927319,185.372559,61.868725C185.372559,59.666577,184.871582,58.00642,183.870606,56.888256C182.868652,55.77058,181.631348,55.211498,180.159668,55.211498C178.643066,55.211498,177.397949,55.778881,176.424316,56.913159C175.450684,58.047924,174.963379,59.738354,174.963379,61.984936C174.963379,64.220772,175.458496,65.90583,176.449707,67.040108C177.439941,68.174873,178.67627,68.741768,180.159668,68.741768ZM182.965332,45.765209L180.856934,50.380444L178.914551,50.380444L179.910645,45.765209L182.965332,45.765209ZM206.20752,53.169506L199.550293,70.78376L196.76123,70.78376L190.070801,53.169506L193.225098,53.169506L196.86084,63.362865C197.547363,65.288643,197.956543,66.594795,198.089355,67.28083L198.155762,67.28083C198.332519,66.572823,198.637207,65.620674,199.068847,64.425362L203.152832,53.169506L206.20752,53.169506ZM216.068848,52.771069C218.44873,52.771069,220.422363,53.545971,221.98877,55.095287C223.553223,56.645092,224.336426,58.847241,224.336426,61.702709C224.336426,65.167061,223.490723,67.615791,221.797363,69.048897C220.104004,70.482491,218.193848,71.198799,216.068848,71.198799C213.844238,71.198799,211.912598,70.462959,210.274902,68.990791C208.637207,67.519112,207.817871,65.183662,207.817871,61.984936C207.817871,58.886303,208.608887,56.575756,210.191895,55.053783C211.774902,53.532299,213.733887,52.771069,216.068848,52.771069ZM216.068848,68.741768C217.772949,68.741768,219.067871,68.110909,219.953613,66.84919C220.840332,65.587471,221.281738,63.927319,221.281738,61.868725C221.281738,59.666577,220.781738,58.00642,219.779785,56.888256C218.777832,55.77058,217.540527,55.211498,216.068848,55.211498C214.552246,55.211498,213.307129,55.778881,212.333496,56.913159C211.359863,58.047924,210.872559,59.738354,210.872559,61.984936C210.872559,64.220772,211.367676,65.90583,212.358887,67.040108C213.349121,68.174873,214.585449,68.741768,216.068848,68.741768ZM242.083496,70.78376L239.410645,70.78376L239.410645,68.193916L239.327637,68.193916C238.60791,69.19001,237.880371,69.94001,237.14502,70.443428C236.408691,70.946846,235.575684,71.198799,234.645996,71.198799C233.893066,71.198799,233.157715,71.002022,232.437988,70.609444C231.718262,70.216865,231.159668,69.710518,230.761231,69.090401L230.761231,77.557198L227.772949,77.557198L227.772949,53.169506L230.761231,53.169506L230.761231,63.678295C230.761231,65.305245,231.029785,66.53376,231.566895,67.363838C232.103027,68.193916,233.052246,68.608956,234.413574,68.608956C235.752442,68.608956,236.867676,68.149971,237.758301,67.231026C238.649903,66.312569,239.095215,64.967842,239.095215,63.19685L239.095215,53.169506L242.083496,53.169506L242.083496,70.78376ZM262.73584,70.78376L259.747559,70.78376C259.205566,69.378487,258.851074,68.299385,258.685059,67.546455C257.898926,69.051827,257.032715,70.03669,256.087402,70.501534C255.140137,70.966377,254.080566,71.198799,252.907715,71.198799C250.716309,71.198799,248.939941,70.37458,247.578613,68.725166C246.217285,67.07624,245.536621,64.818428,245.536621,61.951733C245.536621,58.952709,246.233887,56.672436,247.628418,55.111889C249.022949,53.551342,250.793457,52.771068,252.940918,52.771068C255.441895,52.771068,257.390137,53.889233,258.784668,56.124584C259.072754,55.028881,259.371582,54.044018,259.681152,53.169506L262.73584,53.169506C262.437012,54.110424,262.145996,55.103588,261.864746,56.149486C261.581543,57.195385,261.300293,58.418529,261.01709,59.818432C260.73584,61.218822,260.594238,61.94099,260.594238,61.984936C260.594238,62.128979,260.757324,62.99519,261.083496,64.583076C261.410645,66.171455,261.698731,67.424873,261.946777,68.34333C262.196777,69.262276,262.459473,70.075752,262.73584,70.78376ZM253.322754,68.741768C254.728027,68.741768,255.876465,68.125069,256.76709,66.890694C257.658691,65.656807,258.104004,63.960522,258.104004,61.802319C258.104004,59.666576,257.669434,58.033764,256.800293,56.904858C255.932129,55.775952,254.816895,55.211498,253.455566,55.211498C251.89502,55.211498,250.693848,55.820385,249.853027,57.03767C249.012207,58.255444,248.591309,59.9156,248.591309,62.018139C248.591309,63.921948,248.997559,65.518624,249.812012,66.807686C250.624512,68.097237,251.79541,68.741768,253.322754,68.741768Z" opacity="0" fill="rgb(2,185,185)" stroke="none" stroke-width="1"/><path id="eH7YyQeJNpr7" d="M8.117188,61.984448L5.246094,61.984448L5.246094,58.686108C5.246094,57.535717,5.046875,56.723705,4.648438,56.251049C4.249024,55.778393,3.537109,55.541576,2.511719,55.541576C1.975586,55.541576,1.298828,55.667065,0.478516,55.917553L0,52.807201C0.865234,52.579662,1.936523,52.465405,3.212891,52.465405C6.482422,52.465405,8.117188,54.385326,8.117188,58.224682L8.117188,61.984448ZM28.198242,71.007881L19.448242,71.007881L19.448242,67.931709L25.327148,67.931709L25.327148,61.215404C25.327148,59.187572,24.976563,57.734936,24.275391,56.857494C23.575195,55.980541,22.541016,55.541576,21.173828,55.541576C19.704101,55.541576,18.55957,56.01765,17.739258,56.968822C16.918945,57.919994,16.320312,59.375561,15.944336,61.335033L14.132812,71.007881L11.193359,71.007881L13.34668,60.138744C13.459961,59.580639,13.591797,59.073803,13.739258,58.617748L10.834961,52.875561L14.098633,52.875561L15.329102,55.319408C16.775391,53.417064,18.78125,52.465404,21.344727,52.465404C23.645508,52.465404,25.363281,53.134838,26.49707,54.473705C27.630859,55.812572,28.198242,58.082592,28.198242,61.283764L28.198242,71.007881ZM33.923828,52.875561L38.401367,52.875561C40.577148,52.875561,42.246094,53.385815,43.408203,54.405346C44.570312,55.424877,45.152344,56.806225,45.152344,58.549389C45.152344,61.022045,44.348633,63.289135,42.742188,65.351143C41.135742,67.413643,38.532227,69.441475,34.931641,71.435127L33.359375,68.769112C36.435547,67.162667,38.691406,65.539131,40.126953,63.89851C41.5625,62.257885,42.28125,60.50935,42.28125,58.651928C42.28125,56.852123,40.987305,55.951733,38.401367,55.951733L31.052734,55.951733L31.052734,45.954174L33.923828,45.954174L33.923828,52.875561ZM54.808594,71.007881L51.9375,71.007881L51.9375,58.686108C51.9375,57.535717,51.738281,56.723705,51.339844,56.251049C50.94043,55.778393,50.228516,55.541576,49.203125,55.541576C48.666992,55.541576,47.990234,55.667065,47.169922,55.917553L46.691406,52.807201C47.556641,52.579662,48.62793,52.465404,49.904297,52.465404C53.173828,52.465404,54.808594,54.385326,54.808594,58.224682L54.808594,71.007881ZM74.086914,52.875561C74.086914,59.57478,72.585938,64.750557,69.583984,68.401436C66.581055,72.052803,62.705078,73.878975,57.954102,73.878975L57.612305,70.802803C59.571289,70.802803,61.388672,70.438545,63.064453,69.709053L58.125,52.875561L61.166992,52.875561L65.576172,68.170967C69.335938,65.311592,71.21582,60.212963,71.21582,52.875561L74.086914,52.875561ZM102.457031,71.007881L86.5625,71.007881L86.5625,52.875561L93.433594,52.875561C96.657227,52.875561,98.966797,53.502514,100.363281,54.755444C101.758789,56.008862,102.457031,58.241772,102.457031,61.454662L102.457031,71.007881ZM99.585938,67.931709L99.585938,61.557201C99.585938,59.392651,99.126953,57.917065,98.209961,57.130932C97.291992,56.344799,95.689453,55.951733,93.398438,55.951733L89.433594,55.951733L89.433594,67.931709L99.585938,67.931709ZM127.733398,52.875561C126.50293,59.597729,124.859375,64.371651,122.802734,67.196846C120.746094,70.02253,117.821289,71.435127,114.027344,71.435127C111.166992,71.435127,108.711914,71.09333,106.661133,70.409737L106.661133,52.875561L109.532227,52.875561L109.532227,62.360424C110.671875,62.360424,111.631836,62.118725,112.412109,61.633862C113.192383,61.149975,113.878906,60.227123,114.47168,58.865307C115.063477,57.504467,115.599609,55.507397,116.078125,52.875561L118.983398,52.875561C118.344727,56.327709,117.595703,58.922924,116.736328,60.660229C115.875977,62.397534,114.881836,63.565502,113.753906,64.163155C112.625977,64.761788,111.21875,65.060616,109.532227,65.060616L109.532227,67.86335C110.466797,68.182686,112.021484,68.341866,114.198242,68.341866C117.000977,68.341866,119.210937,67.134346,120.829102,64.718819C122.446289,62.303783,123.779297,58.356029,124.828125,52.875561L127.733398,52.875561Z" transform="matrix(1 0 0 1 1 0)" opacity="0" fill="rgb(2,185,185)" stroke="none" stroke-width="1"/><path id="eH7YyQeJNpr8" d="M15.240234,63.332104C15.240234,68.810616,12.789063,71.549873,7.885742,71.549873C2.628906,71.549873,0,68.6446,0,62.834057C0,57.067944,2.540039,54.184643,7.620117,54.184643C9.789063,54.184643,11.25,54.876537,12.00293,56.259838L12.334961,56.259838L12.334961,51.976635C12.334961,49.353588,10.763672,48.042065,7.620117,48.042065C5.052734,48.053295,3.768555,48.899975,3.768555,50.582104L3.768555,51.611401L0.664063,51.611401L0.664063,50.582104C0.664063,47.328198,2.982422,45.701244,7.620117,45.701244C12.700195,45.701244,15.240234,47.793041,15.240234,51.976635L15.240234,63.332104ZM12.119141,63.332104C12.119141,58.827709,10.619141,56.575268,7.620117,56.575268C4.621094,56.575268,3.121094,58.650463,3.121094,62.800854C3.110352,67.028877,4.6875,69.142647,7.852539,69.142647C10.697266,69.142647,12.119141,67.206123,12.119141,63.332104ZM35.013672,63.000073C35.013672,68.700264,32.517578,71.549873,27.526367,71.549873C22.379883,71.549873,19.806641,68.700264,19.806641,63.000072L19.806641,46.298901L22.828125,46.298901L22.828125,63.000073C22.828125,67.095284,24.394531,69.142647,27.526367,69.142647C30.458984,69.142647,31.925781,67.095283,31.925781,63.000072C31.925781,61.063549,31.175781,59.649487,29.676758,58.758373C28.176758,57.867748,27.426758,56.852123,27.426758,55.711987C27.426758,54.074291,28.566406,52.563549,30.84668,51.17976L32.291016,53.238354C30.719727,53.858471,29.933594,54.494701,29.933594,55.147533C29.933594,55.889233,30.780273,56.780346,32.473633,57.820385C34.166992,58.860912,35.013672,60.587475,35.013672,63.000073ZM56.512695,64.012764C56.512695,66.625069,55.472656,69.137276,53.391602,71.549873L50.419922,71.549873C52.401367,69.424873,53.391602,67.216866,53.391602,64.92585L53.391602,60.260815C53.391602,57.88142,52.544922,56.697338,50.851562,56.70808L49.606445,56.70808C48.898437,56.70808,48.543945,57.853588,48.543945,60.144604L48.543945,64.743233L45.887695,64.743233L45.887695,60.144604C45.887695,57.853588,45.522461,56.70808,44.791992,56.70808L43.513672,56.70808C41.875977,56.70808,41.056641,57.969799,41.056641,60.493237L41.056641,64.809639C41.03418,67.178291,42.146484,69.424873,44.393555,71.549873L41.172852,71.549873C38.970703,69.059639,37.869141,66.508858,37.869141,63.896557L37.869141,62.203198C37.869141,56.979565,39.966797,54.36726,44.161133,54.36726C45.3125,54.36726,46.291992,54.942944,47.09961,56.093823L47.381836,56.093823C48.15625,54.942944,49.075196,54.36726,50.137696,54.36726C54.387696,54.36726,56.512696,56.990307,56.512696,62.236401L56.512696,64.012764ZM76.352539,72.562569C76.352539,76.590889,73.806641,78.605538,68.71582,78.605538L67.786133,78.605538C63.027344,78.605538,60.647461,76.452706,60.647461,72.14753L63.685547,72.14753C63.685547,74.880928,65.063477,76.248116,67.819336,76.248116L68.599609,76.248116C71.676758,76.248116,73.214844,75.0196,73.214844,72.562569L73.214844,70.885811C73.214844,69.048897,72.899414,68.119209,72.268555,68.096748L70.94043,68.096748L70.94043,65.589912L72.268555,65.589912C72.866211,65.57917,73.165039,64.754463,73.165039,63.116283L73.165039,60.094799C73.165039,57.836987,72.611328,56.70808,71.504883,56.70808L70.126953,56.70808C69.473633,56.70808,69.147461,57.388744,69.147461,58.750072L69.147461,62.103588C69.147461,67.416084,67.365234,70.072334,63.801758,70.072334C59.707031,70.083565,57.65918,67.825752,57.65918,63.298901L57.65918,61.173901C57.65918,56.636303,59.734375,54.36726,63.884766,54.36726C65.412109,54.36726,66.546875,54.915112,67.288086,56.010815L67.570313,56.010815C68.632813,54.915112,69.933594,54.36726,71.47168,54.36726C74.692383,54.36726,76.302734,56.597729,76.302734,61.05769C76.302734,63.83601,75.428711,65.689522,73.679688,66.619209L73.679688,66.95124C75.461914,67.958565,76.352539,69.248115,76.352539,70.819405L76.352539,72.562569ZM66.341797,59.480541C66.341797,57.632397,65.821289,56.70808,64.78125,56.70808L63.50293,56.70808C61.709961,56.70808,60.813477,58.158276,60.813477,61.05769L60.813477,63.049877C60.813477,66.336983,61.787109,67.980537,63.735352,67.980537C65.472656,67.980537,66.341797,66.536202,66.341797,63.647533L66.341797,59.480541ZM86.829102,56.542065C83.785156,56.542065,82.263672,58.329662,82.263672,61.904369C82.263672,66.586006,83.943359,70.208077,87.301758,72.770088C90.661133,75.3321,92.34082,77.277412,92.34082,78.605537L89.186523,78.605537C88.788086,76.657295,87.666992,75.464912,85.825195,75.027901C83.981445,74.590401,82.540039,74.947334,81.5,76.098702L80.22168,74.521553C80.908203,73.514229,81.871094,72.938545,83.110352,72.794991L83.326172,72.562569C80.570313,69.673897,79.192383,66.093819,79.192383,61.821362C79.192383,56.741284,81.738281,54.201244,86.829102,54.201244C91.853516,54.201244,94.366211,56.80769,94.366211,62.02058C94.366211,63.138744,94.040039,64.198311,93.386719,65.199776C92.733399,66.201729,92.517578,67.565498,92.739258,69.292061L90.09961,69.308663C89.87793,67.571358,90.022461,66.237373,90.53125,65.307686C91.040039,64.377998,91.294922,63.265698,91.294922,61.970776C91.294922,58.351635,89.806641,56.542065,86.829102,56.542065ZM114.155273,62.468823C114.155273,66.309639,112.827148,69.336495,110.170898,71.549873L107.74707,71.549873C109.97168,68.672432,111.078125,65.645576,111.067383,62.468822C111.067383,58.540112,109.628906,56.575268,106.750977,56.575268C103.629883,56.575268,102.069336,58.52351,102.069336,62.419018C102.069336,65.540108,103.165039,68.584053,105.356445,71.549873L102.899414,71.549873C100.265625,69.258858,98.958985,66.198799,98.981445,62.369213C98.958985,56.923901,101.527344,54.201244,106.68457,54.201244C111.675781,54.201244,114.166016,56.957104,114.155273,62.468823ZM135.671875,64.012764C135.671875,66.625069,134.631836,69.137276,132.550781,71.549873L129.579101,71.549873C131.560547,69.424873,132.550781,67.216866,132.550781,64.92585L132.550781,60.260815C132.550781,57.88142,131.704101,56.697338,130.010742,56.70808L128.765625,56.70808C128.057617,56.70808,127.703125,57.853588,127.703125,60.144604L127.703125,64.743233L125.046875,64.743233L125.046875,60.144604C125.046875,57.853588,124.68164,56.70808,123.951172,56.70808L122.672851,56.70808C121.035156,56.70808,120.21582,57.969799,120.21582,60.493237L120.21582,64.809639C120.193359,67.178291,121.305664,69.424873,123.552734,71.549873L120.332031,71.549873C118.129883,69.059639,117.02832,66.508858,117.02832,63.896557L117.02832,62.203198C117.02832,56.979565,119.125977,54.36726,123.320313,54.36726C124.47168,54.36726,125.451172,54.942944,126.258789,56.093823L126.541016,56.093823C127.31543,54.942944,128.234375,54.36726,129.296875,54.36726C133.546875,54.36726,135.671875,56.990307,135.671875,62.236401L135.671875,64.012764ZM166.741211,63.000073C166.741211,68.700264,164.245117,71.549873,159.253906,71.549873C154.107422,71.549873,151.53418,68.700264,151.53418,63.000072L151.53418,46.298901L154.555664,46.298901L154.555664,63.000073C154.555664,67.095284,156.12207,69.142647,159.253906,69.142647C162.186523,69.142647,163.65332,67.095283,163.65332,63.000072C163.65332,61.063549,162.90332,59.649487,161.404297,58.758373C159.904297,57.867748,159.154297,56.852123,159.154297,55.711987C159.154297,54.074291,160.293945,52.563549,162.574219,51.17976L164.018555,53.238354C162.447266,53.858471,161.661133,54.494701,161.661133,55.147533C161.661133,55.889233,162.507813,56.780346,164.201172,57.820385C165.894531,58.860912,166.741211,60.587475,166.741211,63.000073ZM185.170898,63.332104C185.160156,68.810616,182.591797,71.549873,177.467773,71.549873C172.476563,71.549873,169.980469,69.021065,169.980469,63.962963C169.980469,62.800854,170.422851,61.677807,171.308594,60.592846L174.462891,60.592846C173.522461,61.688549,173.051758,62.717846,173.051758,63.680737C173.051758,67.322334,174.551758,69.142647,177.550781,69.142647C180.572266,69.142647,182.083008,67.289131,182.083008,63.581127C182.083008,61.212963,181.037109,59.619213,178.945313,58.799877C175.713867,57.670971,174.086914,55.579174,174.064453,52.524487L177.069336,52.524487C177.080078,54.306713,177.783203,55.479565,179.177734,56.044018C183.172852,57.482983,185.170898,59.912182,185.170898,63.332104ZM203.617188,62.834057C203.606445,68.6446,201.083008,71.549873,196.046875,71.549873C190.944336,71.549873,188.393555,68.6446,188.393555,62.834057L188.393555,46.298901L191.232422,46.298901L191.232422,56.376049L191.913086,56.376049C192.732422,54.915112,194.110352,54.184643,196.046875,54.184643C201.09375,54.195873,203.617188,57.079174,203.617188,62.834057ZM200.512695,62.834057C200.512695,58.639721,199.018555,56.542065,196.030273,56.542065C192.998047,56.542065,191.481445,58.650463,191.481445,62.86726C191.481445,67.05085,193.008789,69.142647,196.063476,69.142647C199.029297,69.142647,200.512695,67.040108,200.512695,62.834057ZM222.030273,72.081123C222.019531,76.430733,219.583984,78.605538,214.725586,78.605538C209.46875,78.605538,206.839844,76.380928,206.839844,71.931709C206.839844,70.34919,207.620117,68.97126,209.180664,67.79792L212.301758,67.79792C210.708008,69.07087,209.911133,70.443428,209.911133,71.915108C209.911133,74.80378,211.527344,76.248116,214.758789,76.248116C217.658203,76.248116,219.108398,74.914131,219.108398,72.247139L219.108398,61.024487C219.108398,58.047436,217.796875,56.558666,215.173828,56.558666C212.550781,56.558666,211.239258,57.787182,211.239258,60.244213C211.239258,61.472729,211.582031,62.646069,212.268555,63.763744L209.34668,63.780346C208.726562,62.950268,208.416992,61.799389,208.416992,60.327221C208.416992,56.232494,210.664062,54.190502,215.157227,54.201244C219.728516,54.201244,222.019531,56.481518,222.030273,61.041088L222.030273,72.081123ZM232.90625,56.542065C229.862305,56.542065,228.34082,58.329662,228.34082,61.904369C228.34082,66.586006,230.020508,70.208077,233.378906,72.770088C236.738281,75.3321,238.417969,77.277412,238.417969,78.605537L235.263672,78.605537C234.865234,76.657295,233.744141,75.464912,231.902344,75.027901C230.058594,74.590401,228.617188,74.947334,227.577148,76.098702L226.298828,74.521553C226.985352,73.514229,227.948242,72.938545,229.1875,72.794991L229.40332,72.562569C226.647461,69.673897,225.269531,66.093819,225.269531,61.821362C225.269531,56.741284,227.81543,54.201244,232.90625,54.201244C237.930664,54.201244,240.443359,56.80769,240.443359,62.02058C240.443359,63.138744,240.117188,64.198311,239.463867,65.199776C238.810547,66.201729,238.594727,67.565498,238.816406,69.292061L236.176758,69.308663C235.955078,67.571358,236.09961,66.237373,236.608399,65.307686C237.117188,64.377998,237.37207,63.265698,237.37207,61.970776C237.37207,58.351635,235.883789,56.542065,232.90625,56.542065ZM258.873047,62.468823C258.873047,66.309639,257.544922,69.336495,254.888672,71.549873L252.464844,71.549873C254.689453,68.672432,255.795899,65.645576,255.785156,62.468822C255.785156,58.540112,254.34668,56.575268,251.46875,56.575268C248.347656,56.575268,246.78711,58.52351,246.78711,62.419018C246.78711,65.540108,247.882813,68.584053,250.074219,71.549873L247.617188,71.549873C244.983399,69.258858,243.676758,66.198799,243.699219,62.369213C243.676758,56.923901,246.245117,54.201244,251.402344,54.201244C256.393555,54.201244,258.883789,56.957104,258.873047,62.468823Z" opacity="0" fill="rgb(2,185,185)" stroke="none" stroke-width="1"/><path id="eH7YyQeJNpr9" d="M6.533203,74.804756C6.533203,76.410713,6.125977,77.587959,5.3125,78.336006C4.498047,79.083565,3.310547,79.458077,1.749023,79.458077L0,79.458077L0,76.917061L1.253906,76.917061C2.089844,76.917061,2.677734,76.752022,3.019531,76.421944C3.360352,76.091866,3.530273,75.53083,3.530273,74.738838L3.530273,52.794018L6.533203,52.794018L6.533203,74.804756ZM3.613281,49.262768C3.227539,48.866772,3.035156,48.383373,3.035156,47.811108C3.035156,47.23933,3.227539,46.754955,3.613281,46.358959C3.998047,45.962963,4.476562,45.765209,5.048828,45.765209C5.620117,45.765209,6.098633,45.962963,6.484375,46.358959C6.869141,46.754955,7.061523,47.23933,7.061523,47.811108C7.061523,48.383373,6.869141,48.866772,6.484375,49.262768C6.098633,49.658764,5.620117,49.857006,5.048828,49.857006C4.476563,49.857006,3.998047,49.658764,3.613281,49.262768ZM11.053711,49.262768C10.658203,48.866772,10.459961,48.383373,10.459961,47.811108C10.459961,47.23933,10.658203,46.754955,11.053711,46.358959C11.450195,45.962963,11.933594,45.765209,12.505859,45.765209C13.055664,45.765209,13.523437,45.962963,13.908203,46.358959C14.292969,46.754955,14.486328,47.23933,14.486328,47.811108C14.486328,48.383373,14.292969,48.866772,13.908203,49.262768C13.523438,49.658764,13.055664,49.857006,12.505859,49.857006C11.933594,49.857006,11.450195,49.658764,11.053711,49.262768ZM13.958008,52.794018L13.958008,70.877998L10.955078,70.877998L10.955078,52.794018L13.958008,52.794018ZM32.570313,54.460522C33.933594,55.792065,34.616211,57.71101,34.616211,60.218823L34.616211,70.877998L31.646484,70.877998L31.646484,60.648022C31.646484,58.844311,31.195312,57.463451,30.292969,56.50642C29.390625,55.549389,28.15918,55.070873,26.59668,55.070873C25.012695,55.070873,23.75293,55.56599,22.818359,56.556225C21.882812,57.545971,21.416015,58.987377,21.416015,60.878979L21.416015,70.877998L18.413086,70.877998L18.413086,52.794018L21.416015,52.794018L21.416015,55.368237C22.009765,54.44392,22.818359,53.729565,23.841797,53.223217C24.864258,52.717358,25.992187,52.46394,27.223633,52.46394C29.423828,52.46394,31.206055,53.129467,32.570313,54.460522ZM38.873047,56.902416C39.621094,55.505444,40.649414,54.422436,41.958984,53.651928C43.267578,52.882397,44.724609,52.497143,46.331055,52.497143C47.915039,52.497143,49.290039,52.838451,50.456055,53.520092C51.62207,54.202221,52.490234,55.060131,53.063477,56.093822L53.063477,52.794018L56.098633,52.794018L56.098633,70.877998L53.063477,70.877998L53.063477,67.511787C52.46875,68.56794,51.583008,69.442451,50.40625,70.135323C49.229492,70.828682,47.859375,71.174873,46.297852,71.174873C44.691406,71.174873,43.240234,70.778877,41.942383,69.986885C40.643555,69.194893,39.621094,68.084541,38.873047,66.653877C38.125,65.22419,37.750977,63.596264,37.750977,61.770092C37.750977,59.921948,38.125,58.299877,38.873047,56.902416ZM52.238281,58.238842C51.6875,57.227123,50.945312,56.451733,50.010742,55.91267C49.075195,55.373608,48.046875,55.104076,46.924805,55.104076C45.802734,55.104076,44.780273,55.368237,43.856445,55.896069C42.931641,56.423901,42.194336,57.194408,41.645508,58.206127C41.094727,59.218334,40.820312,60.406322,40.820312,61.770092C40.820312,63.155834,41.094727,64.36042,41.645508,65.383369C42.194336,66.406319,42.931641,67.187569,43.856445,67.726631C44.780273,68.265694,45.802734,68.535225,46.924805,68.535225C48.046875,68.535225,49.075195,68.265694,50.010742,67.726631C50.945312,67.187569,51.6875,66.406319,52.238281,65.383369C52.788086,64.36042,53.063477,63.167553,53.063477,61.802807C53.063477,60.439037,52.788086,59.251049,52.238281,58.238842ZM71.674805,46.45808L71.674805,70.877998L68.671875,70.877998L68.671875,46.45808L71.674805,46.45808ZM76.128906,56.902416C76.876953,55.505444,77.905273,54.422436,79.214844,53.651928C80.523438,52.882397,81.980469,52.497143,83.586914,52.497143C85.170898,52.497143,86.545898,52.838451,87.711914,53.520092C88.87793,54.202221,89.746094,55.060131,90.319336,56.093822L90.319336,52.794018L93.354492,52.794018L93.354492,70.877998L90.319336,70.877998L90.319336,67.511787C89.724609,68.56794,88.838867,69.442451,87.662109,70.135323C86.485352,70.828682,85.115234,71.174873,83.553711,71.174873C81.947266,71.174873,80.496094,70.778877,79.198242,69.986885C77.899414,69.194893,76.876953,68.084541,76.128906,66.653877C75.380859,65.22419,75.006836,63.596264,75.006836,61.770092C75.006836,59.921948,75.380859,58.299877,76.128906,56.902416ZM89.494141,58.238842C88.943359,57.227123,88.201172,56.451733,87.266602,55.91267C86.331055,55.373608,85.302734,55.104076,84.180664,55.104076C83.058594,55.104076,82.036133,55.368237,81.112305,55.896069C80.1875,56.423901,79.450195,57.194408,78.901367,58.206127C78.350586,59.218334,78.076172,60.406322,78.076172,61.770092C78.076172,63.155834,78.350586,64.36042,78.901367,65.383369C79.450195,66.406319,80.1875,67.187569,81.112305,67.726631C82.036133,68.265694,83.058594,68.535225,84.180664,68.535225C85.302734,68.535225,86.331055,68.265694,87.266602,67.726631C88.201172,67.187569,88.943359,66.406319,89.494141,65.383369C90.043945,64.36042,90.319336,63.167553,90.319336,61.802807C90.319336,60.439037,90.043945,59.251049,89.494141,58.238842ZM121.96582,52.794018L121.96582,70.877998L118.962891,70.877998L118.962891,68.205147C118.390625,69.128975,117.592773,69.849678,116.570313,70.36628C115.546875,70.883369,114.419922,71.142159,113.1875,71.142159C111.779297,71.142159,110.514648,70.850655,109.392578,70.267647C108.270508,69.684639,107.384766,68.810127,106.736328,67.644112C106.086914,66.478096,105.762695,65.059151,105.762695,63.386791L105.762695,52.794018L108.732422,52.794018L108.732422,62.990795C108.732422,64.773018,109.183594,66.142647,110.085938,67.099678C110.987305,68.056709,112.219727,68.535225,113.78125,68.535225C115.387695,68.535225,116.652344,68.040108,117.577148,67.049873C118.500977,66.060127,118.962891,64.619209,118.962891,62.727123L118.962891,52.794018L121.96582,52.794018ZM129.390625,46.45808L129.390625,70.877998L126.387695,70.877998L126.387695,46.45808L129.390625,46.45808ZM133.944336,49.262768C133.548828,48.866772,133.350586,48.383373,133.350586,47.811108C133.350586,47.23933,133.548828,46.754955,133.944336,46.358959C134.34082,45.962963,134.824219,45.765209,135.396484,45.765209C135.946289,45.765209,136.414062,45.962963,136.798828,46.358959C137.183594,46.754955,137.376953,47.23933,137.376953,47.811108C137.376953,48.383373,137.183594,48.866772,136.798828,49.262768C136.414063,49.658764,135.946289,49.857006,135.396484,49.857006C134.824219,49.857006,134.34082,49.658764,133.944336,49.262768ZM136.848633,52.794018L136.848633,70.877998L133.845703,70.877998L133.845703,52.794018L136.848633,52.794018ZM166.811523,53.338451C167.911133,53.921459,168.780273,54.795971,169.418945,55.961987C170.056641,57.128491,170.375976,58.547436,170.375976,60.218822L170.375976,70.877998L167.405273,70.877998L167.405273,60.648022C167.405273,58.844311,166.959961,57.463451,166.069336,56.50642C165.177734,55.549389,163.973633,55.070873,162.456055,55.070873C160.893555,55.070873,159.650391,55.57185,158.726562,56.572338C157.802734,57.573803,157.34082,59.020092,157.34082,60.912182L157.34082,70.877998L154.371094,70.877998L154.371094,60.648022C154.371094,58.844311,153.924805,57.463451,153.03418,56.50642C152.143555,55.549389,150.938476,55.070873,149.420898,55.070873C147.858398,55.070873,146.615234,55.57185,145.691406,56.572338C144.767578,57.573803,144.305664,59.020092,144.305664,60.912182L144.305664,70.877998L141.302734,70.877998L141.302734,52.794018L144.305664,52.794018L144.305664,55.400951C144.899414,54.455151,145.697266,53.729565,146.698242,53.223217C147.699219,52.717358,148.804687,52.46394,150.014648,52.46394C151.533203,52.46394,152.874023,52.805248,154.041015,53.486889C155.207031,54.169018,156.075195,55.169994,156.647461,56.489819C157.15332,55.214428,157.989258,54.224194,159.155273,53.520092C160.321289,52.81599,161.61914,52.46394,163.049804,52.46394C164.457031,52.46394,165.710938,52.755932,166.811523,53.338451ZM198.722656,52.794018L193.080078,70.877998L189.977539,70.877998L185.62207,56.523022L181.265625,70.877998L178.164062,70.877998L172.488281,52.794018L175.556641,52.794018L179.714844,67.97419L184.203125,52.794018L187.271484,52.794018L191.661133,68.006905L195.75293,52.794018L198.722656,52.794018ZM217.433594,62.95808L202.979492,62.95808C203.088867,64.739815,203.699219,66.131905,204.810547,67.132393C205.920899,68.133858,207.269531,68.633858,208.853516,68.633858C210.151367,68.633858,211.234375,68.331612,212.103516,67.726631C212.972656,67.121651,213.583008,66.313057,213.935547,65.30085L217.168945,65.30085C216.68457,67.039131,215.716797,68.452705,214.265625,69.541573C212.813477,70.63044,211.008789,71.174873,208.853516,71.174873C207.137695,71.174873,205.602539,70.790108,204.25,70.020088C202.896484,69.250069,201.834961,68.155342,201.06543,66.736397C200.294922,65.317451,199.910156,63.673412,199.910156,61.802807C199.910156,59.933178,200.28418,58.294018,201.032227,56.885815C201.780274,55.478588,202.831055,54.394604,204.183594,53.635326C205.537109,52.876537,207.092774,52.497143,208.853516,52.497143C210.569336,52.497143,212.086914,52.871166,213.407227,53.619213C214.727539,54.36726,215.744141,55.396069,216.459961,56.704662C217.174805,58.013744,217.532227,59.493236,217.532227,61.143139C217.532227,61.715405,217.499023,62.320385,217.433594,62.95808ZM213.670898,57.562573C213.165039,56.737377,212.477539,56.110424,211.608398,55.681713C210.739258,55.252514,209.777344,55.038158,208.72168,55.038158C207.203125,55.038158,205.910156,55.522045,204.84375,56.489819C203.776367,57.458569,203.166016,58.799877,203.012695,60.516186L214.430664,60.516186C214.430664,59.372143,214.176758,58.38728,213.670898,57.562573ZM234.989258,54.460522C236.352539,55.792065,237.035156,57.71101,237.035156,60.218823L237.035156,70.877998L234.06543,70.877998L234.06543,60.648022C234.06543,58.844311,233.614258,57.463451,232.711914,56.50642C231.80957,55.549389,230.578125,55.070873,229.015625,55.070873C227.431641,55.070873,226.171875,55.56599,225.237305,56.556225C224.301758,57.545971,223.834961,58.987377,223.834961,60.878979L223.834961,70.877998L220.832031,70.877998L220.832031,52.794018L223.834961,52.794018L223.834961,55.368237C224.428711,54.44392,225.237305,53.729565,226.260742,53.223217C227.283203,52.717358,228.411133,52.46394,229.642578,52.46394C231.842773,52.46394,233.625,53.129467,234.989258,54.460522ZM252.858398,53.520092C254.035156,54.202221,254.90918,55.060131,255.482422,56.093823L255.482422,52.794018L258.517578,52.794018L258.517578,71.273995C258.517578,72.923897,258.166016,74.392647,257.461914,75.679268C256.757812,76.966377,255.750976,77.973213,254.442383,78.698799C253.133789,79.424873,251.609375,79.788155,249.87207,79.788155C247.496094,79.788155,245.515625,79.227119,243.931641,78.105049C242.347656,76.982979,241.413086,75.453682,241.126953,73.518135L244.09668,73.518135C244.426758,74.617744,245.108398,75.502998,246.142578,76.174385C247.176758,76.845283,248.419922,77.181221,249.87207,77.181221C251.522461,77.181221,252.869141,76.663643,253.914062,75.629951C254.958984,74.595772,255.482422,73.143623,255.482422,71.273994L255.482422,67.479072C254.887695,68.535225,254.007812,69.415108,252.841797,70.119209C251.675781,70.823311,250.311523,71.174873,248.75,71.174873C247.143555,71.174873,245.686523,70.778877,244.37793,69.986885C243.068359,69.194893,242.040039,68.084541,241.291992,66.653877C240.543945,65.22419,240.169922,63.596264,240.169922,61.770092C240.169922,59.921947,240.543945,58.299877,241.291992,56.902416C242.040039,55.505443,243.068359,54.422436,244.37793,53.651928C245.686523,52.882397,247.143555,52.497143,248.75,52.497143C250.311523,52.497143,251.681641,52.838451,252.858398,53.520092ZM254.657227,58.238842C254.106445,57.227123,253.364258,56.451733,252.429688,55.91267C251.494141,55.373608,250.46582,55.104076,249.34375,55.104076C248.22168,55.104076,247.199219,55.368237,246.275391,55.896069C245.350586,56.423901,244.613281,57.194408,244.064453,58.206127C243.513672,59.218334,243.239258,60.406322,243.239258,61.770092C243.239258,63.155834,243.513672,64.36042,244.064453,65.383369C244.613281,66.406319,245.350586,67.187569,246.275391,67.726631C247.199219,68.265694,248.22168,68.535225,249.34375,68.535225C250.46582,68.535225,251.494141,68.265694,252.429688,67.726631C253.364258,67.187569,254.106445,66.406319,254.657227,65.383369C255.207031,64.36042,255.482422,63.167553,255.482422,61.802807C255.482422,60.439037,255.207031,59.251049,254.657227,58.238842ZM278.978516,52.794018L278.978516,70.877998L275.975586,70.877998L275.975586,68.205147C275.40332,69.128975,274.605469,69.849678,273.583008,70.36628C272.55957,70.883369,271.432617,71.142159,270.200195,71.142159C268.791992,71.142159,267.527344,70.850655,266.405273,70.267647C265.283203,69.684639,264.397461,68.810127,263.749023,67.644112C263.099609,66.478096,262.775391,65.059151,262.775391,63.386791L262.775391,52.794018L265.745117,52.794018L265.745117,62.990795C265.745117,64.773018,266.196289,66.142647,267.098633,67.099678C268,68.056709,269.232422,68.535225,270.793945,68.535225C272.400391,68.535225,273.665039,68.040108,274.589844,67.049873C275.513672,66.060127,275.975586,64.619209,275.975586,62.727123L275.975586,52.794018L278.978516,52.794018Z" opacity="0" fill="rgb(2,185,185)" stroke="none" stroke-width="1"/><path id="eH7YyQeJNpr10" d="M26.234375,52.101147L20.591797,70.185127L17.489258,70.185127L13.133789,55.830151L8.777344,70.185127L5.675781,70.185127L0,52.101147L3.068359,52.101147L7.226563,67.281319L11.714844,52.101147L14.783203,52.101147L19.172852,67.314034L23.264648,52.101147L26.234375,52.101147ZM31.827148,69.327217C30.452148,68.557198,29.374023,67.462471,28.59375,66.043526C27.8125,64.62458,27.421875,62.980541,27.421875,61.109936C27.421875,59.26228,27.823242,57.628491,28.625977,56.209545C29.429688,54.7906,30.524414,53.701733,31.910156,52.942455C33.295899,52.183666,34.84668,51.804272,36.5625,51.804272C38.279297,51.804272,39.830078,52.183666,41.21582,52.942455C42.601563,53.701733,43.696289,54.785717,44.499024,56.192944C45.302734,57.601147,45.704102,59.240307,45.704102,61.109936C45.704102,62.980541,45.291016,64.624581,44.466797,66.043526C43.641602,67.462471,42.524414,68.557198,41.117188,69.327217C39.708984,70.097237,38.146484,70.482002,36.430664,70.482002C34.736328,70.482002,33.202148,70.097237,31.827148,69.327217ZM39.466797,67.083077C40.412109,66.577217,41.177734,65.818428,41.760742,64.806221C42.342773,63.794506,42.634766,62.562084,42.634766,61.109936C42.634766,59.658276,42.348633,58.426342,41.777344,57.414135C41.204101,56.402416,40.457031,55.64851,39.533203,55.153393C38.609375,54.658764,37.607422,54.411205,36.530273,54.411205C35.429687,54.411205,34.422851,54.658764,33.510742,55.153393C32.597656,55.64851,31.865234,56.402416,31.316406,57.414135C30.765625,58.426342,30.491211,59.658276,30.491211,61.109936C30.491211,62.584545,30.759766,63.827709,31.299805,64.838936C31.837891,65.851143,32.558594,66.604561,33.460938,67.099678C34.362305,67.594795,35.352539,67.842354,36.430664,67.842354C37.508789,67.842354,38.520508,67.589424,39.466797,67.083077ZM54.267578,52.628979C55.246094,52.057201,56.439453,51.771069,57.847656,51.771069L57.847656,54.873119L57.055664,54.873119C53.689453,54.873119,52.006836,56.699291,52.006836,60.351147L52.006836,70.185127L49.003906,70.185127L49.003906,52.101147L52.006836,52.101147L52.006836,55.038158C52.535156,54.004467,53.288086,53.201244,54.267578,52.628979ZM63.655273,45.765209L63.655273,70.185127L60.652344,70.185127L60.652344,45.765209L63.655273,45.765209ZM68.110352,56.209545C68.858399,54.812572,69.886719,53.729565,71.196289,52.959057C72.504883,52.189526,73.972656,51.804272,75.601563,51.804272C77.008789,51.804272,78.318359,52.128979,79.52832,52.777416C80.738281,53.42683,81.662109,54.279369,82.300781,55.335033L82.300781,45.765209L85.335937,45.765209L85.335937,70.185127L82.300781,70.185127L82.300781,66.786201C81.706055,67.864326,80.826172,68.74958,79.660156,69.442451C78.494141,70.135811,77.129883,70.482002,75.568359,70.482002C73.961914,70.482002,72.504883,70.086006,71.196289,69.294014C69.886719,68.502022,68.858398,67.39167,68.110352,65.961006C67.362305,64.531319,66.988281,62.903393,66.988281,61.077221C66.988281,59.229076,67.362305,57.607006,68.110352,56.209545ZM81.475586,57.545971C80.924805,56.534252,80.182617,55.758862,79.248047,55.219799C78.3125,54.680737,77.28418,54.411205,76.162109,54.411205C75.040039,54.411205,74.017578,54.675365,73.09375,55.203197C72.168945,55.731029,71.43164,56.501537,70.882812,57.513256C70.332031,58.525463,70.057617,59.713451,70.057617,61.077221C70.057617,62.462963,70.332031,63.667553,70.882812,64.690498C71.43164,65.713447,72.168945,66.494697,73.09375,67.03376C74.017578,67.572822,75.040039,67.842354,76.162109,67.842354C77.28418,67.842354,78.3125,67.572823,79.248047,67.03376C80.182617,66.494697,80.924805,65.713447,81.475586,64.690498C82.025391,63.667553,82.300781,62.474682,82.300781,61.109936C82.300781,59.746166,82.025391,58.558178,81.475586,57.545971ZM112.066406,53.767651C113.429687,55.099194,114.112305,57.018139,114.112305,59.525951L114.112305,70.185127L111.142578,70.185127L111.142578,59.955151C111.142578,58.15144,110.691406,56.77058,109.789062,55.813549C108.886719,54.856518,107.655273,54.378002,106.092773,54.378002C104.508789,54.378002,103.249023,54.873119,102.314453,55.863354C101.378906,56.8531,100.912109,58.294506,100.912109,60.186108L100.912109,70.185127L97.90918,70.185127L97.90918,52.101147L100.912109,52.101147L100.912109,54.675366C101.505859,53.751049,102.314453,53.036694,103.33789,52.530346C104.360351,52.024487,105.488281,51.771069,106.719726,51.771069C108.919922,51.771069,110.702148,52.436596,112.066406,53.767651ZM118.369141,56.209545C119.117188,54.812572,120.145508,53.729565,121.455078,52.959057C122.763672,52.189526,124.220703,51.804272,125.827148,51.804272C127.411133,51.804272,128.786133,52.14558,129.952148,52.827221C131.118164,53.50935,131.986328,54.36726,132.55957,55.400951L132.55957,52.101147L135.594726,52.101147L135.594726,70.185127L132.55957,70.185127L132.55957,66.818916C131.964844,67.875069,131.079101,68.74958,129.902344,69.442452C128.725586,70.135811,127.355469,70.482002,125.793945,70.482002C124.1875,70.482002,122.736328,70.086006,121.438477,69.294014C120.139648,68.502022,119.117187,67.39167,118.369141,65.961006C117.621094,64.531319,117.24707,62.903393,117.24707,61.077221C117.24707,59.229076,117.621094,57.607006,118.369141,56.209545ZM131.734375,57.545971C131.183594,56.534252,130.441406,55.758862,129.506836,55.219799C128.571289,54.680737,127.542969,54.411205,126.420898,54.411205C125.298828,54.411205,124.276367,54.675365,123.352539,55.203197C122.427734,55.731029,121.69043,56.501537,121.141602,57.513256C120.59082,58.525463,120.316406,59.713451,120.316406,61.077221C120.316406,62.462963,120.59082,63.667553,121.141602,64.690498C121.69043,65.713447,122.427734,66.494697,123.352539,67.03376C124.276367,67.572822,125.298828,67.842354,126.420898,67.842354C127.542969,67.842354,128.571289,67.572823,129.506836,67.03376C130.441406,66.494697,131.183594,65.713447,131.734375,64.690498C132.28418,63.667553,132.55957,62.474682,132.55957,61.109936C132.55957,59.746166,132.28418,58.558178,131.734375,57.545971ZM165.525391,52.64558C166.625,53.228588,167.494141,54.1031,168.132813,55.269116C168.770508,56.435619,169.089844,57.854565,169.089844,59.525951L169.089844,70.185127L166.119141,70.185127L166.119141,59.955151C166.119141,58.15144,165.673828,56.77058,164.783203,55.813549C163.891601,54.856518,162.6875,54.378002,161.169922,54.378002C159.607422,54.378002,158.364258,54.878979,157.44043,55.879467C156.516602,56.880932,156.054687,58.327221,156.054687,60.219311L156.054687,70.185127L153.084961,70.185127L153.084961,59.955151C153.084961,58.15144,152.638672,56.77058,151.748047,55.813549C150.857422,54.856518,149.652344,54.378002,148.134766,54.378002C146.572266,54.378002,145.329101,54.878979,144.405273,55.879467C143.481445,56.880932,143.019531,58.327221,143.019531,60.219311L143.019531,70.185127L140.016601,70.185127L140.016601,52.101147L143.019531,52.101147L143.019531,54.70808C143.613281,53.76228,144.411133,53.036694,145.412109,52.530346C146.413086,52.024487,147.518555,51.771069,148.728515,51.771069C150.24707,51.771069,151.58789,52.112377,152.754883,52.794018C153.920898,53.476147,154.789062,54.477123,155.361328,55.796948C155.867187,54.521557,156.703125,53.531323,157.86914,52.827221C159.035156,52.123119,160.333008,51.771069,161.763672,51.771069C163.170898,51.771069,164.424805,52.063061,165.525391,52.64558ZM189.748047,62.265209L175.293945,62.265209C175.40332,64.046944,176.013672,65.439034,177.125,66.439522C178.235352,67.440987,179.583984,67.940987,181.167969,67.940987C182.46582,67.940987,183.548828,67.63874,184.417969,67.03376C185.287109,66.428779,185.897461,65.620186,186.25,64.607979L189.483398,64.607979C188.999023,66.34626,188.03125,67.759834,186.580078,68.848701C185.12793,69.937569,183.323242,70.482002,181.167969,70.482002C179.452148,70.482002,177.916992,70.097237,176.564453,69.327217C175.210938,68.557198,174.149414,67.462471,173.379883,66.043526C172.609375,64.62458,172.224609,62.980541,172.224609,61.109936C172.224609,59.240307,172.598633,57.601147,173.34668,56.192944C174.094727,54.785717,175.145508,53.701733,176.498047,52.942455C177.851563,52.183666,179.407227,51.804272,181.167969,51.804272C182.883789,51.804272,184.401367,52.178295,185.72168,52.926342C187.041992,53.674389,188.058594,54.703197,188.774414,56.011791C189.489258,57.320873,189.84668,58.800365,189.84668,60.450268C189.84668,61.022533,189.813477,61.627514,189.748047,62.265209ZM185.985352,56.869701C185.479492,56.044506,184.791992,55.417553,183.922852,54.988842C183.053711,54.559643,182.091797,54.345287,181.036133,54.345287C179.517578,54.345287,178.224609,54.829174,177.158203,55.796947C176.09082,56.765697,175.480469,58.107006,175.327148,59.823315L186.745117,59.823315C186.745117,58.679272,186.491211,57.694408,185.985352,56.869701Z" fill="rgb(2,185,185)" stroke="none" stroke-width="1"/><path id="eH7YyQeJNpr11" d="M35.257324,9.315415C36.802246,10.124986,38.01709,11.325181,38.902344,12.915025C39.787109,14.505845,40.22998,16.42479,40.22998,18.67479L40.22998,33.29979L35.14502,33.29979L35.14502,19.440415C35.14502,17.220688,34.589355,15.517564,33.47998,14.332994C32.369629,13.147447,30.854492,12.554673,28.935059,12.554673C27.014648,12.554673,25.492676,13.147447,24.367676,14.332994C23.242676,15.517564,22.680176,17.220688,22.680176,19.440415L22.680176,33.29979L17.595215,33.29979L17.595215,19.440415C17.595215,17.220688,17.039551,15.517564,15.930176,14.332994C14.819824,13.147447,13.304687,12.554673,11.384766,12.554673C9.464844,12.554673,7.942383,13.147447,6.817383,14.332994C5.692383,15.517564,5.129883,17.220688,5.129883,19.440415L5.129883,33.29979L0,33.29979L0,8.504869L5.129883,8.504869L5.129883,11.339829C5.969727,10.320298,7.034668,9.525376,8.325195,8.955064C9.614746,8.385728,10.994629,8.099595,12.464844,8.099595C14.444824,8.099595,16.214844,8.520493,17.774902,9.360337C19.334473,10.200181,20.534668,11.415025,21.375,13.004868C22.124512,11.504868,23.294434,10.312486,24.884766,9.42772C26.474609,8.542954,28.18457,8.099595,30.015137,8.099595C31.964844,8.099595,33.711914,8.504869,35.257324,9.315415ZM51.164551,32.107407C49.274414,31.042953,47.789551,29.542953,46.709473,27.607407C45.629395,25.672836,45.089356,23.430649,45.089356,20.879867C45.089356,18.360336,45.644043,16.125961,46.754395,14.17479C47.86377,12.225571,49.379395,10.725571,51.299316,9.67479C53.21875,8.624986,55.364258,8.099595,57.734375,8.099595C60.104004,8.099595,62.249023,8.624986,64.169434,9.67479C66.088867,10.725571,67.604004,12.225571,68.714356,14.17479C69.823731,16.125961,70.379395,18.360336,70.379395,20.879867C70.379395,23.400375,69.809082,25.635727,68.669434,27.584946C67.528809,29.535141,65.976563,31.042953,64.011719,32.107406C62.046875,33.172836,59.878907,33.705063,57.509278,33.705063C55.169434,33.705063,53.054199,33.172836,51.164551,32.107407ZM61.22168,28.304672C62.376465,27.674789,63.314453,26.730453,64.03418,25.469711C64.754395,24.209946,65.114258,22.679672,65.114258,20.879868C65.114258,19.080063,64.769043,17.557602,64.07959,16.312485C63.38916,15.068345,62.474121,14.129868,61.334473,13.499986C60.193848,12.870103,58.964355,12.554673,57.644531,12.554673C56.32373,12.554673,55.102051,12.870103,53.977051,13.499986C52.852051,14.129869,51.958984,15.068345,51.299316,16.312485C50.63916,17.557602,50.30957,19.080063,50.30957,20.879868C50.30957,23.550766,50.991211,25.612289,52.356934,27.067368C53.72168,28.523422,55.439453,29.249985,57.509277,29.249985C58.829102,29.249985,60.066895,28.934555,61.22168,28.304672ZM93.216309,9.315415C94.761231,10.124986,95.968262,11.325181,96.838867,12.915025C97.708496,14.505845,98.144043,16.42479,98.144043,18.67479L98.144043,33.29979L93.059082,33.29979L93.059082,19.440415C93.059082,17.220688,92.503418,15.517564,91.394043,14.332994C90.283691,13.147447,88.768555,12.554673,86.848633,12.554673C84.928711,12.554673,83.40625,13.147447,82.28125,14.332994C81.15625,15.517564,80.59375,17.220688,80.59375,19.440414L80.59375,33.299789L75.463867,33.299789L75.463867,8.504869L80.59375,8.504869L80.59375,11.339829C81.433594,10.320298,82.506348,9.525376,83.811523,8.955064C85.116211,8.385728,86.503418,8.099595,87.973633,8.099595C89.923828,8.099595,91.670898,8.504869,93.216309,9.315415ZM104.510742,14.17479C105.545898,12.255845,106.955566,10.762681,108.740723,9.697251C110.525391,8.632798,112.513184,8.099595,114.703613,8.099595C116.323242,8.099595,117.920899,8.453111,119.496094,9.157212C121.070801,9.86229,122.323242,10.79979,123.253418,11.969712L123.253418,-0.000015L128.428223,-0.000015L128.428223,33.29979L123.253418,33.29979L123.253418,29.565415C122.413086,30.76561,121.250977,31.754868,119.766113,32.535142C118.280762,33.314439,116.578125,33.705064,114.658691,33.705064C112.498535,33.705064,110.525391,33.158189,108.740723,32.062486C106.955566,30.967759,105.545898,29.437486,104.510742,27.472642C103.476074,25.507798,102.958496,23.280259,102.958496,20.790025C102.958496,18.29979,103.476074,16.095688,104.510742,14.17479ZM122.195801,16.424789C121.490723,15.165025,120.568359,14.205064,119.428223,13.544908C118.288086,12.885728,117.058106,12.554673,115.738281,12.554673C114.417969,12.554673,113.187988,12.877915,112.04834,13.522447C110.908203,14.167954,109.985352,15.113267,109.280762,16.357407C108.575684,17.602524,108.223633,19.080063,108.223633,20.790024C108.223633,22.499985,108.575684,24.000961,109.280762,25.290024C109.985352,26.580063,110.915527,27.562485,112.070801,28.237289C113.225586,28.912094,114.448242,29.249985,115.738281,29.249985C117.058106,29.249985,118.288086,28.919907,119.428223,28.25975C120.56836,27.600571,121.490723,26.632797,122.195801,25.357406C122.900391,24.082992,123.253418,22.589828,123.253418,20.879867C123.253418,19.169906,122.900391,17.684555,122.195801,16.424789ZM139.588379,32.107407C137.698242,31.042953,136.213379,29.542953,135.133301,27.607407C134.053223,25.672836,133.513184,23.430649,133.513184,20.879867C133.513184,18.360336,134.067871,16.125961,135.178223,14.17479C136.287598,12.225571,137.803223,10.725571,139.723145,9.67479C141.642578,8.624986,143.788086,8.099595,146.158203,8.099595C148.527832,8.099595,150.672852,8.624986,152.593262,9.67479C154.512695,10.725571,156.027832,12.225571,157.138184,14.17479C158.247559,16.125961,158.803223,18.360336,158.803223,20.879867C158.803223,23.400375,158.23291,25.635727,157.093262,27.584946C155.952637,29.535141,154.400391,31.042953,152.435547,32.107406C150.470703,33.172836,148.302735,33.705063,145.933106,33.705063C143.593262,33.705063,141.478027,33.172836,139.588379,32.107407ZM149.645508,28.304672C150.800293,27.674789,151.738281,26.730453,152.458008,25.469711C153.178223,24.209946,153.538086,22.679672,153.538086,20.879868C153.538086,19.080063,153.192871,17.557602,152.503418,16.312485C151.812988,15.068345,150.897949,14.129868,149.758301,13.499986C148.617676,12.870103,147.388183,12.554673,146.068359,12.554673C144.747558,12.554673,143.525879,12.870103,142.400879,13.499986C141.275879,14.129869,140.382812,15.068345,139.723144,16.312485C139.062988,17.557602,138.733398,19.080063,138.733398,20.879868C138.733398,23.550766,139.415039,25.612289,140.780762,27.067368C142.145508,28.523422,143.863281,29.249985,145.933105,29.249985C147.25293,29.249985,148.490723,28.934555,149.645508,28.304672ZM181.640137,9.315415C183.185059,10.124986,184.39209,11.325181,185.262695,12.915025C186.132324,14.505845,186.567871,16.42479,186.567871,18.67479L186.567871,33.29979L181.48291,33.29979L181.48291,19.440415C181.48291,17.220688,180.927246,15.517564,179.817871,14.332994C178.70752,13.147447,177.192383,12.554673,175.272461,12.554673C173.352539,12.554673,171.830078,13.147447,170.705078,14.332994C169.580078,15.517564,169.017578,17.220688,169.017578,19.440415L169.017578,33.29979L163.887695,33.29979L163.887695,8.504869L169.017578,8.504869L169.017578,11.339829C169.857422,10.320298,170.930176,9.525376,172.235352,8.955064C173.540039,8.385728,174.927246,8.099595,176.397461,8.099595C178.347656,8.099595,180.094727,8.504869,181.640137,9.315415ZM197.502441,32.107407C195.612305,31.042953,194.127441,29.542953,193.047363,27.607407C191.967285,25.672836,191.427246,23.430649,191.427246,20.879867C191.427246,18.360336,191.981934,16.125961,193.092285,14.17479C194.20166,12.225571,195.717285,10.725571,197.637207,9.67479C199.556641,8.624986,201.702149,8.099595,204.072266,8.099595C206.441895,8.099595,208.586914,8.624986,210.507324,9.67479C212.426758,10.725571,213.941895,12.225571,215.052246,14.17479C216.161621,16.125961,216.717773,18.360336,216.717773,20.879867C216.717773,23.400375,216.146973,25.635727,215.007324,27.584946C213.866699,29.535141,212.314453,31.042953,210.349609,32.107406C208.384766,33.172836,206.216797,33.705063,203.847168,33.705063C201.507324,33.705063,199.39209,33.172836,197.502441,32.107407ZM207.55957,28.304672C208.714355,27.674789,209.652344,26.730453,210.37207,25.469711C211.092285,24.209946,211.452148,22.679672,211.452148,20.879868C211.452148,19.080063,211.106934,17.557602,210.41748,16.312485C209.727051,15.068345,208.812012,14.129868,207.672363,13.499986C206.531738,12.870103,205.302246,12.554673,203.982422,12.554673C202.661621,12.554673,201.439941,12.870103,200.314941,13.499986C199.189941,14.129869,198.296875,15.068345,197.637207,16.312485C196.977051,17.557602,196.647461,19.080063,196.647461,20.879868C196.647461,23.550766,197.329101,25.612289,198.694824,27.067368C200.05957,28.523422,201.777344,29.249985,203.847168,29.249985C205.166992,29.249985,206.404785,28.934555,207.55957,28.304672ZM257.060059,9.315415C258.604981,10.124986,259.819824,11.325181,260.70459,12.915025C261.589355,14.505845,262.032715,16.42479,262.032715,18.67479L262.032715,33.29979L256.946777,33.29979L256.946777,19.440415C256.946777,17.220688,256.39209,15.517564,255.282715,14.332994C254.172363,13.147447,252.656738,12.554673,250.736816,12.554673C248.816895,12.554673,247.293945,13.147447,246.168945,14.332994C245.043945,15.517564,244.481445,17.220688,244.481445,19.440415L244.481445,33.29979L239.396484,33.29979L239.396484,19.440415C239.396484,17.220688,238.84082,15.517564,237.731445,14.332994C236.621094,13.147447,235.106445,12.554673,233.186523,12.554673C231.266602,12.554673,229.744141,13.147447,228.619141,14.332994C227.494141,15.517564,226.931641,17.220688,226.931641,19.440415L226.931641,33.29979L221.801758,33.29979L221.801758,8.504869L226.931641,8.504869L226.931641,11.339829C227.771484,10.320298,228.836914,9.525376,230.126953,8.955064C231.416016,8.385728,232.796875,8.099595,234.266602,8.099595C236.24707,8.099595,238.016602,8.520493,239.577148,9.360337C241.136719,10.200181,242.336914,11.415025,243.176758,13.004868C243.926758,11.504868,245.09668,10.312486,246.686523,9.42772C248.276367,8.542954,249.986816,8.099595,251.816895,8.099595C253.76709,8.099595,255.51416,8.504869,257.060059,9.315415ZM272.966309,32.107407C271.075684,31.042953,269.591309,29.542953,268.511231,27.607407C267.431152,25.672836,266.891113,23.430649,266.891113,20.879867C266.891113,18.360336,267.445801,16.125961,268.556152,14.17479C269.665527,12.225571,271.181152,10.725571,273.101074,9.67479C275.020996,8.624986,277.165527,8.099595,279.536621,8.099595C281.905762,8.099595,284.05127,8.624986,285.971192,9.67479C287.891113,10.725571,289.405762,12.225571,290.516113,14.17479C291.625488,16.125961,292.181153,18.360336,292.181153,20.879867C292.181153,23.400375,291.61084,25.635727,290.471192,27.584946C289.330567,29.535141,287.777832,31.042953,285.813965,32.107406C283.848145,33.172836,281.681153,33.705063,279.311035,33.705063C276.971191,33.705063,274.855957,33.172836,272.966309,32.107407ZM283.023926,28.304672C284.178223,27.674789,285.115723,26.730453,285.836426,25.469711C286.556152,24.209946,286.916504,22.679672,286.916504,20.879868C286.916504,19.080063,286.570801,17.557602,285.881348,16.312485C285.190918,15.068345,284.275879,14.129868,283.13623,13.499986C281.995605,12.870103,280.766113,12.554673,279.445801,12.554673C278.125488,12.554673,276.903809,12.870103,275.778809,13.499986C274.653809,14.129869,273.760254,15.068345,273.101074,16.312485C272.440918,17.557602,272.11084,19.080063,272.11084,20.879868C272.11084,23.550766,272.793457,25.612289,274.158691,27.067368C275.522949,28.523422,277.240723,29.249985,279.311035,29.249985C280.631348,29.249985,281.868652,28.934555,283.023926,28.304672Z" fill="rgb(2,185,185)" stroke="none" stroke-width="1"/><path id="eH7YyQeJNpr12" d="M21.744141,50.086987C21.744141,51.434643,21.322266,52.580151,20.478516,53.52351C19.634766,54.466869,18.521484,55.12019,17.138672,55.483471C18.755859,56.444408,19.564453,57.669018,19.564453,59.157299L19.564453,67.295967C19.564453,68.889717,19.297851,69.8946,18.764648,70.310615C18.231445,70.726631,17.126953,70.934639,15.451172,70.934639L6.134766,70.934639L6.134766,68.456123L8.683594,68.456123L8.683594,59.385815C8.683594,57.979565,9.462891,56.883861,11.021484,56.098705C11.021484,55.454174,10.664062,54.777416,9.949219,54.068432C9.234375,53.359447,8.25,53.004955,6.996094,53.004955C5.988281,53.004955,5.103516,53.207104,4.341797,53.611401C3.580078,54.015697,3.117188,54.452221,2.953125,54.920971L4.253906,54.850658C5.097656,54.850658,5.824219,55.155346,6.433594,55.764721C7.042969,56.374096,7.347656,57.100658,7.347656,57.944408C7.347656,58.77644,7.042969,59.500072,6.433594,60.115307C5.824219,60.730541,5.097656,61.038158,4.253906,61.038158C3.046875,61.038158,2.036133,60.584057,1.22168,59.675854C0.407226,58.767651,0,57.633862,0,56.274487C0,54.704174,0.700195,53.406322,2.100586,52.380932C3.500977,51.355541,5.132813,50.842846,6.996094,50.842846C8.542969,50.842846,9.955078,51.200268,11.232422,51.915112C12.509765,52.629955,13.353516,53.590893,13.763672,54.797924C15.333984,54.422924,16.573242,53.810619,17.481445,52.96101C18.389648,52.111401,18.84375,51.129955,18.84375,50.016674L18.84375,49.629955L21.744141,49.629955L21.744141,50.086987ZM4.253906,59.016674C4.546875,59.016674,4.801758,58.908276,5.018555,58.691479C5.235351,58.474682,5.34375,58.225658,5.34375,57.944408C5.34375,57.65144,5.235352,57.396557,5.018555,57.17976C4.801758,56.962963,4.546875,56.854565,4.253906,56.854565C3.972656,56.854565,3.723633,56.962963,3.506836,57.17976C3.290039,57.396557,3.181641,57.65144,3.181641,57.944408C3.181641,58.225658,3.290039,58.474682,3.506836,58.691479C3.723633,58.908276,3.972656,59.016674,4.253906,59.016674ZM16.646484,67.401436L16.646484,59.420971C16.646484,58.061596,15.720703,56.965893,13.869141,56.133862C12.357422,56.930737,11.601562,58.014721,11.601562,59.385815L11.601562,68.456123L15.697266,68.456123C16.330078,68.456123,16.646484,68.104561,16.646484,67.401436ZM18.914063,48.909252L5.080078,48.909252L5.080078,48.540112C5.080078,47.004955,5.548828,45.704174,6.486328,44.637768C7.423828,43.571362,8.912109,43.038158,10.951172,43.038158C11.607422,43.038158,12.246094,43.108471,12.867187,43.249096L12.867187,42.141674L14.958984,42.141674L14.958984,44.075268C15.662109,44.485424,16.283203,44.977612,16.822266,45.55183L16.822266,42.141674L18.914062,42.141674L18.914062,48.909252ZM15.662109,46.993237C14.689453,45.622143,13.119141,44.936596,10.951172,44.936596C9.955078,44.936596,9.143555,45.127026,8.516602,45.507885C7.889649,45.888744,7.511719,46.383862,7.382813,46.993237L15.662109,46.993237ZM18.914063,40.032299L16.822266,40.032299L16.822266,33.809643L18.914063,33.809643L18.914063,40.032299ZM40.517578,67.295967C40.517578,68.889717,40.250977,69.8946,39.717773,70.310616C39.18457,70.726631,38.080078,70.934639,36.404297,70.934639L29.636719,70.934639C27.960937,70.934639,26.859375,70.726631,26.332031,70.310616C25.804687,69.8946,25.541016,68.889717,25.541016,67.295967L25.541016,63.727612C25.541016,62.215893,25.886719,61.017651,26.578125,60.132885C27.269531,59.248119,28.253906,58.805737,29.53125,58.805737C30.375,58.805737,31.101562,59.110424,31.710937,59.719799C32.320312,60.329174,32.625,61.055737,32.625,61.899487C32.625,62.743237,32.320313,63.469799,31.710938,64.07917C31.101563,64.688545,30.375,64.993233,29.53125,64.993233C29.179688,64.993233,28.816406,64.934639,28.441406,64.817452L28.441406,67.401436C28.441406,68.104561,28.757812,68.456123,29.390625,68.456123L36.650391,68.456123C37.283203,68.456123,37.599609,68.104561,37.599609,67.401436L37.599609,58.12019C37.599609,56.702221,37.227539,55.58601,36.483399,54.771557C35.739258,53.957104,34.394531,53.549877,32.449219,53.549877C29.425781,53.549877,27.603516,54.698315,26.982422,56.99519L24.134766,56.608471C24.966797,52.764721,27.890625,50.842846,32.90625,50.842846C35.496094,50.842846,37.41211,51.399487,38.654297,52.512768C39.896485,53.626049,40.517578,55.413158,40.517578,57.874096L40.517578,67.295967ZM29.53125,62.971752C29.8125,62.971752,30.061523,62.863354,30.27832,62.646557C30.495117,62.42976,30.603516,62.180737,30.603516,61.899487C30.603516,61.606518,30.498047,61.354565,30.287109,61.143627C30.076172,60.93269,29.824219,60.827221,29.53125,60.827221C29.238281,60.827221,28.983398,60.935619,28.766602,61.152416C28.549805,61.369213,28.441406,61.618237,28.441406,61.899487C28.441406,62.180737,28.549805,62.42976,28.766602,62.646557C28.983399,62.863354,29.238281,62.971752,29.53125,62.971752ZM59.34375,68.01667C59.34375,68.86042,59.039063,69.586983,58.429688,70.196358C57.820313,70.805733,57.087891,71.11042,56.232422,71.11042C54.966797,71.11042,53.985352,70.682686,53.288086,69.827217C52.59082,68.971748,52.242188,67.758858,52.242188,66.188545L52.242188,52.389721C52.242188,50.62019,51.966797,49.460033,51.416016,48.909252C50.865234,48.358471,50.050781,48.08308,48.972656,48.08308C47.671875,48.08308,46.119141,48.37019,44.314453,48.944408C44.220703,48.27644,44.173828,47.696361,44.173828,47.204174C44.173828,45.258861,44.724609,43.758861,45.826172,42.704174C46.927735,41.649486,48.539063,41.122143,50.660156,41.122143L56.636719,41.350658C57.890625,41.350658,58.898438,41.251049,59.660156,41.05183L59.976563,43.49519C59.261719,43.717846,58.160156,43.829174,56.671875,43.829174L50.695313,43.618237C49.558594,43.618237,48.667969,43.835033,48.023438,44.268627C47.378906,44.702221,47.021485,45.27644,46.951172,45.991283C47.72461,45.721752,48.550781,45.586986,49.429688,45.586986C51.574219,45.586986,53.06543,46.052807,53.90332,46.984447C54.741211,47.916088,55.160156,49.717846,55.160156,52.389721L55.160156,65.098701C55.523438,64.981514,55.880859,64.92292,56.232422,64.92292C57.076172,64.92292,57.805664,65.227608,58.420899,65.836983C59.036133,66.446358,59.34375,67.17292,59.34375,68.01667ZM57.322266,68.01667C57.322266,67.73542,57.213867,67.486397,56.99707,67.2696C56.780273,67.052803,56.525391,66.944405,56.232422,66.944405C55.951172,66.944405,55.702149,67.052803,55.485352,67.2696C55.268555,67.486397,55.160156,67.73542,55.160156,68.01667C55.160156,68.309639,55.268555,68.564522,55.485352,68.781319C55.702149,68.998115,55.951172,69.106514,56.232422,69.106514C56.525391,69.106514,56.780274,68.998116,56.99707,68.781319C57.213867,68.564522,57.322266,68.309639,57.322266,68.01667ZM78.380859,70.934639L75.462891,70.934639L75.462891,67.225655C74.876953,65.420967,74.015625,63.909252,72.878906,62.690502C71.742187,61.471752,70.529297,60.862377,69.240234,60.862377C68.103516,60.862377,67.253906,61.172924,66.691406,61.794018C66.128906,62.415112,65.847656,63.340893,65.847656,64.571358L65.847656,65.098701C66.210937,64.981514,66.574219,64.92292,66.9375,64.92292C67.78125,64.92292,68.507813,65.227608,69.117188,65.836983C69.726563,66.446358,70.03125,67.17292,70.03125,68.01667C70.03125,68.86042,69.726563,69.586983,69.117188,70.196358C68.507813,70.805733,67.78125,71.11042,66.9375,71.11042C65.660156,71.11042,64.672852,70.682686,63.975586,69.827217C63.27832,68.971748,62.929688,67.758858,62.929688,66.188545L62.929688,64.518623C62.929688,62.667065,63.489258,61.178783,64.608398,60.053783C65.727539,58.928783,67.283203,58.366283,69.275391,58.366283C70.599609,58.366283,71.818359,58.758861,72.931641,59.544018C74.044922,60.329174,74.888672,61.378002,75.462891,62.690502L75.462891,58.085033C75.462891,56.678783,75.09082,55.571361,74.34668,54.762768C73.602539,53.954174,72.257813,53.549877,70.3125,53.549877C68.800781,53.549877,67.587891,53.836987,66.673828,54.411205C65.759766,54.985424,65.150391,55.846752,64.845703,56.99519L61.998047,56.608471C62.408203,54.686596,63.345703,53.24519,64.810547,52.284252C66.275391,51.323314,68.267578,50.842846,70.787109,50.842846C73.376953,50.842846,75.290039,51.399486,76.526367,52.512768C77.762695,53.626049,78.380859,55.413158,78.380859,57.874096L78.380859,70.934639ZM66.9375,69.106514C67.21875,69.106514,67.467773,68.998116,67.68457,68.781319C67.901367,68.564522,68.009766,68.309639,68.009766,68.01667C68.009766,67.73542,67.901367,67.486397,67.68457,67.2696C67.467773,67.052803,67.21875,66.944405,66.9375,66.944405C66.644531,66.944405,66.389648,67.052803,66.172852,67.2696C65.956055,67.486397,65.847656,67.73542,65.847656,68.01667C65.847656,68.309639,65.956055,68.564522,66.172852,68.781319C66.389649,68.998115,66.644531,69.106514,66.9375,69.106514ZM99.615234,70.934639L96.697266,70.934639L96.697266,57.575268C96.697266,56.52058,96.181641,55.58601,95.150391,54.771557C94.119141,53.957104,92.8125,53.549877,91.230469,53.549877C90.140625,53.549877,89.165039,53.737377,88.303711,54.112377C87.442383,54.487377,86.818359,54.973705,86.431641,55.571362C88.248047,55.911205,89.472656,56.80769,90.105469,58.260815C89.027344,58.506908,88.195312,58.966869,87.609375,59.640697C87.023437,60.314526,86.730469,61.11433,86.730469,62.040112L86.730469,70.934639L83.8125,70.934639L83.8125,62.14558C83.8125,60.141674,84.75,58.846752,86.625,58.260815C86.308594,57.780346,85.048828,57.540112,82.845703,57.540112C82.845703,55.665112,83.616211,54.080151,85.157227,52.785229C86.698242,51.490307,88.722656,50.842846,91.230469,50.842846C93.75,50.842846,95.777344,51.469799,97.3125,52.723705C98.847656,53.977612,99.615234,55.536205,99.615234,57.399487L99.615234,70.934639Z" opacity="0" fill="rgb(2,185,185)" stroke="none" stroke-width="1"/></svg>